<?xml version="1.0" encoding="UTF-8" standalone="no"?>
<!-- Created with Inkscape (http://www.inkscape.org/) -->

<svg
   xmlns:dc="http://purl.org/dc/elements/1.1/"
   xmlns:cc="http://creativecommons.org/ns#"
   xmlns:rdf="http://www.w3.org/1999/02/22-rdf-syntax-ns#"
   xmlns:svg="http://www.w3.org/2000/svg"
   xmlns="http://www.w3.org/2000/svg"
   xmlns:sodipodi="http://sodipodi.sourceforge.net/DTD/sodipodi-0.dtd"
   xmlns:inkscape="http://www.inkscape.org/namespaces/inkscape"
   width="735.61438"
   height="353.26801"
   id="svg4515"
   version="1.1"
   inkscape:version="0.48.4 r9939"
   sodipodi:docname="pfluid.svg"
   inkscape:export-filename="/home/chardon/Documents/Depot/gforge/star/v1_CGF2015/images/pfluid.png"
   inkscape:export-xdpi="400"
   inkscape:export-ydpi="400">
  <defs
     id="defs4517">
    <inkscape:path-effect
       effect="construct_grid"
       id="path-effect5097"
       is_visible="true"
       nr_x="10"
       nr_y="20" />
    <inkscape:path-effect
       nr_y="5"
       nr_x="10"
       is_visible="true"
       id="path-effect2987"
       effect="construct_grid" />
    <inkscape:path-effect
       nr_y="5"
       nr_x="10"
       is_visible="true"
       id="path-effect2987-4"
       effect="construct_grid" />
  </defs>
  <sodipodi:namedview
     id="base"
     pagecolor="#ffffff"
     bordercolor="#666666"
     borderopacity="1.0"
     inkscape:pageopacity="1"
     inkscape:pageshadow="2"
     inkscape:zoom="2"
     inkscape:cx="428.6405"
     inkscape:cy="112.89099"
     inkscape:document-units="px"
     inkscape:current-layer="layer1"
     showgrid="false"
     inkscape:window-width="1920"
     inkscape:window-height="1018"
     inkscape:window-x="0"
     inkscape:window-y="27"
     inkscape:window-maximized="1"
     inkscape:snap-global="false"
     fit-margin-top="20"
     fit-margin-right="20"
     fit-margin-bottom="20"
     fit-margin-left="20">
    <inkscape:grid
       type="xygrid"
       id="grid5099"
       empspacing="5"
       visible="true"
       enabled="true"
       snapvisiblegridlinesonly="true"
       originx="-1953.1888px"
       originy="1179.5164px" />
  </sodipodi:namedview>
  <metadata
     id="metadata4520">
    <rdf:RDF>
      <cc:Work
         rdf:about="">
        <dc:format>image/svg+xml</dc:format>
        <dc:type
           rdf:resource="http://purl.org/dc/dcmitype/StillImage" />
        <dc:title />
      </cc:Work>
    </rdf:RDF>
  </metadata>
  <g
     inkscape:label="Layer 1"
     inkscape:groupmode="layer"
     id="layer1"
     transform="translate(-1953.1888,-1878.6106)">
    <rect
       style="fill:#ffb591;fill-opacity:1;stroke:none"
       id="rect5775"
       width="101.29305"
       height="30.228815"
       x="2323.1824"
       y="2006.3115" />
    <rect
       style="fill:#ffb591;fill-opacity:1;stroke:none"
       id="rect5775-0"
       width="136.04305"
       height="30.228815"
       x="2118.7922"
       y="2099.0142" />
    <rect
       style="fill:#ffb591;fill-opacity:1;stroke:none"
       id="rect5775-0-0"
       width="136.04305"
       height="30.228815"
       x="1982.0409"
       y="2129.083" />
    <rect
       style="fill:#ffb591;fill-opacity:1;stroke:none"
       id="rect5775-0-9"
       width="121.90098"
       height="33.763992"
       x="-2220.3088"
       y="2288.8601"
       transform="matrix(2.8007296e-5,-1,1,1.8024681e-5,0,0)" />
    <g
       id="g5939"
       style="fill:#ffd0b9;fill-opacity:1">
      <rect
         transform="translate(1953.1888,1878.6106)"
         y="281.26801"
         x="29.25"
         height="61.25"
         width="306.25"
         id="rect5876"
         style="fill:#ffd0b9;fill-opacity:1;stroke:none" />
      <rect
         y="2129.7537"
         x="2117.5637"
         height="30"
         width="171.25"
         id="rect5876-6"
         style="fill:#ffd0b9;fill-opacity:1;stroke:none" />
      <rect
         y="2097.8787"
         x="2254.0637"
         height="30.5"
         width="35"
         id="rect5876-6-2"
         style="fill:#ffd0b9;fill-opacity:1;stroke:none" />
      <rect
         y="2067.3787"
         x="2288.4387"
         height="31"
         width="34.5"
         id="rect5876-6-2-3"
         style="fill:#ffd0b9;fill-opacity:1;stroke:none" />
      <rect
         y="2036.8787"
         x="2322.9387"
         height="30.5"
         width="33.25"
         id="rect5876-6-2-6"
         style="fill:#ffd0b9;fill-opacity:1;stroke:none" />
    </g>
    <rect
       style="fill:#ffb591;fill-opacity:1;stroke:none"
       id="rect5775-0-3-5"
       width="67.891235"
       height="30.228815"
       x="2254.8682"
       y="2036.8892" />
    <g
       id="g5326"
       style="fill:#ff4141;fill-opacity:1">
      <rect
         y="2067.3787"
         x="1982.0638"
         height="31.125"
         width="136.125"
         id="rect5472"
         style="fill:#ff4141;fill-opacity:1;stroke:none" />
      <rect
         inkscape:transform-center-y="4.375"
         inkscape:transform-center-x="10.027548"
         y="2036.6912"
         x="2084.3762"
         height="31.125"
         width="136.5"
         id="rect5472-7"
         style="fill:#ff4141;fill-opacity:1;stroke:none" />
      <rect
         y="2005.8162"
         x="2152.7512"
         height="31.125"
         width="102.125"
         id="rect5472-9"
         style="fill:#ff4141;fill-opacity:1;stroke:none" />
      <rect
         y="1975.0662"
         x="2220.6262"
         height="31.125"
         width="102.125"
         id="rect5472-0"
         style="fill:#ff4141;fill-opacity:1;stroke:none" />
      <rect
         y="1944.6104"
         x="2289.5913"
         height="31.125"
         width="203.6537"
         id="rect5472-6"
         style="fill:#ff4141;fill-opacity:1;stroke:none" />
      <rect
         y="1975.1927"
         x="2459.2971"
         height="31.125"
         width="102.0071"
         id="rect5472-2"
         style="fill:#ff4141;fill-opacity:1;stroke:none" />
      <rect
         y="2036.7111"
         x="2425.0022"
         height="31.125"
         width="170.2429"
         id="rect5472-71"
         style="fill:#ff4141;fill-opacity:1;stroke:none" />
      <rect
         y="2005.9518"
         x="2492.8845"
         height="31.125"
         width="68.242752"
         id="rect5472-75"
         style="fill:#ff4141;fill-opacity:1;stroke:none" />
      <rect
         y="2128.8162"
         x="2356.8762"
         height="61.875"
         width="307.375"
         id="rect5472-1"
         style="fill:#ff4141;fill-opacity:1;stroke:none" />
      <rect
         y="2098.3162"
         x="2459.3762"
         height="31.125"
         width="135.875"
         id="rect5472-79"
         style="fill:#ff4141;fill-opacity:1;stroke:none" />
      <rect
         y="2067.3162"
         x="2390.8762"
         height="31.125"
         width="203.875"
         id="rect5472-77"
         style="fill:#ff4141;fill-opacity:1;stroke:none" />
      <rect
         y="2098.0662"
         x="2357.1262"
         height="31.125"
         width="67.875"
         id="rect5472-27"
         style="fill:#ff4141;fill-opacity:1;stroke:none" />
      <rect
         y="2190.3162"
         x="2356.6262"
         height="31.125"
         width="68.625"
         id="rect5472-72"
         style="fill:#ff4141;fill-opacity:1;stroke:none" />
    </g>
    <rect
       style="fill:#ffb591;fill-opacity:1;stroke:none"
       id="rect5775-0-3-57"
       width="33.141239"
       height="30.228815"
       x="2323.1182"
       y="2068.0142" />
    <rect
       style="fill:#ffb591;fill-opacity:1;stroke:none"
       id="rect5775-0-3-6"
       width="33.141239"
       height="30.228815"
       x="2356.8682"
       y="2037.2642" />
    <g
       id="g6117">
      <rect
         y="2190.5129"
         x="2425.5361"
         height="30.759171"
         width="237.58784"
         id="rect5605"
         style="fill:#ff6969;fill-opacity:1;stroke:none" />
      <rect
         y="1975.499"
         x="2322.8948"
         height="30.759171"
         width="136.58784"
         id="rect5605-7"
         style="fill:#ff6969;fill-opacity:1;stroke:none" />
      <rect
         transform="matrix(0.00242173,-0.99999707,0.99999872,0.00160232,0,0)"
         y="2328.2966"
         x="-2216.1501"
         height="33.733139"
         width="121.84448"
         id="rect5605-7-1"
         style="fill:#ff6969;fill-opacity:1;stroke:none" />
      <rect
         y="2098.499"
         x="1982.3949"
         height="30.759171"
         width="136.58784"
         id="rect5605-7-7"
         style="fill:#ff6969;fill-opacity:1;stroke:none" />
      <rect
         y="2067.499"
         x="2118.3948"
         height="30.759171"
         width="136.58784"
         id="rect5605-7-10"
         style="fill:#ff6969;fill-opacity:1;stroke:none" />
      <rect
         transform="matrix(0.99996212,-0.00870419,0.01784021,0.99984085,0,0)"
         y="2026.3492"
         x="2218.4414"
         height="30.612396"
         width="67.591446"
         id="rect5605-7-1-7"
         style="fill:#ff6969;fill-opacity:1;stroke:none" />
      <rect
         transform="matrix(0.00965317,-0.99995341,0.99999992,4.0196324e-4,0,0)"
         y="2377.9583"
         x="-2097.5156"
         height="33.237438"
         width="30.118452"
         id="rect5605-7-1-7-5-4"
         style="fill:#ff6969;fill-opacity:1;stroke:none" />
      <rect
         transform="matrix(0.00965317,-0.99995341,0.99999992,4.0196324e-4,0,0)"
         y="2411.4988"
         x="-2066.5574"
         height="33.237438"
         width="30.118452"
         id="rect5605-7-1-7-5-6"
         style="fill:#ff6969;fill-opacity:1;stroke:none" />
      <rect
         transform="matrix(0.0195833,-0.99980823,0.99999998,1.9811048e-4,0,0)"
         y="2464.9326"
         x="-2036.5826"
         height="67.438271"
         width="30.122826"
         id="rect5605-7-1-7-5-0"
         style="fill:#ff6969;fill-opacity:1;stroke:none" />
      <rect
         transform="matrix(0.99985128,-0.01724572,0.00900431,0.99995946,0,0)"
         y="2075.1873"
         x="2202.5134"
         height="30.608765"
         width="34.114479"
         id="rect5605-7-1-7-8"
         style="fill:#ff6969;fill-opacity:1;stroke:none" />
    </g>
    <rect
       style="fill:#ffb591;fill-opacity:1;stroke:none"
       id="rect5775-0-3"
       width="33.141239"
       height="30.228815"
       x="2255.5662"
       y="2067.9182" />
    <path
       style="fill:none;stroke:#000000;stroke-width:2;stroke-linecap:butt;stroke-linejoin:miter;stroke-miterlimit:4;stroke-opacity:1;stroke-dasharray:none"
       d="m 1982.032,2221.3294 681.662,0 m -681.662,-30.7516 681.662,0 m -681.662,-30.7516 681.662,0 m -681.662,-30.7516 681.662,0 m -681.662,-30.7516 681.662,0 m -681.662,-30.7516 681.662,0 m -681.662,-30.7516 681.662,0 m -681.662,-30.7516 681.662,0 m -681.662,-30.7516 681.662,0 m -681.662,-30.7516 681.662,0 m -681.662,-30.7516 681.662,0 m -681.662,307.516 0,-307.516 m 34.0831,307.516 0,-307.516 m 34.0831,307.516 0,-307.516 m 34.0831,307.516 0,-307.516 m 34.0831,307.516 0,-307.516 m 34.0831,307.516 0,-307.516 m 34.0831,307.516 0,-307.516 m 34.0831,307.516 0,-307.516 m 34.0831,307.516 0,-307.516 m 34.0831,307.516 0,-307.516 m 34.0831,307.516 0,-307.516 m 34.0831,307.516 0,-307.516 m 34.0831,307.516 0,-307.516 m 34.0831,307.516 0,-307.516 m 34.0831,307.516 0,-307.516 m 34.0831,307.516 0,-307.516 m 34.0831,307.516 0,-307.516 m 34.0831,307.516 0,-307.516 m 34.0831,307.516 0,-307.516 m 34.0831,307.516 0,-307.516 m 34.0831,307.516 0,-307.516"
       id="path5095"
       inkscape:connector-curvature="0"
       inkscape:path-effect="#path-effect5097"
       inkscape:original-d="m 2016.1151,2221.3294 -34.0831,0 0,-30.7516"
       sodipodi:nodetypes="ccc" />
    <g
       id="g3811">
      <g
         transform="matrix(0.2543672,0,0,0.24725336,2211.2798,1621.3056)"
         id="g5387"
         style="stroke:#003dc6;stroke-width:19.93739128;stroke-miterlimit:4;stroke-opacity:1;stroke-dasharray:none">
        <path
           style="fill:none;stroke:#003dc6;stroke-width:19.93739128;stroke-linecap:butt;stroke-linejoin:miter;stroke-miterlimit:4;stroke-opacity:1;stroke-dasharray:none"
           d="m -905.71429,1855.2193 114.2857,5.7143 222.8572,-22.8571 220,-54.2857 185.7142,-68.5715 157.1428987,-88.5714 191.4286013,-105.7143 145.7143,-74.2857 135.7142,-46.4286 221.4286,-32.8571 165.00002,2.8571 135,35 72.85717,37.8572 83.5714,46.4286 113.5714,74.2857 62.1429,72.8571 36.4285,49.2857 25,52.8572 1.4286,10.7143 25.7143,5 -4.3158,49.1009 -4.2556,17.3276 16.4285,42.1429 0.7143,60 4.2857,51.4286 3.5715,33.5714 -27.8572,40.7143 -10,37.1428 -0.7143,34.2857 -1.0404,10.0147 1.0102,21.2132 11.1117,30.3046 -16.0815,40.2533 25,-27.1429 37.1429,6.7857 50.3571,-17.1428 65.7143,-42.1429 72.7822,16.1523 62.9095,-4.2273 83.0699,15.9"
           id="path4534"
           inkscape:connector-curvature="0"
           sodipodi:nodetypes="cccccccccccccccccccccccccccccccccccccccc" />
      </g>
      <path
         sodipodi:nodetypes="cccccccccccccccccccccccccccccccccccccccccccc"
         inkscape:connector-curvature="0"
         id="path5044"
         d="m 2422.7934,2085.0727 11.3058,-5.9943 24.6671,-12.9877 17.4726,-6.4939 26.7228,1.2488 20.299,3.4967 20.299,16.7342 4.1112,15.7351 -11.3058,12.4882 -25.9519,2.4976 -13.1044,3.4967 -16.4448,7.9924 -16.7017,9.9906 -7.4516,10.2403 -6.4237,19.2318 -8.7363,14.2365 -14.3892,5.4948 -10.7919,-1.4986 -6.4237,5.2451 -12.3336,1.2488 -10.7919,1.2488 -7.9654,-7.4929 -1.2848,-10.7398 -7.4515,-1.2489 -5.139,-13.737 -0.5139,-6.7436 8.4793,1.7484 10.535,-0.9991 8.2224,5.4948 9.5071,9.2413 4.6251,3.9962 -5.139,7.4929 -6.4237,4.9953 16.4447,-8.492 1.2848,-8.7417 -7.7085,-12.9877 -12.8475,-15.7352 1.0278,-13.9867 23.1255,-19.2318 -25.438,10.7398 4.216,-10.2938 9.6593,-4.692 10.7918,-9.7408 z"
         style="fill:none;stroke:#003dc6;stroke-width:5;stroke-linecap:butt;stroke-linejoin:miter;stroke-miterlimit:4;stroke-opacity:1;stroke-dasharray:none" />
      <path
         sodipodi:nodetypes="ccccccccccccccccccccccccccc"
         inkscape:connector-curvature="0"
         id="path5048"
         d="m 2496.5379,2119.2903 15.674,-0.4995 4.882,11.2393 -1.2847,8.492 13.1044,-4.7455 14.9031,-0.2498 7.7085,9.2413 3.8542,11.4891 -0.2569,11.4892 -5.9099,9.9905 -14.9031,1.9981 -7.1946,-1.4986 -5.1389,-3.4967 -8.9933,1.4986 -10.7919,1.4986 -6.1668,6.9934 -12.0766,1.4985 -9.7641,-7.7426 -4.1112,4.7455 -12.093,4.8721 -13.8589,-1.3754 5.139,-11.7389 5.9098,-14.9858 3.0834,-12.2384 6.1668,-7.9925 8.4794,-5.4948 z"
         style="fill:none;stroke:#003dc6;stroke-width:5;stroke-linecap:butt;stroke-linejoin:miter;stroke-miterlimit:4;stroke-opacity:1;stroke-dasharray:none" />
    </g>
    <path
       style="fill:none;stroke:#000000;stroke-width:2;stroke-linecap:butt;stroke-linejoin:miter;stroke-miterlimit:4;stroke-opacity:1;stroke-dasharray:none"
       d="m 1981.9839,1912.8713 0,308.2308 681.795,0.07 -0.1276,-308.2895"
       id="path5093"
       inkscape:connector-curvature="0"
       sodipodi:nodetypes="cccc" />
  </g>
</svg>
