<?xml version="1.0" encoding="UTF-8" standalone="no"?>
<!-- Created with Inkscape (http://www.inkscape.org/) -->

<svg
   xmlns:dc="http://purl.org/dc/elements/1.1/"
   xmlns:cc="http://creativecommons.org/ns#"
   xmlns:rdf="http://www.w3.org/1999/02/22-rdf-syntax-ns#"
   xmlns:svg="http://www.w3.org/2000/svg"
   xmlns="http://www.w3.org/2000/svg"
   xmlns:sodipodi="http://sodipodi.sourceforge.net/DTD/sodipodi-0.dtd"
   xmlns:inkscape="http://www.inkscape.org/namespaces/inkscape"
   width="216.37454mm"
   height="155.28673mm"
   viewBox="0 0 766.68145 550.22856"
   id="svg2"
   version="1.1"
   inkscape:version="0.91 r"
   sodipodi:docname="dragon_frame.svg">
  <defs
     id="defs4">
    <marker
       inkscape:isstock="true"
       style="overflow:visible;"
       id="marker4502"
       refX="0.0"
       refY="0.0"
       orient="auto"
       inkscape:stockid="Arrow1Mend">
      <path
         transform="scale(0.4) rotate(180) translate(10,0)"
         style="fill-rule:evenodd;stroke:#000000;stroke-width:1pt;stroke-opacity:1;fill:#000000;fill-opacity:1"
         d="M 0.0,0.0 L 5.0,-5.0 L -12.5,0.0 L 5.0,5.0 L 0.0,0.0 z "
         id="path4504" />
    </marker>
    <marker
       inkscape:stockid="Arrow1Lend"
       orient="auto"
       refY="0.0"
       refX="0.0"
       id="marker4462"
       style="overflow:visible;"
       inkscape:isstock="true">
      <path
         id="path4464"
         d="M 0.0,0.0 L 5.0,-5.0 L -12.5,0.0 L 5.0,5.0 L 0.0,0.0 z "
         style="fill-rule:evenodd;stroke:#000000;stroke-width:1pt;stroke-opacity:1;fill:#000000;fill-opacity:1"
         transform="scale(0.8) rotate(180) translate(12.5,0)" />
    </marker>
    <marker
       inkscape:stockid="Arrow1Lend"
       orient="auto"
       refY="0.0"
       refX="0.0"
       id="Arrow1Lend"
       style="overflow:visible;"
       inkscape:isstock="true">
      <path
         id="path4163"
         d="M 0.0,0.0 L 5.0,-5.0 L -12.5,0.0 L 5.0,5.0 L 0.0,0.0 z "
         style="fill-rule:evenodd;stroke:#000000;stroke-width:1pt;stroke-opacity:1;fill:#000000;fill-opacity:1"
         transform="scale(0.8) rotate(180) translate(12.5,0)" />
    </marker>
  </defs>
  <sodipodi:namedview
     id="base"
     pagecolor="#ffffff"
     bordercolor="#666666"
     borderopacity="1.0"
     inkscape:pageopacity="0.0"
     inkscape:pageshadow="2"
     inkscape:zoom="0.70710678"
     inkscape:cx="13.873387"
     inkscape:cy="137.26993"
     inkscape:document-units="px"
     inkscape:current-layer="layer1"
     showgrid="false"
     fit-margin-top="5"
     fit-margin-left="5"
     fit-margin-right="5"
     fit-margin-bottom="5"
     inkscape:window-width="1920"
     inkscape:window-height="984"
     inkscape:window-x="0"
     inkscape:window-y="27"
     inkscape:window-maximized="1" />
  <metadata
     id="metadata7">
    <rdf:RDF>
      <cc:Work
         rdf:about="">
        <dc:format>image/svg+xml</dc:format>
        <dc:type
           rdf:resource="http://purl.org/dc/dcmitype/StillImage" />
        <dc:title />
      </cc:Work>
    </rdf:RDF>
  </metadata>
  <g
     inkscape:label="Calque 1"
     inkscape:groupmode="layer"
     id="layer1"
     transform="translate(14.84165,-236.49742)">
    <path
       style="fill:none;fill-rule:evenodd;stroke:#000000;stroke-width:4;stroke-linecap:butt;stroke-linejoin:miter;stroke-opacity:1;stroke-miterlimit:4;stroke-dasharray:none"
       d="m 287.13586,751.33675 37.12311,-0.50508 1.76776,-14.39467 -6.31345,-13.8896 -16.92005,-8.5863 -3.53554,-9.59645 0,-9.09137 -1.26269,-20.70813 -2.52538,-22.47589 -3.78807,-16.92006 -5.05076,-13.63706 -7.07107,-13.88959 -5.80838,-11.61676 -9.09137,-16.41498 -10.85914,-19.69797 -8.08122,-17.42513 -2.52538,-6.56599 -1.51523,-10.60661 6.81853,-6.31345 6.81853,-0.50508 7.57614,2.02031 6.31345,3.78807 7.57615,4.79823 5.80837,6.31345 5.05077,6.56599 3.78807,6.06092 7.32361,14.39467 9.09137,19.44544 6.56599,17.17259 6.31345,15.65736 6.81853,15.90991 8.5863,19.95051 10.10153,19.1929 10.35406,20.70812 10.85914,20.45559 6.06091,11.11168 2.52539,10.10153 1.01015,9.84898 6.06091,12.12184 18.43529,10.35406 29.29442,2.27284 15.65737,1.26269 24.74873,-0.25254 38.13326,0.50508 39.14341,0 18.43529,-1.51523 13.88959,-0.75761 20.45559,-8.08122 15.90991,-7.82868 15.15228,-1.01016 9.09138,2.77792 13.88959,-0.25254 7.82869,-6.56599 -13.63706,-37.1231 0.75761,-10.35407 3.78807,-14.14213 2.27285,-9.59645 -0.75762,-18.43529 -1.01015,-16.66751 -4.04061,-22.98097 -6.81853,-23.23351 -9.84899,-21.97082 -12.37437,-21.71828 -14.14213,-17.67767 -19.44544,-19.1929 -22.22335,-20.20305 -12.87945,-12.12183 -4.54569,-5.55584 -6.31345,-8.58629 0.25254,-7.07107 3.53553,-1.26269 1.51523,-1.26269 5.05076,0.50507 6.566,4.54569 4.29314,0.50508 5.05077,2.27284 10.10152,0.50507 19.44544,0.75762 22.98097,0.75761 20.20305,0.50508 18.43528,0 13.13199,1.26269 10.6066,1.51523 11.86929,0 9.34391,-4.79823 6.81853,-5.3033 4.79823,-5.05076 2.52538,-8.33376 -2.27284,-7.82868 -3.78808,-7.07107 -6.56599,-7.3236 -2.0203,-5.3033 5.3033,-5.05077 16.66751,-7.57614 7.82869,-6.06092 0,-4.54568 -7.07107,-2.52538 -15.9099,0.50507 -13.63706,3.03046 -13.13199,5.55584 -9.09137,4.79822 -10.6066,5.80838 -8.83884,3.03046 -10.6066,1.51523 -6.56599,0.50507 -8.5863,-3.53553 -9.59644,5.55584 -20.70813,-0.50508 -10.6066,-2.52538 -3.53554,0.25254 -13.63706,-6.56599 -0.25254,-6.06092 11.11168,-0.25254 18.43529,-1.01015 14.39467,-0.25254 8.83884,-1.01015 9.09137,-3.283 8.33376,-5.05076 16.41498,4.29315 14.14213,-15.40483 18.18275,-14.64721 10.10152,-11.11168 3.283,-16.16244 -1.51523,-0.25253 -6.06092,-11.11168 -2.52538,-0.50508 -12.6269,-7.57614 -2.52539,0.25253 -22.72843,-6.31345 -11.61675,-0.25254 -7.32361,4.29315 -6.06091,6.56599 -5.05077,6.56599 -4.54568,4.54569 -4.79823,1.51523 -6.56599,-1.76777 -7.3236,-9.09137 -13.63706,-6.81853 -19.1929,-2.27284 -13.8896,-2.02031 -15.65736,-4.29315 -14.39468,-4.04061 -3.78807,0 -23.48605,-24.4962 -13.38452,-19.69797 -13.13198,-8.08122 -5.55584,5.55584 7.82868,22.72843 1.26269,3.03046 -2.77792,6.31345 -1.01015,1.76777 -13.8896,-0.50508 -32.07234,-8.08122 -28.53681,-8.83883 -25.75889,-7.07107 -11.36422,1.26269 0,2.52538 1.51523,5.3033 6.81853,5.55584 11.36422,8.33376 12.87944,7.32361 12.37437,6.31345 13.38452,8.08122 16.16244,11.36422 -12.37436,5.55583 -17.93021,4.29315 -9.34391,1.51523 2.52538,10.10153 5.3033,9.59645 2.77792,4.54568 -20.70813,17.67767 19.1929,21.71828 -11.61675,22.98097 12.6269,8.08122 7.57615,1.76777 4.54568,8.83883 -0.75761,22.22336 9.34391,21.97082 14.89975,27.52666 15.65736,23.48604 15.90991,19.95052 15.9099,21.46574 3.03046,12.37437 0.50507,7.07106 -3.53553,5.80838 -3.78807,2.52538 -8.33376,-1.26269 -10.6066,-8.83883 -11.86929,-17.1726 -18.68783,-42.67894 -22.47589,-45.20433 -24.24366,-42.17387 -26.26397,-29.54696 -19.69797,-14.39467 -24.24366,-13.38452 -18.94036,-6.06092 -27.02159,-4.79822 -37.62818,-1.51523 -33.33503,5.3033 -26.01143,10.35406 -19.69797,13.38452 -19.44544,19.69798 -10.35406,15.40482 -9.59645,15.90991 -4.79823,4.79822 -3.03046,0 -9.596445,-13.63706 -4.798224,-22.22335 -13.384522,1.26269 -20.203051,-13.8896 -16.667517,12.62691 -25.001275,-4.04061 -0.757615,14.14213 2.020306,6.81853 -15.9099031,20.45559 13.3845211,13.8896 0.757615,17.9302 22.223356,3.78808 9.343911,10.35406 14.647212,0.50508 3.535533,1.51523 2.272844,4.29314 0,9.84899 -7.323606,15.65737 -8.333759,19.69797 -5.050762,18.18275 -3.030458,19.44543 -1.010153,24.4962 2.525382,28.53681 5.808377,20.45559 10.85914,23.99112 11.364216,23.48605 3.535534,11.11168 -0.252538,11.36421 4.293148,10.35407 26.011433,9.09137 33.33503,1.51523 28.03173,1.76777 44.44671,1.01015 27.02158,-0.50508 18.18275,-5.3033 13.13198,-3.53553 7.32361,-3.53554 z"
       id="path3349"
       inkscape:connector-curvature="0" />
    <path
       style="fill:none;fill-rule:evenodd;stroke:#000000;stroke-width:4;stroke-linecap:butt;stroke-linejoin:miter;stroke-opacity:1;stroke-miterlimit:4;stroke-dasharray:none"
       d="m 125.83666,583.74294 -3.78982,2.57708 -1.36434,11.97585 0.45478,18.49435 0.15159,7.57965 1.36434,8.48921 1.36434,6.06372 3.63823,5.45735 3.63823,5.76053 5.15417,4.09301 8.03442,8.18602 10.76311,3.63824 13.18859,1.21274 3.18345,-5.00257 -1.81911,-8.48921 -6.5185,-16.97841 -8.33762,-15.3109 -8.79239,-13.34018 -7.12487,-10.9147 z"
       id="path3415"
       inkscape:connector-curvature="0" />
    <circle
       style="opacity:1;fill:#1220ff;fill-opacity:1;stroke:none;stroke-width:4;stroke-linecap:round;stroke-linejoin:miter;stroke-miterlimit:4;stroke-dasharray:none;stroke-dashoffset:0;stroke-opacity:1"
       id="path4572"
       cx="205.36461"
       cy="675.8078"
       r="20.444765" />
    <circle
       style="opacity:1;fill:#1220ff;fill-opacity:1;stroke:none;stroke-width:4;stroke-linecap:round;stroke-linejoin:miter;stroke-miterlimit:4;stroke-dasharray:none;stroke-dashoffset:0;stroke-opacity:1"
       id="path4572-4"
       cx="250.02415"
       cy="459.5455"
       r="20.444765" />
    <circle
       style="opacity:1;fill:#1220ff;fill-opacity:1;stroke:none;stroke-width:4;stroke-linecap:round;stroke-linejoin:miter;stroke-miterlimit:4;stroke-dasharray:none;stroke-dashoffset:0;stroke-opacity:1"
       id="path4572-0"
       cx="507.63153"
       cy="640.9339"
       r="20.444765" />
    <circle
       style="opacity:1;fill:#1220ff;fill-opacity:1;stroke:none;stroke-width:4;stroke-linecap:round;stroke-linejoin:miter;stroke-miterlimit:4;stroke-dasharray:none;stroke-dashoffset:0;stroke-opacity:1"
       id="path4572-40"
       cx="533.59064"
       cy="392.76993"
       r="20.444765" />
  </g>
</svg>
