<?xml version="1.0" encoding="UTF-8" standalone="no"?>
<!-- Created with Inkscape (http://www.inkscape.org/) -->

<svg
   xmlns:dc="http://purl.org/dc/elements/1.1/"
   xmlns:cc="http://creativecommons.org/ns#"
   xmlns:rdf="http://www.w3.org/1999/02/22-rdf-syntax-ns#"
   xmlns:svg="http://www.w3.org/2000/svg"
   xmlns="http://www.w3.org/2000/svg"
   xmlns:sodipodi="http://sodipodi.sourceforge.net/DTD/sodipodi-0.dtd"
   xmlns:inkscape="http://www.inkscape.org/namespaces/inkscape"
   width="61.239891"
   height="70.71875"
   id="svg5398"
   version="1.1"
   inkscape:version="0.48.4 r9939"
   sodipodi:docname="remeshing_3.svg">
  <defs
     id="defs5400" />
  <sodipodi:namedview
     id="base"
     pagecolor="#ffffff"
     bordercolor="#666666"
     borderopacity="1.0"
     inkscape:pageopacity="1"
     inkscape:pageshadow="2"
     inkscape:zoom="5.6568543"
     inkscape:cx="34.188431"
     inkscape:cy="20.631812"
     inkscape:document-units="px"
     inkscape:current-layer="g3628"
     showgrid="false"
     fit-margin-top="0"
     fit-margin-left="0"
     fit-margin-right="0"
     fit-margin-bottom="0"
     inkscape:window-width="1680"
     inkscape:window-height="984"
     inkscape:window-x="0"
     inkscape:window-y="27"
     inkscape:window-maximized="1"
     showguides="true"
     inkscape:guide-bbox="true" />
  <metadata
     id="metadata5403">
    <rdf:RDF>
      <cc:Work
         rdf:about="">
        <dc:format>image/svg+xml</dc:format>
        <dc:type
           rdf:resource="http://purl.org/dc/dcmitype/StillImage" />
        <dc:title />
      </cc:Work>
    </rdf:RDF>
  </metadata>
  <g
     inkscape:label="Layer 1"
     inkscape:groupmode="layer"
     id="layer1"
     transform="translate(-480.85386,3)">
    <g
       id="g6905"
       style="stroke:#000000;stroke-opacity:1"
       transform="translate(54.026931,-0.01495144)">
      <g
         transform="translate(-17.24935,-1.6470971)"
         style="stroke:#000000;stroke-opacity:1"
         id="g6253">
        <path
           sodipodi:nodetypes="cc"
           style="fill:none;stroke:#000000;stroke-width:1px;stroke-linecap:butt;stroke-linejoin:miter;stroke-opacity:1"
           d="m 470.3331,33.502276 -25.52213,-0.0442"
           id="path6111"
           inkscape:connector-curvature="0" />
        <g
           style="stroke:#000000;stroke-opacity:1"
           id="g6239">
          <path
             sodipodi:nodetypes="ccccccc"
             inkscape:connector-curvature="0"
             id="path5561"
             d="m 485.6033,3.3008473 -40.81421,-0.074879 0.0365,60.0624867 21.39797,0.01605 23.06879,-21.794021 -30.55171,-13.083279 z"
             style="fill:none;stroke:#000000;stroke-width:1px;stroke-linecap:butt;stroke-linejoin:miter;stroke-opacity:1" />
          <path
             sodipodi:nodetypes="cc"
             inkscape:connector-curvature="0"
             id="path6115"
             d="m 474.97349,13.329777 0,-9.7911517"
             style="fill:none;stroke:#000000;stroke-width:1px;stroke-linecap:butt;stroke-linejoin:miter;stroke-opacity:1" />
          <g
             style="stroke:#000000;stroke-opacity:1"
             id="g6228">
            <path
               style="fill:none;stroke:#000000;stroke-width:1px;stroke-linecap:butt;stroke-linejoin:miter;stroke-opacity:1"
               d="m 459.07707,28.535711 -14.34821,5"
               id="path5366"
               inkscape:connector-curvature="0"
               sodipodi:nodetypes="cc" />
            <path
               style="fill:none;stroke:#000000;stroke-width:1px;stroke-linecap:butt;stroke-linejoin:miter;stroke-opacity:1"
               d="M 459.04136,28.73214 444.97216,3.8459789"
               id="path5364"
               inkscape:connector-curvature="0"
               sodipodi:nodetypes="cc" />
            <path
               style="fill:none;stroke:#000000;stroke-width:1px;stroke-linecap:butt;stroke-linejoin:miter;stroke-opacity:1"
               d="m 470.71547,59.191962 -25.80804,3.450892"
               id="path5376"
               inkscape:connector-curvature="0"
               sodipodi:nodetypes="cc" />
            <path
               style="fill:none;stroke:#000000;stroke-width:1px;stroke-linecap:butt;stroke-linejoin:miter;stroke-opacity:1"
               d="M 470.92975,58.683033 474.95253,35.34498"
               id="path5374"
               inkscape:connector-curvature="0"
               sodipodi:nodetypes="cc" />
            <path
               style="fill:none;stroke:#000000;stroke-width:1px;stroke-linecap:butt;stroke-linejoin:miter;stroke-opacity:1"
               d="M 474.76205,13.567679 444.67207,3.7425015"
               id="path5396"
               inkscape:connector-curvature="0"
               sodipodi:nodetypes="cc" />
            <path
               style="fill:none;stroke:#000000;stroke-width:1px;stroke-linecap:butt;stroke-linejoin:miter;stroke-opacity:1"
               d="M 470.53864,59.008976 444.76677,33.76744"
               id="path6107"
               inkscape:connector-curvature="0"
               sodipodi:nodetypes="cc" />
            <path
               sodipodi:nodetypes="cc"
               style="fill:none;stroke:#000000;stroke-width:1px;stroke-linecap:butt;stroke-linejoin:miter;stroke-opacity:1"
               d="m 474.9293,54.921665 0.0221,-19.563234"
               id="path6109"
               inkscape:connector-curvature="0" />
            <path
               style="fill:none;stroke:#000000;stroke-width:1px;stroke-linecap:butt;stroke-linejoin:miter;stroke-opacity:1"
               d="M 464.61939,23.323617 444.84803,3.7475719"
               id="path6113"
               inkscape:connector-curvature="0"
               sodipodi:nodetypes="cc" />
            <path
               sodipodi:nodetypes="cc"
               style="fill:none;stroke:#000000;stroke-width:1px;stroke-linecap:butt;stroke-linejoin:miter;stroke-opacity:1"
               d="m 474.77999,3.3120401 5.34624,5.3661165"
               id="path6117"
               inkscape:connector-curvature="0" />
          </g>
        </g>
      </g>
      <path
         inkscape:connector-curvature="0"
         id="path6295"
         d="M 468.97665,43.01995 457.52462,33.777624"
         style="fill:none;stroke:#000000;stroke-width:1px;stroke-linecap:butt;stroke-linejoin:miter;stroke-opacity:1"
         sodipodi:nodetypes="cc" />
    </g>
    <path
       style="fill:none;stroke:#d73c3c;stroke-width:1px;stroke-linecap:butt;stroke-linejoin:miter;stroke-opacity:1"
       d="m 526.86834,-2.5814795 -31.32452,29.3232235 30.517,13.078966 -29.06748,27.597811"
       id="path4695-1"
       inkscape:connector-curvature="0"
       sodipodi:nodetypes="cccc" />
    <g
       id="g3615">
      <path
         transform="translate(534.19973,-11.893528)"
         d="m -10.625,13.397322 a 1.1607143,1.1607143 0 1 1 -2.321428,0 1.1607143,1.1607143 0 1 1 2.321428,0 z"
         sodipodi:ry="1.1607143"
         sodipodi:rx="1.1607143"
         sodipodi:cy="13.397322"
         sodipodi:cx="-11.785714"
         id="path4776"
         style="fill:#d73c3c;fill-opacity:1;stroke:none"
         sodipodi:type="arc" />
      <path
         transform="translate(507.486,13.330298)"
         d="m -10.625,13.397322 a 1.1607143,1.1607143 0 1 1 -2.321428,0 1.1607143,1.1607143 0 1 1 2.321428,0 z"
         sodipodi:ry="1.1607143"
         sodipodi:rx="1.1607143"
         sodipodi:cy="13.397322"
         sodipodi:cx="-11.785714"
         id="path4776-6"
         style="fill:#d73c3c;fill-opacity:1;stroke:none"
         sodipodi:type="arc" />
      <path
         transform="translate(523.10549,-1.5947073)"
         d="m -10.625,13.397322 a 1.1607143,1.1607143 0 1 1 -2.321428,0 1.1607143,1.1607143 0 1 1 2.321428,0 z"
         sodipodi:ry="1.1607143"
         sodipodi:rx="1.1607143"
         sodipodi:cy="13.397322"
         sodipodi:cx="-11.785714"
         id="path4776-3"
         style="fill:#d73c3c;fill-opacity:1;stroke:none"
         sodipodi:type="arc" />
      <path
         transform="translate(528.50981,-6.6707211)"
         d="m -10.625,13.397322 a 1.1607143,1.1607143 0 1 1 -2.321428,0 1.1607143,1.1607143 0 1 1 2.321428,0 z"
         sodipodi:ry="1.1607143"
         sodipodi:rx="1.1607143"
         sodipodi:cy="13.397322"
         sodipodi:cx="-11.785714"
         id="path4776-8"
         style="fill:#d73c3c;fill-opacity:1;stroke:none"
         sodipodi:type="arc" />
      <path
         transform="translate(523.47167,20.477126)"
         d="m -10.625,13.397322 a 1.1607143,1.1607143 0 1 1 -2.321428,0 1.1607143,1.1607143 0 1 1 2.321428,0 z"
         sodipodi:ry="1.1607143"
         sodipodi:rx="1.1607143"
         sodipodi:cy="13.397322"
         sodipodi:cx="-11.785714"
         id="path4776-2"
         style="fill:#d73c3c;fill-opacity:1;stroke:none"
         sodipodi:type="arc" />
      <path
         transform="translate(534.54547,29.442233)"
         d="m -10.625,13.397322 a 1.1607143,1.1607143 0 1 1 -2.321428,0 1.1607143,1.1607143 0 1 1 2.321428,0 z"
         sodipodi:ry="1.1607143"
         sodipodi:rx="1.1607143"
         sodipodi:cy="13.397322"
         sodipodi:cx="-11.785714"
         id="path4776-5"
         style="fill:#d73c3c;fill-opacity:1;stroke:none"
         sodipodi:type="arc" />
      <path
         transform="translate(537.80321,26.323383)"
         d="m -10.625,13.397322 a 1.1607143,1.1607143 0 1 1 -2.321428,0 1.1607143,1.1607143 0 1 1 2.321428,0 z"
         sodipodi:ry="1.1607143"
         sodipodi:rx="1.1607143"
         sodipodi:cy="13.397322"
         sodipodi:cx="-11.785714"
         id="path4776-69"
         style="fill:#d73c3c;fill-opacity:1;stroke:none"
         sodipodi:type="arc" />
      <path
         transform="translate(523.49428,39.924086)"
         d="m -10.625,13.397322 a 1.1607143,1.1607143 0 1 1 -2.321428,0 1.1607143,1.1607143 0 1 1 2.321428,0 z"
         sodipodi:ry="1.1607143"
         sodipodi:rx="1.1607143"
         sodipodi:cy="13.397322"
         sodipodi:cx="-11.785714"
         id="path4776-24"
         style="fill:#d73c3c;fill-opacity:1;stroke:none"
         sodipodi:type="arc" />
      <path
         transform="translate(519.25925,43.874966)"
         d="m -10.625,13.397322 a 1.1607143,1.1607143 0 1 1 -2.321428,0 1.1607143,1.1607143 0 1 1 2.321428,0 z"
         sodipodi:ry="1.1607143"
         sodipodi:rx="1.1607143"
         sodipodi:cy="13.397322"
         sodipodi:cx="-11.785714"
         id="path4776-1"
         style="fill:#d73c3c;fill-opacity:1;stroke:none"
         sodipodi:type="arc" />
      <path
         transform="translate(514.93782,48.249966)"
         d="m -10.625,13.397322 a 1.1607143,1.1607143 0 1 1 -2.321428,0 1.1607143,1.1607143 0 1 1 2.321428,0 z"
         sodipodi:ry="1.1607143"
         sodipodi:rx="1.1607143"
         sodipodi:cy="13.397322"
         sodipodi:cx="-11.785714"
         id="path4776-11"
         style="fill:#d73c3c;fill-opacity:1;stroke:none"
         sodipodi:type="arc" />
      <path
         transform="translate(512.86507,7.8565394)"
         d="m -10.625,13.397322 a 1.1607143,1.1607143 0 1 1 -2.321428,0 1.1607143,1.1607143 0 1 1 2.321428,0 z"
         sodipodi:ry="1.1607143"
         sodipodi:rx="1.1607143"
         sodipodi:cy="13.397322"
         sodipodi:cx="-11.785714"
         id="path4776-8-5"
         style="fill:#d73c3c;fill-opacity:1;stroke:none"
         sodipodi:type="arc" />
    </g>
    <g
       id="g3628"
       style="stroke:#000000;stroke-opacity:1">
      <g
         id="g4430"
         style="stroke:#000000;stroke-opacity:1">
        <g
           id="g6809"
           style="stroke:#000000;stroke-opacity:1"
           transform="translate(-46,-0.140625)">
          <path
             inkscape:connector-curvature="0"
             id="path5362"
             d="M 565.07678,9.0021952 558.01904,31.330354"
             style="fill:none;stroke:#000000;stroke-width:1px;stroke-linecap:butt;stroke-linejoin:miter;stroke-opacity:1"
             sodipodi:nodetypes="cc" />
          <path
             inkscape:connector-curvature="0"
             id="path5360"
             d="M 572.98944,1.5075792 587.65743,31.374997"
             style="fill:none;stroke:#000000;stroke-width:1px;stroke-linecap:butt;stroke-linejoin:miter;stroke-opacity:1"
             sodipodi:nodetypes="cc" />
          <path
             sodipodi:nodetypes="cc"
             inkscape:connector-curvature="0"
             id="path6287"
             d="m 557.74559,30.738221 0.0312,-15.227876"
             style="fill:none;stroke:#000000;stroke-width:1px;stroke-linecap:butt;stroke-linejoin:miter;stroke-opacity:1" />
          <path
             sodipodi:nodetypes="cc"
             inkscape:connector-curvature="0"
             id="path6289"
             d="M 564.70617,8.8742072 587.1789,31.656304"
             style="fill:none;stroke:#000000;stroke-width:1px;stroke-linecap:butt;stroke-linejoin:miter;stroke-opacity:1" />
          <g
             id="g6798"
             style="stroke:#000000;stroke-opacity:1">
            <path
               style="fill:none;stroke:#000000;stroke-width:1px;stroke-linecap:butt;stroke-linejoin:miter;stroke-opacity:1"
               d="m 576.99672,39.142854 10.66071,-7.321428"
               id="path5368"
               inkscape:connector-curvature="0"
               sodipodi:nodetypes="cc" />
            <path
               sodipodi:nodetypes="cc"
               style="fill:none;stroke:#000000;stroke-width:1px;stroke-linecap:butt;stroke-linejoin:miter;stroke-opacity:1"
               d="M 587.2452,31.92147 559.634,31.91497"
               id="path6291"
               inkscape:connector-curvature="0" />
            <g
               id="g6790"
               style="stroke:#000000;stroke-opacity:1">
              <path
                 inkscape:connector-curvature="0"
                 id="path5370"
                 d="m 576.6485,39.267854 10.74107,21.75"
                 style="fill:none;stroke:#000000;stroke-width:1px;stroke-linecap:butt;stroke-linejoin:miter;stroke-opacity:1"
                 sodipodi:nodetypes="cc" />
              <path
                 sodipodi:nodetypes="cc"
                 inkscape:connector-curvature="0"
                 id="path6293"
                 d="m 570.82577,44.975755 16.83927,16.467422"
                 style="fill:none;stroke:#000000;stroke-width:1px;stroke-linecap:butt;stroke-linejoin:miter;stroke-opacity:1" />
              <g
                 id="g6785"
                 style="stroke:#000000;stroke-opacity:1">
                <path
                   style="fill:none;stroke:#000000;stroke-width:1px;stroke-linecap:butt;stroke-linejoin:miter;stroke-opacity:1"
                   d="m 557.90743,57.142854 29.57143,3.875"
                   id="path5372"
                   inkscape:connector-curvature="0"
                   sodipodi:nodetypes="cc" />
                <path
                   style="fill:none;stroke:#000000;stroke-width:1px;stroke-linecap:butt;stroke-linejoin:miter;stroke-opacity:1"
                   d="m 573.00997,1.5866024 14.56037,0.028712 0.021,60.0011456 -34.15621,-0.0062 23.48468,-22.446678 -30.54843,-12.871238 z"
                   id="path6071"
                   inkscape:connector-curvature="0"
                   sodipodi:nodetypes="ccccccc" />
                <path
                   sodipodi:nodetypes="cccc"
                   style="fill:none;stroke:#000000;stroke-width:1px;stroke-linecap:butt;stroke-linejoin:miter;stroke-opacity:1"
                   d="m 555.53378,59.490848 1.88637,1.827664 0.31943,-0.08146 -0.0183,-3.752221"
                   id="path6331"
                   inkscape:connector-curvature="0" />
              </g>
            </g>
          </g>
        </g>
        <path
           sodipodi:nodetypes="cc"
           style="fill:none;stroke:#000000;stroke-width:1px;stroke-linecap:butt;stroke-linejoin:miter;stroke-opacity:1"
           d="m 511.66903,30.885318 -8.56165,-7.499146"
           id="path7040"
           inkscape:connector-curvature="0" />
      </g>
    </g>
    <path
       style="fill:none;stroke:#d73c3c;stroke-width:1px;stroke-linecap:butt;stroke-linejoin:miter;stroke-opacity:1"
       d="M 531.07739,-2.4659424 500.41578,26.238563 530.88859,39.140752 501.06981,67.357281"
       id="path4695"
       inkscape:connector-curvature="0"
       sodipodi:nodetypes="cccc" />
    <g
       id="g3466">
      <path
         transform="translate(538.7988,-11.835461)"
         d="m -10.625,13.397322 a 1.1607143,1.1607143 0 1 1 -2.321428,0 1.1607143,1.1607143 0 1 1 2.321428,0 z"
         sodipodi:ry="1.1607143"
         sodipodi:rx="1.1607143"
         sodipodi:cy="13.397322"
         sodipodi:cx="-11.785714"
         id="path4776-4"
         style="fill:#d73c3c;fill-opacity:1;stroke:none"
         sodipodi:type="arc" />
      <path
         transform="translate(530.60244,-4.4660812)"
         d="m -10.625,13.397322 a 1.1607143,1.1607143 0 1 1 -2.321428,0 1.1607143,1.1607143 0 1 1 2.321428,0 z"
         sodipodi:ry="1.1607143"
         sodipodi:rx="1.1607143"
         sodipodi:cy="13.397322"
         sodipodi:cx="-11.785714"
         id="path4776-6-9"
         style="fill:#d73c3c;fill-opacity:1;stroke:none"
         sodipodi:type="arc" />
      <path
         transform="translate(515.06503,9.7328746)"
         d="m -10.625,13.397322 a 1.1607143,1.1607143 0 1 1 -2.321428,0 1.1607143,1.1607143 0 1 1 2.321428,0 z"
         sodipodi:ry="1.1607143"
         sodipodi:rx="1.1607143"
         sodipodi:cy="13.397322"
         sodipodi:cx="-11.785714"
         id="path4776-3-7"
         style="fill:#d73c3c;fill-opacity:1;stroke:none"
         sodipodi:type="arc" />
      <path
         transform="translate(512.24923,12.965365)"
         d="m -10.625,13.397322 a 1.1607143,1.1607143 0 1 1 -2.321428,0 1.1607143,1.1607143 0 1 1 2.321428,0 z"
         sodipodi:ry="1.1607143"
         sodipodi:rx="1.1607143"
         sodipodi:cy="13.397322"
         sodipodi:cx="-11.785714"
         id="path4776-8-2"
         style="fill:#d73c3c;fill-opacity:1;stroke:none"
         sodipodi:type="arc" />
      <path
         transform="translate(523.61012,17.516125)"
         d="m -10.625,13.397322 a 1.1607143,1.1607143 0 1 1 -2.321428,0 1.1607143,1.1607143 0 1 1 2.321428,0 z"
         sodipodi:ry="1.1607143"
         sodipodi:rx="1.1607143"
         sodipodi:cy="13.397322"
         sodipodi:cx="-11.785714"
         id="path4776-2-8"
         style="fill:#d73c3c;fill-opacity:1;stroke:none"
         sodipodi:type="arc" />
      <path
         transform="translate(542.68896,25.838465)"
         d="m -10.625,13.397322 a 1.1607143,1.1607143 0 1 1 -2.321428,0 1.1607143,1.1607143 0 1 1 2.321428,0 z"
         sodipodi:ry="1.1607143"
         sodipodi:rx="1.1607143"
         sodipodi:cy="13.397322"
         sodipodi:cx="-11.785714"
         id="path4776-5-1"
         style="fill:#d73c3c;fill-opacity:1;stroke:none"
         sodipodi:type="arc" />
      <path
         transform="translate(536.7007,31.387955)"
         d="m -10.625,13.397322 a 1.1607143,1.1607143 0 1 1 -2.321428,0 1.1607143,1.1607143 0 1 1 2.321428,0 z"
         sodipodi:ry="1.1607143"
         sodipodi:rx="1.1607143"
         sodipodi:cy="13.397322"
         sodipodi:cx="-11.785714"
         id="path4776-69-3"
         style="fill:#d73c3c;fill-opacity:1;stroke:none"
         sodipodi:type="arc" />
      <path
         transform="translate(523.70387,43.747095)"
         d="m -10.625,13.397322 a 1.1607143,1.1607143 0 1 1 -2.321428,0 1.1607143,1.1607143 0 1 1 2.321428,0 z"
         sodipodi:ry="1.1607143"
         sodipodi:rx="1.1607143"
         sodipodi:cy="13.397322"
         sodipodi:cx="-11.785714"
         id="path4776-24-9"
         style="fill:#d73c3c;fill-opacity:1;stroke:none"
         sodipodi:type="arc" />
      <path
         transform="translate(521.28134,45.791725)"
         d="m -10.625,13.397322 a 1.1607143,1.1607143 0 1 1 -2.321428,0 1.1607143,1.1607143 0 1 1 2.321428,0 z"
         sodipodi:ry="1.1607143"
         sodipodi:rx="1.1607143"
         sodipodi:cy="13.397322"
         sodipodi:cx="-11.785714"
         id="path4776-1-9"
         style="fill:#d73c3c;fill-opacity:1;stroke:none"
         sodipodi:type="arc" />
      <path
         transform="translate(518.92866,48.166725)"
         d="m -10.625,13.397322 a 1.1607143,1.1607143 0 1 1 -2.321428,0 1.1607143,1.1607143 0 1 1 2.321428,0 z"
         sodipodi:ry="1.1607143"
         sodipodi:rx="1.1607143"
         sodipodi:cy="13.397322"
         sodipodi:cx="-11.785714"
         id="path4776-11-7"
         style="fill:#d73c3c;fill-opacity:1;stroke:none"
         sodipodi:type="arc" />
      <path
         transform="translate(523.60714,2.2135582)"
         d="m -10.625,13.397322 a 1.1607143,1.1607143 0 1 1 -2.321428,0 1.1607143,1.1607143 0 1 1 2.321428,0 z"
         sodipodi:ry="1.1607143"
         sodipodi:rx="1.1607143"
         sodipodi:cy="13.397322"
         sodipodi:cx="-11.785714"
         id="path4776-8-5-7"
         style="fill:#d73c3c;fill-opacity:1;stroke:none"
         sodipodi:type="arc" />
    </g>
  </g>
</svg>
