<?xml version="1.0" encoding="UTF-8" standalone="no"?>
<!-- Created with Inkscape (http://www.inkscape.org/) -->

<svg
   xmlns:dc="http://purl.org/dc/elements/1.1/"
   xmlns:cc="http://creativecommons.org/ns#"
   xmlns:rdf="http://www.w3.org/1999/02/22-rdf-syntax-ns#"
   xmlns:svg="http://www.w3.org/2000/svg"
   xmlns="http://www.w3.org/2000/svg"
   xmlns:sodipodi="http://sodipodi.sourceforge.net/DTD/sodipodi-0.dtd"
   xmlns:inkscape="http://www.inkscape.org/namespaces/inkscape"
   width="61"
   height="61"
   id="svg2"
   version="1.1"
   inkscape:version="0.48.4 r9939"
   sodipodi:docname="buildSF_1.pdf">
  <defs
     id="defs4" />
  <sodipodi:namedview
     id="base"
     pagecolor="#ffffff"
     bordercolor="#666666"
     borderopacity="1.0"
     inkscape:pageopacity="1"
     inkscape:pageshadow="2"
     inkscape:zoom="5.6568543"
     inkscape:cx="47.912592"
     inkscape:cy="34.718136"
     inkscape:document-units="px"
     inkscape:current-layer="layer1"
     showgrid="false"
     fit-margin-top="0"
     fit-margin-left="0"
     fit-margin-right="0"
     fit-margin-bottom="0"
     inkscape:window-width="838"
     inkscape:window-height="983"
     inkscape:window-x="755"
     inkscape:window-y="27"
     inkscape:window-maximized="0"
     showguides="false"
     inkscape:snap-global="false"
     inkscape:showpageshadow="false"
     showborder="false">
    <inkscape:grid
       type="xygrid"
       id="grid3778"
       empspacing="5"
       visible="true"
       enabled="true"
       snapvisiblegridlinesonly="true"
       originx="0.5px"
       originy="0.5px" />
  </sodipodi:namedview>
  <metadata
     id="metadata7">
    <rdf:RDF>
      <cc:Work
         rdf:about="">
        <dc:format>image/svg+xml</dc:format>
        <dc:type
           rdf:resource="http://purl.org/dc/dcmitype/StillImage" />
        <dc:title></dc:title>
      </cc:Work>
    </rdf:RDF>
  </metadata>
  <g
     inkscape:label="Calque 1"
     inkscape:groupmode="layer"
     id="layer1"
     transform="translate(-329.31624,-326.55637)">
    <path
       style="fill:#00ac49;fill-opacity:1;stroke:#000000;stroke-width:1;stroke-linecap:butt;stroke-linejoin:miter;stroke-miterlimit:4;stroke-opacity:1;stroke-dasharray:none"
       d="m 372.89306,363.41703 16.92317,-6.22765 -2.2e-4,29.86699 -8.92496,0 -11.59271,0 0.74844,-18.78098 z"
       id="path4859-3"
       inkscape:connector-curvature="0"
       sodipodi:nodetypes="ccccccc" />
    <path
       style="fill:#ccbd00;fill-opacity:1;stroke:#000000;stroke-width:1px;stroke-linecap:butt;stroke-linejoin:miter;stroke-opacity:1"
       d="m 345.07953,363.65894 12.43572,2.1017 12.61107,2.1354 -0.84985,19.16033 -39.46023,0 0,-17.58535 z"
       id="path4859"
       inkscape:connector-curvature="0"
       sodipodi:nodetypes="ccccccc" />
    <path
       style="fill:#db0031;fill-opacity:1;stroke:#000000;stroke-width:1px;stroke-linecap:butt;stroke-linejoin:miter;stroke-opacity:1"
       d="m 345.49193,363.24505 -15.67569,5.73209 0,-41.92077 11.01073,0 20.05461,0 0.0979,17.21588 z"
       id="path4859-3-3-6"
       inkscape:connector-curvature="0"
       sodipodi:nodetypes="ccccccc" />
    <path
       style="fill:#009abb;fill-opacity:1;stroke:#000000;stroke-width:1px;stroke-linecap:butt;stroke-linejoin:miter;stroke-opacity:1"
       d="m 372.6784,363.66919 17.13784,-6.38416 0,-30.22866 -9.86162,0 -19.11456,0 0.31994,17.43107 z"
       id="path4859-3-3"
       inkscape:connector-curvature="0"
       sodipodi:nodetypes="ccccccc" />
    <path
       sodipodi:type="arc"
       style="fill:#0069d2;fill-opacity:1;stroke:none"
       id="path3314-7"
       sodipodi:cx="26.572927"
       sodipodi:cy="15.641617"
       sodipodi:rx="1.9726628"
       sodipodi:ry="1.9726628"
       d="m 28.54559,15.641617 a 1.9726628,1.9726628 0 1 1 -3.945325,0 1.9726628,1.9726628 0 1 1 3.945325,0 z"
       transform="translate(347.2092,333.77642)" />
    <path
       sodipodi:type="arc"
       style="fill:#0069d2;fill-opacity:1;stroke:none"
       id="path3314-6"
       sodipodi:cx="26.572927"
       sodipodi:cy="15.641617"
       sodipodi:rx="1.9726628"
       sodipodi:ry="1.9726628"
       d="m 28.54559,15.641617 a 1.9726628,1.9726628 0 1 1 -3.945325,0 1.9726628,1.9726628 0 1 1 3.945325,0 z"
       transform="translate(321.77675,332.15188)" />
    <path
       sodipodi:type="arc"
       style="fill:#0069d2;fill-opacity:1;stroke:none"
       id="path3314-4"
       sodipodi:cx="26.572927"
       sodipodi:cy="15.641617"
       sodipodi:rx="1.9726628"
       sodipodi:ry="1.9726628"
       d="m 28.54559,15.641617 a 1.9726628,1.9726628 0 1 1 -3.945325,0 1.9726628,1.9726628 0 1 1 3.945325,0 z"
       transform="translate(331.40799,356.19185)" />
    <path
       sodipodi:type="arc"
       style="fill:#0069d2;fill-opacity:1;stroke:none"
       id="path3314-1"
       sodipodi:cx="26.572927"
       sodipodi:cy="15.641617"
       sodipodi:rx="1.9726628"
       sodipodi:ry="1.9726628"
       d="m 28.54559,15.641617 a 1.9726628,1.9726628 0 1 1 -3.945325,0 1.9726628,1.9726628 0 1 1 3.945325,0 z"
       transform="translate(355.94116,357.62342)" />
    <path
       style="fill:#00b092;fill-opacity:1;stroke:#c10000;stroke-width:1.10000002;stroke-linecap:butt;stroke-linejoin:miter;stroke-miterlimit:4;stroke-opacity:1;stroke-dasharray:none"
       d="m 372.69496,363.74541 -2.25743,4.21958 -25.28599,-4.28818 15.85516,-19.41561 z"
       id="path3355"
       inkscape:connector-curvature="0"
       sodipodi:nodetypes="ccccc" />
    <path
       sodipodi:type="arc"
       style="fill:#0069d2;fill-opacity:1;stroke:none"
       id="path3314"
       sodipodi:cx="26.572927"
       sodipodi:cy="15.641617"
       sodipodi:rx="1.9726628"
       sodipodi:ry="1.9726628"
       d="m 28.54559,15.641617 a 1.9726628,1.9726628 0 1 1 -3.945325,0 1.9726628,1.9726628 0 1 1 3.945325,0 z"
       transform="translate(332.80046,342.31524)" />
  </g>
</svg>
