<?xml version="1.0" encoding="UTF-8" standalone="no"?>
<!-- Created with Inkscape (http://www.inkscape.org/) -->

<svg
   xmlns:dc="http://purl.org/dc/elements/1.1/"
   xmlns:cc="http://creativecommons.org/ns#"
   xmlns:rdf="http://www.w3.org/1999/02/22-rdf-syntax-ns#"
   xmlns:svg="http://www.w3.org/2000/svg"
   xmlns="http://www.w3.org/2000/svg"
   xmlns:sodipodi="http://sodipodi.sourceforge.net/DTD/sodipodi-0.dtd"
   xmlns:inkscape="http://www.inkscape.org/namespaces/inkscape"
   width="61.21875"
   height="70.71875"
   id="svg4697"
   version="1.1"
   inkscape:version="0.48.4 r9939"
   sodipodi:docname="remeshing_2.svg">
  <defs
     id="defs4699" />
  <sodipodi:namedview
     id="base"
     pagecolor="#ffffff"
     bordercolor="#666666"
     borderopacity="1.0"
     inkscape:pageopacity="1"
     inkscape:pageshadow="2"
     inkscape:zoom="15.839192"
     inkscape:cx="0.043500757"
     inkscape:cy="27.197506"
     inkscape:document-units="px"
     inkscape:current-layer="layer1"
     showgrid="false"
     fit-margin-top="0"
     fit-margin-left="0"
     fit-margin-right="0"
     fit-margin-bottom="0"
     inkscape:window-width="1680"
     inkscape:window-height="984"
     inkscape:window-x="0"
     inkscape:window-y="27"
     inkscape:window-maximized="1" />
  <metadata
     id="metadata4702">
    <rdf:RDF>
      <cc:Work
         rdf:about="">
        <dc:format>image/svg+xml</dc:format>
        <dc:type
           rdf:resource="http://purl.org/dc/dcmitype/StillImage" />
        <dc:title />
      </cc:Work>
    </rdf:RDF>
  </metadata>
  <g
     inkscape:label="Layer 1"
     inkscape:groupmode="layer"
     id="layer1"
     transform="translate(-272.30905,-251.28125)">
    <path
       style="fill:none;stroke:#000000;stroke-width:1px;stroke-linecap:butt;stroke-linejoin:miter;stroke-opacity:1"
       d="m 16.785714,29.915178 -16.160714,5"
       id="path5366"
       inkscape:connector-curvature="0"
       transform="translate(272.30905,251.28125)" />
    <path
       style="fill:none;stroke:#000000;stroke-width:1px;stroke-linecap:butt;stroke-linejoin:miter;stroke-opacity:1"
       d="M 16.25,29.736607 0.71475034,5.0103449"
       id="path5364"
       inkscape:connector-curvature="0"
       transform="translate(272.30905,251.28125)"
       sodipodi:nodetypes="cc" />
    <path
       style="fill:none;stroke:#000000;stroke-width:1px;stroke-linecap:butt;stroke-linejoin:miter;stroke-opacity:1"
       d="m 30.803572,57.772321 29.821428,6.25"
       id="path5372"
       inkscape:connector-curvature="0"
       transform="translate(272.30905,251.28125)" />
    <path
       style="fill:none;stroke:#000000;stroke-width:1px;stroke-linecap:butt;stroke-linejoin:miter;stroke-opacity:1"
       d="M 27.142857,61.165179 0.80357143,64.022321"
       id="path5376"
       inkscape:connector-curvature="0"
       transform="translate(272.30905,251.28125)" />
    <path
       style="fill:none;stroke:#000000;stroke-width:1px;stroke-linecap:butt;stroke-linejoin:miter;stroke-opacity:1"
       d="M 27.232143,60.71875 30.892857,34.647321"
       id="path5374"
       inkscape:connector-curvature="0"
       transform="translate(272.30905,251.28125)" />
    <path
       style="fill:none;stroke:#000000;stroke-width:1px;stroke-linecap:butt;stroke-linejoin:miter;stroke-opacity:1"
       d="M 36.875,11.34375 31.071429,34.647321"
       id="path5362"
       inkscape:connector-curvature="0"
       transform="translate(272.30905,251.28125)" />
    <path
       style="fill:none;stroke:#000000;stroke-width:1px;stroke-linecap:butt;stroke-linejoin:miter;stroke-opacity:1"
       d="m 47.857143,42.147321 12.678571,21.875"
       id="path5370"
       inkscape:connector-curvature="0"
       transform="translate(272.30905,251.28125)" />
    <g
       transform="translate(-331.31595,-229.32524)"
       id="g4647"
       style="stroke:#000000;stroke-opacity:1">
      <path
         sodipodi:nodetypes="ccccc"
         inkscape:connector-curvature="0"
         id="path3767"
         d="m 604.35878,485.21517 59.98219,0.004 0.008,59.99766 -59.99781,0.008 z"
         style="fill:none;stroke:#000000;stroke-width:1px;stroke-linecap:butt;stroke-linejoin:miter;stroke-opacity:1" />
      <path
         sodipodi:nodetypes="cc"
         inkscape:connector-curvature="0"
         id="path4537"
         d="m 634.51353,485.23518 0,60.28085"
         style="fill:none;stroke:#000000;stroke-width:1px;stroke-linecap:butt;stroke-linejoin:miter;stroke-opacity:1" />
      <path
         sodipodi:nodetypes="cc"
         inkscape:connector-curvature="0"
         id="path4537-8"
         d="m 664.02838,515.50914 -60.01568,0.0221"
         style="fill:none;stroke:#000000;stroke-width:1px;stroke-linecap:butt;stroke-linejoin:miter;stroke-opacity:1" />
      <path
         sodipodi:nodetypes="cc"
         inkscape:connector-curvature="0"
         id="path4537-1"
         d="m 604.40057,485.68327 59.9375,59.40585"
         style="fill:none;stroke:#000000;stroke-width:1px;stroke-linecap:butt;stroke-linejoin:miter;stroke-opacity:1" />
      <path
         sodipodi:nodetypes="cc"
         inkscape:connector-curvature="0"
         id="path4537-1-2"
         d="m 634.12978,485.02021 30.24556,30.61924"
         style="fill:none;stroke:#000000;stroke-width:1px;stroke-linecap:butt;stroke-linejoin:miter;stroke-opacity:1" />
      <path
         sodipodi:nodetypes="cc"
         inkscape:connector-curvature="0"
         id="path4537-1-2-6"
         d="m 604.27863,515.80183 30.33553,29.56173"
         style="fill:none;stroke:#000000;stroke-width:1px;stroke-linecap:butt;stroke-linejoin:miter;stroke-opacity:1" />
    </g>
    <path
       style="fill:none;stroke:#000000;stroke-width:1px;stroke-linecap:butt;stroke-linejoin:miter;stroke-opacity:1"
       d="M 48.392857,42.147321 60.803572,34.825893"
       id="path5368"
       inkscape:connector-curvature="0"
       transform="translate(272.30905,251.28125)" />
    <path
       style="fill:none;stroke:#000000;stroke-width:1px;stroke-linecap:butt;stroke-linejoin:miter;stroke-opacity:1"
       d="M 43.660714,4.3794641 60.803572,34.379464"
       id="path5360"
       inkscape:connector-curvature="0"
       transform="translate(272.30905,251.28125)" />
    <path
       sodipodi:type="arc"
       style="fill:#d73c3c;fill-opacity:1;stroke:none"
       id="path4776"
       sodipodi:cx="-11.785714"
       sodipodi:cy="13.397322"
       sodipodi:rx="1.1607143"
       sodipodi:ry="1.1607143"
       d="m -10.625,13.397322 c 0,0.641044 -0.519669,1.160714 -1.160714,1.160714 -0.641045,0 -1.160714,-0.51967 -1.160714,-1.160714 0,-0.641045 0.519669,-1.160715 1.160714,-1.160715 0.641045,0 1.160714,0.51967 1.160714,1.160715 z"
       transform="translate(327.6149,242.31615)" />
    <path
       sodipodi:type="arc"
       style="fill:#d73c3c;fill-opacity:1;stroke:none"
       id="path4776-6"
       sodipodi:cx="-11.785714"
       sodipodi:cy="13.397322"
       sodipodi:rx="1.1607143"
       sodipodi:ry="1.1607143"
       d="m -10.625,13.397322 c 0,0.641044 -0.519669,1.160714 -1.160714,1.160714 -0.641045,0 -1.160714,-0.51967 -1.160714,-1.160714 0,-0.641045 0.519669,-1.160715 1.160714,-1.160715 0.641045,0 1.160714,0.51967 1.160714,1.160715 z"
       transform="translate(320.96533,248.62487)" />
    <path
       sodipodi:type="arc"
       style="fill:#d73c3c;fill-opacity:1;stroke:none"
       id="path4776-3"
       sodipodi:cx="-11.785714"
       sodipodi:cy="13.397322"
       sodipodi:rx="1.1607143"
       sodipodi:ry="1.1607143"
       d="m -10.625,13.397322 c 0,0.641044 -0.519669,1.160714 -1.160714,1.160714 -0.641045,0 -1.160714,-0.51967 -1.160714,-1.160714 0,-0.641045 0.519669,-1.160715 1.160714,-1.160715 0.641045,0 1.160714,0.51967 1.160714,1.160715 z"
       transform="translate(305.56051,263.39835)" />
    <path
       sodipodi:type="arc"
       style="fill:#d73c3c;fill-opacity:1;stroke:none"
       id="path4776-8"
       sodipodi:cx="-11.785714"
       sodipodi:cy="13.397322"
       sodipodi:rx="1.1607143"
       sodipodi:ry="1.1607143"
       d="m -10.625,13.397322 c 0,0.641044 -0.519669,1.160714 -1.160714,1.160714 -0.641045,0 -1.160714,-0.51967 -1.160714,-1.160714 0,-0.641045 0.519669,-1.160715 1.160714,-1.160715 0.641045,0 1.160714,0.51967 1.160714,1.160715 z"
       transform="translate(300.88855,267.6915)" />
    <path
       sodipodi:type="arc"
       style="fill:#d73c3c;fill-opacity:1;stroke:none"
       id="path4776-2"
       sodipodi:cx="-11.785714"
       sodipodi:cy="13.397322"
       sodipodi:rx="1.1607143"
       sodipodi:ry="1.1607143"
       d="m -10.625,13.397322 c 0,0.641044 -0.519669,1.160714 -1.160714,1.160714 -0.641045,0 -1.160714,-0.51967 -1.160714,-1.160714 0,-0.641045 0.519669,-1.160715 1.160714,-1.160715 0.641045,0 1.160714,0.51967 1.160714,1.160715 z"
       transform="translate(315.03069,272.74226)" />
    <path
       sodipodi:type="arc"
       style="fill:#d73c3c;fill-opacity:1;stroke:none"
       id="path4776-5"
       sodipodi:cx="-11.785714"
       sodipodi:cy="13.397322"
       sodipodi:rx="1.1607143"
       sodipodi:ry="1.1607143"
       d="m -10.625,13.397322 c 0,0.641044 -0.519669,1.160714 -1.160714,1.160714 -0.641045,0 -1.160714,-0.51967 -1.160714,-1.160714 0,-0.641045 0.519669,-1.160715 1.160714,-1.160715 0.641045,0 1.160714,0.51967 1.160714,1.160715 z"
       transform="translate(332.20328,279.9396)" />
    <path
       sodipodi:type="arc"
       style="fill:#d73c3c;fill-opacity:1;stroke:none"
       id="path4776-69"
       sodipodi:cx="-11.785714"
       sodipodi:cy="13.397322"
       sodipodi:rx="1.1607143"
       sodipodi:ry="1.1607143"
       d="m -10.625,13.397322 c 0,0.641044 -0.519669,1.160714 -1.160714,1.160714 -0.641045,0 -1.160714,-0.51967 -1.160714,-1.160714 0,-0.641045 0.519669,-1.160715 1.160714,-1.160715 0.641045,0 1.160714,0.51967 1.160714,1.160715 z"
       transform="translate(327.15252,284.86409)" />
    <path
       sodipodi:type="arc"
       style="fill:#d73c3c;fill-opacity:1;stroke:none"
       id="path4776-24"
       sodipodi:cx="-11.785714"
       sodipodi:cy="13.397322"
       sodipodi:rx="1.1607143"
       sodipodi:ry="1.1607143"
       d="m -10.625,13.397322 c 0,0.641044 -0.519669,1.160714 -1.160714,1.160714 -0.641045,0 -1.160714,-0.51967 -1.160714,-1.160714 0,-0.641045 0.519669,-1.160715 1.160714,-1.160715 0.641045,0 1.160714,0.51967 1.160714,1.160715 z"
       transform="translate(315.03069,295.72323)" />
    <path
       sodipodi:type="arc"
       style="fill:#d73c3c;fill-opacity:1;stroke:none"
       id="path4776-1"
       sodipodi:cx="-11.785714"
       sodipodi:cy="13.397322"
       sodipodi:rx="1.1607143"
       sodipodi:ry="1.1607143"
       d="m -10.625,13.397322 c 0,0.641044 -0.519669,1.160714 -1.160714,1.160714 -0.641045,0 -1.160714,-0.51967 -1.160714,-1.160714 0,-0.641045 0.519669,-1.160715 1.160714,-1.160715 0.641045,0 1.160714,0.51967 1.160714,1.160715 z"
       transform="translate(311.48316,299.20536)" />
    <path
       sodipodi:type="arc"
       style="fill:#d73c3c;fill-opacity:1;stroke:none"
       id="path4776-11"
       sodipodi:cx="-11.785714"
       sodipodi:cy="13.397322"
       sodipodi:rx="1.1607143"
       sodipodi:ry="1.1607143"
       d="m -10.625,13.397322 c 0,0.641044 -0.519669,1.160714 -1.160714,1.160714 -0.641045,0 -1.160714,-0.51967 -1.160714,-1.160714 0,-0.641045 0.519669,-1.160715 1.160714,-1.160715 0.641045,0 1.160714,0.51967 1.160714,1.160715 z"
       transform="translate(308.06798,302.33036)" />
    <path
       style="fill:none;stroke:#000000;stroke-width:1px;stroke-linecap:butt;stroke-linejoin:miter;stroke-opacity:1"
       d="M 30.935922,16.54932 0.56821081,5.1219689"
       id="path5396"
       inkscape:connector-curvature="0"
       transform="translate(272.30905,251.28125)" />
    <path
       style="fill:none;stroke:#d73c3c;stroke-width:1px;stroke-linecap:butt;stroke-linejoin:miter;stroke-opacity:1"
       d="m 320.03258,251.6479 -30.75,29.5 31.3125,12.0625 -30.4375,28.4375"
       id="path4695"
       inkscape:connector-curvature="0"
       sodipodi:nodetypes="cccc" />
    <path
       sodipodi:type="arc"
       style="fill:#d73c3c;fill-opacity:1;stroke:none"
       id="path4776-8-5"
       sodipodi:cx="-11.785714"
       sodipodi:cy="13.397322"
       sodipodi:rx="1.1607143"
       sodipodi:ry="1.1607143"
       d="m -10.625,13.397322 c 0,0.641044 -0.519669,1.160714 -1.160714,1.160714 -0.641045,0 -1.160714,-0.51967 -1.160714,-1.160714 0,-0.641045 0.519669,-1.160715 1.160714,-1.160715 0.641045,0 1.160714,0.51967 1.160714,1.160715 z"
       transform="translate(315.03069,254.46482)" />
  </g>
</svg>
