<?xml version="1.0" encoding="UTF-8" standalone="no"?>
<!-- Created with Inkscape (http://www.inkscape.org/) -->

<svg
   xmlns:dc="http://purl.org/dc/elements/1.1/"
   xmlns:cc="http://creativecommons.org/ns#"
   xmlns:rdf="http://www.w3.org/1999/02/22-rdf-syntax-ns#"
   xmlns:svg="http://www.w3.org/2000/svg"
   xmlns="http://www.w3.org/2000/svg"
   xmlns:sodipodi="http://sodipodi.sourceforge.net/DTD/sodipodi-0.dtd"
   xmlns:inkscape="http://www.inkscape.org/namespaces/inkscape"
   width="410"
   height="410.98999"
   id="svg2"
   version="1.1"
   inkscape:version="0.48.4 r9939"
   sodipodi:docname="mesh.svg"
   inkscape:export-filename="/home/chardon/Documents/Depot/gforge/sofa/applications/plugins/Partitioner/MIG2015/images/spiral_mesh.png"
   inkscape:export-xdpi="400"
   inkscape:export-ydpi="400">
  <defs
     id="defs4" />
  <sodipodi:namedview
     id="base"
     pagecolor="#ffffff"
     bordercolor="#666666"
     borderopacity="1.0"
     inkscape:pageopacity="0.0"
     inkscape:pageshadow="2"
     inkscape:zoom="1.0316553"
     inkscape:cx="123.34408"
     inkscape:cy="92.350696"
     inkscape:document-units="px"
     inkscape:current-layer="layer1"
     showgrid="false"
     inkscape:snap-global="false"
     inkscape:window-width="1920"
     inkscape:window-height="1018"
     inkscape:window-x="0"
     inkscape:window-y="27"
     inkscape:window-maximized="1"
     fit-margin-top="0"
     fit-margin-left="0"
     fit-margin-right="0"
     fit-margin-bottom="0">
    <inkscape:grid
       type="xygrid"
       id="grid3052"
       empspacing="5"
       visible="true"
       enabled="true"
       snapvisiblegridlinesonly="true"
       originx="-168.41741px"
       originy="-353.27953px" />
  </sodipodi:namedview>
  <metadata
     id="metadata7">
    <rdf:RDF>
      <cc:Work
         rdf:about="">
        <dc:format>image/svg+xml</dc:format>
        <dc:type
           rdf:resource="http://purl.org/dc/dcmitype/StillImage" />
        <dc:title></dc:title>
      </cc:Work>
    </rdf:RDF>
  </metadata>
  <g
     inkscape:label="Layer 1"
     inkscape:groupmode="layer"
     id="layer1"
     transform="translate(-168.41741,-288.09263)">
    <g
       id="g3405"
       transform="translate(-77.074639,-36.769552)">
      <path
         sodipodi:nodetypes="cc"
         inkscape:connector-curvature="0"
         id="path3050"
         d="m 246.5,325.36218 0.004,409.96054"
         style="fill:none;stroke:#000000;stroke-width:1px;stroke-linecap:butt;stroke-linejoin:miter;stroke-opacity:1" />
      <path
         sodipodi:nodetypes="cc"
         inkscape:connector-curvature="0"
         id="path3050-3"
         d="m 297.5,325.36218 0,409.96843"
         style="fill:none;stroke:#000000;stroke-width:1px;stroke-linecap:butt;stroke-linejoin:miter;stroke-opacity:1" />
      <path
         sodipodi:nodetypes="cc"
         inkscape:connector-curvature="0"
         id="path3050-35"
         d="m 348.5,325.36218 0,409.93371"
         style="fill:none;stroke:#000000;stroke-width:1px;stroke-linecap:butt;stroke-linejoin:miter;stroke-opacity:1" />
      <path
         sodipodi:nodetypes="cc"
         inkscape:connector-curvature="0"
         id="path3050-3-1"
         d="m 399.5,325.36218 0,409.89063"
         style="fill:none;stroke:#000000;stroke-width:1px;stroke-linecap:butt;stroke-linejoin:miter;stroke-opacity:1" />
      <path
         sodipodi:nodetypes="cc"
         inkscape:connector-curvature="0"
         id="path3050-2"
         d="m 450.5,325.36218 0.004,409.9375"
         style="fill:none;stroke:#000000;stroke-width:1px;stroke-linecap:butt;stroke-linejoin:miter;stroke-opacity:1" />
      <path
         sodipodi:nodetypes="cc"
         inkscape:connector-curvature="0"
         id="path3050-3-7"
         d="m 501.5,325.36218 0,409.97656"
         style="fill:none;stroke:#000000;stroke-width:1px;stroke-linecap:butt;stroke-linejoin:miter;stroke-opacity:1" />
      <path
         sodipodi:nodetypes="cc"
         inkscape:connector-curvature="0"
         id="path3050-35-3"
         d="m 552.5,325.36218 0,409.9"
         style="fill:none;stroke:#000000;stroke-width:1px;stroke-linecap:butt;stroke-linejoin:miter;stroke-opacity:1" />
      <path
         sodipodi:nodetypes="cc"
         inkscape:connector-curvature="0"
         id="path3050-3-1-7"
         d="m 603.5,325.36218 0,409.9"
         style="fill:none;stroke:#000000;stroke-width:1px;stroke-linecap:butt;stroke-linejoin:miter;stroke-opacity:1" />
      <path
         sodipodi:nodetypes="cc"
         inkscape:connector-curvature="0"
         id="path3050-3-1-7-4"
         d="m 655.5,325.36218 0,409.99"
         style="fill:none;stroke:#000000;stroke-width:1px;stroke-linecap:butt;stroke-linejoin:miter;stroke-opacity:1" />
      <path
         sodipodi:nodetypes="cc"
         inkscape:connector-curvature="0"
         id="path3050-1"
         d="m 246.00606,325.83908 410,0.0161"
         style="fill:none;stroke:#000000;stroke-width:1px;stroke-linecap:butt;stroke-linejoin:miter;stroke-opacity:1" />
      <path
         sodipodi:nodetypes="cc"
         inkscape:connector-curvature="0"
         id="path3050-3-70"
         d="m 246.00406,376.83908 410,0.0161"
         style="fill:none;stroke:#000000;stroke-width:1px;stroke-linecap:butt;stroke-linejoin:miter;stroke-opacity:1" />
      <path
         sodipodi:nodetypes="cc"
         inkscape:connector-curvature="0"
         id="path3050-35-8"
         d="m 246.00206,427.83908 409.99999,0.0161"
         style="fill:none;stroke:#000000;stroke-width:1px;stroke-linecap:butt;stroke-linejoin:miter;stroke-opacity:1" />
      <path
         sodipodi:nodetypes="cc"
         inkscape:connector-curvature="0"
         id="path3050-3-1-1"
         d="m 246.00005,478.83908 410,0.0161"
         style="fill:none;stroke:#000000;stroke-width:1px;stroke-linecap:butt;stroke-linejoin:miter;stroke-opacity:1" />
      <path
         sodipodi:nodetypes="cc"
         inkscape:connector-curvature="0"
         id="path3050-2-9"
         d="m 245.99805,529.83908 410,0.0161"
         style="fill:none;stroke:#000000;stroke-width:1px;stroke-linecap:butt;stroke-linejoin:miter;stroke-opacity:1" />
      <path
         sodipodi:nodetypes="cc"
         inkscape:connector-curvature="0"
         id="path3050-3-7-7"
         d="m 245.99605,580.83908 410,0.0161"
         style="fill:none;stroke:#000000;stroke-width:1px;stroke-linecap:butt;stroke-linejoin:miter;stroke-opacity:1" />
      <path
         sodipodi:nodetypes="cc"
         inkscape:connector-curvature="0"
         id="path3050-35-3-7"
         d="m 245.99405,631.83908 410,0.0161"
         style="fill:none;stroke:#000000;stroke-width:1px;stroke-linecap:butt;stroke-linejoin:miter;stroke-opacity:1" />
      <path
         sodipodi:nodetypes="cc"
         inkscape:connector-curvature="0"
         id="path3050-3-1-7-6"
         d="m 245.99205,682.83908 409.99999,0.0161"
         style="fill:none;stroke:#000000;stroke-width:1px;stroke-linecap:butt;stroke-linejoin:miter;stroke-opacity:1" />
      <path
         sodipodi:nodetypes="cc"
         inkscape:connector-curvature="0"
         id="path3050-3-1-7-4-0"
         d="m 246.00184,734.83513 409.98816,0.02"
         style="fill:none;stroke:#000000;stroke-width:1px;stroke-linecap:butt;stroke-linejoin:miter;stroke-opacity:1" />
      <path
         sodipodi:nodetypes="cc"
         inkscape:connector-curvature="0"
         id="path3274"
         d="m 246.41964,325.74164 408.8329,409.01965"
         style="fill:none;stroke:#000000;stroke-width:1px;stroke-linecap:butt;stroke-linejoin:miter;stroke-opacity:1" />
      <path
         inkscape:transform-center-y="6.4285714"
         inkscape:transform-center-x="15.714286"
         sodipodi:nodetypes="cc"
         inkscape:connector-curvature="0"
         id="path3274-3"
         d="M 297.25542,325.71821 655.38943,682.59245"
         style="fill:none;stroke:#000000;stroke-width:1px;stroke-linecap:butt;stroke-linejoin:miter;stroke-opacity:1" />
      <path
         sodipodi:nodetypes="cc"
         inkscape:connector-curvature="0"
         id="path3274-4"
         d="M 399.25395,325.59625 655.55382,581.07272"
         style="fill:none;stroke:#000000;stroke-width:1px;stroke-linecap:butt;stroke-linejoin:miter;stroke-opacity:1" />
      <path
         inkscape:transform-center-y="6.4285714"
         inkscape:transform-center-x="15.714286"
         sodipodi:nodetypes="cc"
         inkscape:connector-curvature="0"
         id="path3274-3-8"
         d="M 450.65609,325.82908 655.43816,529.7562"
         style="fill:none;stroke:#000000;stroke-width:1px;stroke-linecap:butt;stroke-linejoin:miter;stroke-opacity:1" />
      <path
         inkscape:transform-center-y="6.4285714"
         inkscape:transform-center-x="15.714286"
         sodipodi:nodetypes="cc"
         inkscape:connector-curvature="0"
         id="path3274-3-0-5"
         d="M 348.56516,326.09021 655.37265,631.94803"
         style="fill:none;stroke:#000000;stroke-width:1px;stroke-linecap:butt;stroke-linejoin:miter;stroke-opacity:1" />
      <path
         sodipodi:nodetypes="cc"
         inkscape:connector-curvature="0"
         id="path3274-1"
         d="M 552.53811,325.86605 655.34948,427.64667"
         style="fill:none;stroke:#000000;stroke-width:1px;stroke-linecap:butt;stroke-linejoin:miter;stroke-opacity:1" />
      <path
         inkscape:transform-center-y="6.4285714"
         inkscape:transform-center-x="15.714286"
         sodipodi:nodetypes="cc"
         inkscape:connector-curvature="0"
         id="path3274-3-96"
         d="m 603.44069,325.97736 51.9579,50.35893"
         style="fill:none;stroke:#000000;stroke-width:1px;stroke-linecap:butt;stroke-linejoin:miter;stroke-opacity:1" />
      <path
         inkscape:transform-center-y="6.4285714"
         inkscape:transform-center-x="15.714286"
         sodipodi:nodetypes="cc"
         inkscape:connector-curvature="0"
         id="path3274-3-0-0"
         d="M 501.71997,325.87909 655.3676,478.5851"
         style="fill:none;stroke:#000000;stroke-width:1px;stroke-linecap:butt;stroke-linejoin:miter;stroke-opacity:1" />
      <path
         inkscape:transform-center-y="-6.4285714"
         inkscape:transform-center-x="-15.714286"
         sodipodi:nodetypes="cc"
         inkscape:connector-curvature="0"
         id="path3274-3-9"
         d="M 603.46955,734.80922 246.53715,377.06125"
         style="fill:none;stroke:#000000;stroke-width:1px;stroke-linecap:butt;stroke-linejoin:miter;stroke-opacity:1" />
      <path
         sodipodi:nodetypes="cc"
         inkscape:connector-curvature="0"
         id="path3274-4-9"
         d="M 501.48274,734.61868 246.56216,478.73882"
         style="fill:none;stroke:#000000;stroke-width:1px;stroke-linecap:butt;stroke-linejoin:miter;stroke-opacity:1" />
      <path
         inkscape:transform-center-y="-6.4285714"
         inkscape:transform-center-x="-15.714286"
         sodipodi:nodetypes="cc"
         inkscape:connector-curvature="0"
         id="path3274-3-8-0"
         d="M 450.53372,734.76085 246.53581,529.78701"
         style="fill:none;stroke:#000000;stroke-width:1px;stroke-linecap:butt;stroke-linejoin:miter;stroke-opacity:1" />
      <path
         inkscape:transform-center-y="-6.4285714"
         inkscape:transform-center-x="-15.714286"
         sodipodi:nodetypes="cc"
         inkscape:connector-curvature="0"
         id="path3274-3-0-5-5"
         d="M 552.57387,734.62863 246.61709,427.83194"
         style="fill:none;stroke:#000000;stroke-width:1px;stroke-linecap:butt;stroke-linejoin:miter;stroke-opacity:1" />
      <path
         sodipodi:nodetypes="cc"
         inkscape:connector-curvature="0"
         id="path3274-1-6"
         d="M 348.58822,734.74414 246.57705,632.00703"
         style="fill:none;stroke:#000000;stroke-width:1px;stroke-linecap:butt;stroke-linejoin:miter;stroke-opacity:1" />
      <path
         inkscape:transform-center-y="-6.4285714"
         inkscape:transform-center-x="-15.714286"
         sodipodi:nodetypes="cc"
         inkscape:connector-curvature="0"
         id="path3274-3-96-4"
         d="M 297.45994,734.59179 246.55952,682.9386"
         style="fill:none;stroke:#000000;stroke-width:1px;stroke-linecap:butt;stroke-linejoin:miter;stroke-opacity:1" />
      <path
         inkscape:transform-center-y="-6.4285714"
         inkscape:transform-center-x="-15.714286"
         sodipodi:nodetypes="cc"
         inkscape:connector-curvature="0"
         id="path3274-3-0-0-8"
         d="M 399.57922,734.61709 246.54317,580.94233"
         style="fill:none;stroke:#000000;stroke-width:1px;stroke-linecap:butt;stroke-linejoin:miter;stroke-opacity:1" />
    </g>
    <path
       style="fill:none;stroke:#e90000;stroke-width:2;stroke-linecap:butt;stroke-linejoin:miter;stroke-miterlimit:4;stroke-opacity:1;stroke-dasharray:none"
       d="m 336.93638,200.62572 c 0,0 -0.95883,23.58001 -4.59619,34.64824 -5.41778,16.48595 -13.94155,32.32017 -25.10229,45.60838 -11.86097,14.12192 -26.5589,26.56163 -43.13352,34.64824 -14.79812,7.21987 -31.6179,11.36923 -48.08326,11.3137 -24.01028,-0.081 -48.7047,-5.88642 -70.00357,-16.97056 -16.29581,-8.4805 -31.29194,-21.05402 -41.36575,-36.416 -12.426058,-18.94902 -18.874017,-42.12751 -20.859647,-64.70027 -1.594842,-18.13026 0.317224,-37.33852 7.424621,-54.09367 7.3746,-17.38506 20.327166,-32.66157 35.001786,-44.54772 17.85691,-14.463751 39.2338,-26.457342 61.87184,-30.405596 16.7057,-2.913607 34.50266,0.198732 50.55814,5.656855 16.16983,5.496999 31.39577,14.820081 43.84062,26.516501 13.26854,12.47058 23.94052,28.16422 31.1127,44.90128 5.73536,13.38407 9.6735,28.24273 8.83883,42.77996 -1.29457,22.54728 -8.61537,45.60238 -21.2132,64.34672 -9.93263,14.77878 -24.45038,27.27518 -40.65864,34.64823 -19.63136,8.93021 -42.58673,12.17339 -63.99317,9.54594 -22.02704,-2.70363 -44.1302,-11.6662 -61.51829,-25.45584 -11.24939,-8.92134 -19.41078,-21.82053 -25.10229,-35.00179 -6.33106,-14.66244 -9.3546,-31.05253 -9.19238,-47.0226 0.14698,-14.46953 3.22309,-29.24473 9.19238,-42.4264 6.04796,-13.3554 15.22576,-25.59203 26.16295,-35.35534 11.77737,-10.51331 25.77819,-19.54548 41.0122,-23.688079 15.69397,-4.267682 32.74279,-2.997272 48.79037,-0.353554 15.26155,2.514223 33.04233,7.413333 44.59062,17.702793 11.19463,9.97435 15.86483,18.16706 21.52386,30.02691 6.56745,13.76366 10.82685,27.41481 12.33148,42.59063 1.26114,12.72 0.0652,29.4146 -4.28554,41.43376 -5.45194,15.0614 -13.9414,26.74676 -25.72361,37.59798 -11.68776,10.76422 -25.91524,19.97944 -41.36575,23.68808 -16.40686,3.9382 -34.36127,2.25333 -50.55813,-2.47488 -14.59324,-4.26008 -29.43527,-11.3212 -39.59798,-22.62741 -14.53479,-16.17022 -24.0163,-38.11426 -26.16295,-59.75053 -1.69116,-17.04531 2.26262,-35.44803 10.96015,-50.20458 9.79509,-16.6187 25.60825,-30.93994 43.48707,-38.18376 17.71626,-7.17795 38.87433,-8.00339 57.27565,-2.82843 16.33131,4.59281 31.49133,15.37747 42.07285,28.63782 10.26504,12.86376 16.74182,29.5551 18.03123,45.96195 1.2008,15.27943 -2.28791,31.59841 -9.8995,44.90128 -8.94544,15.63405 -23.04874,29.6585 -39.59798,36.76955 -15.40638,6.61997 -34.00992,7.53095 -50.20458,3.18198 -16.82552,-4.51838 -34.09446,-14.31852 -43.48707,-28.99138 -11.44877,-17.88491 -14.96718,-42.3106 -9.89949,-62.9325 4.06122,-16.52627 16.1521,-31.7144 30.40559,-41.0122 14.27159,-9.30961 32.88886,-12.93605 49.85103,-11.3137 13.71039,1.31133 28.07438,6.89496 37.83021,16.61701 9.67946,9.64594 14.31477,24.00684 16.61701,37.47665 2.27051,13.28419 2.46172,28.06688 -3.18198,40.30509 -4.81586,10.44306 -14.1753,19.12223 -24.39518,24.39518 -16.35707,8.43943 -36.86268,14.62944 -54.44723,9.19239 -12.97937,-4.01315 -22.66233,-16.45582 -29.34493,-28.28427 -6.24377,-11.05171 -10.44795,-24.58225 -8.48528,-37.1231 2.39384,-15.29588 10.63995,-31.61842 23.68808,-39.95154 13.77703,-8.79862 33.2884,-10.13732 48.79037,-4.94974 12.33715,4.12851 22.9291,14.82631 28.63782,26.5165 5.50141,11.26566 7.62008,25.75131 3.18198,37.47666 -5.13429,13.56466 -17.37188,26.63007 -31.46625,30.05204 -16.23497,3.94168 -37.05603,-1.59179 -48.08326,-14.14214 -9.45082,-10.7562 -11.83812,-29.05505 -6.71752,-42.42641 4.34438,-11.34442 16.35159,-20.70489 28.28427,-22.98097 11.16688,-2.13001 24.44804,2.25506 32.52692,10.25305 8.36929,8.28549 13.91369,22.18709 10.96015,33.58757 -2.25868,8.71834 -11.25411,15.53939 -19.79899,18.38478 -9.55739,3.18255 -22.32479,3.28035 -30.05204,-3.18198 -7.4384,-6.22077 -10.94747,-18.65175 -8.13172,-27.93072 2.50192,-8.24479 11.30527,-15.17035 19.79899,-16.61701 6.58126,-1.12092 14.1108,2.25905 18.73832,7.07107 2.32491,2.4176 3.18199,9.54594 3.18199,9.54594"
       id="path3505"
       inkscape:connector-curvature="0"
       sodipodi:nodetypes="csssssssssssssssssssssssssssssssssssssssssssssssssssssssssssssssssssc"
       transform="translate(168.41741,288.09263)" />
    <path
       sodipodi:type="arc"
       style="fill:#6442bd;fill-opacity:1;stroke:none"
       id="path4275"
       sodipodi:cx="-403.40442"
       sodipodi:cy="64.861221"
       sodipodi:rx="6.7175145"
       sodipodi:ry="6.7175145"
       d="m -396.6869,64.861221 c 0,3.709981 -3.00754,6.717515 -6.71752,6.717515 -3.70998,0 -6.71751,-3.007534 -6.71751,-6.717515 0,-3.709981 3.00753,-6.717514 6.71751,-6.717514 3.70998,0 6.71752,3.007533 6.71752,6.717514 z"
       transform="translate(776.52924,425.27135)" />
    <path
       sodipodi:type="arc"
       style="fill:#6442bd;fill-opacity:1;stroke:none"
       id="path4275-6"
       sodipodi:cx="-403.40442"
       sodipodi:cy="64.861221"
       sodipodi:rx="6.7175145"
       sodipodi:ry="6.7175145"
       d="m -396.6869,64.861221 c 0,3.709981 -3.00754,6.717515 -6.71752,6.717515 -3.70998,0 -6.71751,-3.007534 -6.71751,-6.717515 0,-3.709981 3.00753,-6.717514 6.71751,-6.717514 3.70998,0 6.71752,3.007533 6.71752,6.717514 z"
       transform="translate(890.53934,552.50388)" />
    <path
       sodipodi:type="arc"
       style="fill:#6442bd;fill-opacity:1;stroke:none"
       id="path4275-4"
       sodipodi:cx="-403.40442"
       sodipodi:cy="64.861221"
       sodipodi:rx="6.7175145"
       sodipodi:ry="6.7175145"
       d="m -396.6869,64.861221 c 0,3.709981 -3.00754,6.717515 -6.71752,6.717515 -3.70998,0 -6.71751,-3.007534 -6.71751,-6.717515 0,-3.709981 3.00753,-6.717514 6.71751,-6.717514 3.70998,0 6.71752,3.007533 6.71752,6.717514 z"
       transform="translate(653.53934,552.50388)" />
    <path
       sodipodi:type="arc"
       style="fill:#6442bd;fill-opacity:1;stroke:none"
       id="path4275-7"
       sodipodi:cx="-403.40442"
       sodipodi:cy="64.861221"
       sodipodi:rx="6.7175145"
       sodipodi:ry="6.7175145"
       d="m -396.6869,64.861221 c 0,3.709981 -3.00754,6.717515 -6.71752,6.717515 -3.70998,0 -6.71751,-3.007534 -6.71751,-6.717515 0,-3.709981 3.00753,-6.717514 6.71751,-6.717514 3.70998,0 6.71752,3.007533 6.71752,6.717514 z"
       transform="translate(890.53934,313.50388)" />
    <path
       sodipodi:type="arc"
       style="fill:#6442bd;fill-opacity:1;stroke:none"
       id="path4275-73"
       sodipodi:cx="-403.40442"
       sodipodi:cy="64.861221"
       sodipodi:rx="6.7175145"
       sodipodi:ry="6.7175145"
       d="m -396.6869,64.861221 c 0,3.709981 -3.00754,6.717515 -6.71752,6.717515 -3.70998,0 -6.71751,-3.007534 -6.71751,-6.717515 0,-3.709981 3.00753,-6.717514 6.71751,-6.717514 3.70998,0 6.71752,3.007533 6.71752,6.717514 z"
       transform="translate(653.53934,313.50388)" />
  </g>
</svg>
