<?xml version="1.0" encoding="UTF-8" standalone="no"?>
<svg
   xmlns:dc="http://purl.org/dc/elements/1.1/"
   xmlns:cc="http://creativecommons.org/ns#"
   xmlns:rdf="http://www.w3.org/1999/02/22-rdf-syntax-ns#"
   xmlns:svg="http://www.w3.org/2000/svg"
   xmlns="http://www.w3.org/2000/svg"
   xmlns:xlink="http://www.w3.org/1999/xlink"
   xmlns:sodipodi="http://sodipodi.sourceforge.net/DTD/sodipodi-0.dtd"
   xmlns:inkscape="http://www.inkscape.org/namespaces/inkscape"
   width="603.51593"
   height="400"
   viewBox="0 0 603.51593 400"
   id="svg2"
   version="1.1"
   inkscape:version="0.91 r13725"
   sodipodi:docname="cubicKernel.svg">
  <metadata
     id="metadata186">
    <rdf:RDF>
      <cc:Work
         rdf:about="">
        <dc:format>image/svg+xml</dc:format>
        <dc:type
           rdf:resource="http://purl.org/dc/dcmitype/StillImage" />
        <dc:title>Gnuplot</dc:title>
      </cc:Work>
    </rdf:RDF>
  </metadata>
  <defs
     id="defs184">
    <defs
       id="defs11">
      <circle
         r="0.5"
         id="gpDot"
         cx="0"
         cy="0"
         style="stroke-width:0.5" />
      <path
         d="M -1,0 1,0 M 0,-1 0,1"
         id="gpPt0"
         inkscape:connector-curvature="0"
         style="stroke:currentColor;stroke-width:0.26699999" />
      <path
         d="M -1,-1 1,1 M 1,-1 -1,1"
         id="gpPt1"
         inkscape:connector-curvature="0"
         style="stroke:currentColor;stroke-width:0.26699999" />
      <path
         d="M -1,0 1,0 M 0,-1 0,1 m -1,-2 2,2 m -2,0 2,-2"
         id="gpPt2"
         inkscape:connector-curvature="0"
         style="stroke:currentColor;stroke-width:0.26699999" />
      <rect
         height="2"
         width="2"
         y="-1"
         x="-1"
         id="gpPt3"
         style="stroke:currentColor;stroke-width:0.26699999" />
      <rect
         height="2"
         width="2"
         y="-1"
         x="-1"
         id="gpPt4"
         style="fill:currentColor;stroke:currentColor;stroke-width:0.26699999" />
      <circle
         r="1"
         cy="0"
         cx="0"
         id="gpPt5"
         style="stroke:currentColor;stroke-width:0.26699999" />
      <use
         id="gpPt6"
         xlink:href="#gpPt5"
         style="fill:currentColor;stroke:none"
         x="0"
         y="0"
         width="100%"
         height="100%" />
      <path
         d="m 0,-1.33 -1.33,2 2.66,0 z"
         id="gpPt7"
         inkscape:connector-curvature="0"
         style="stroke:currentColor;stroke-width:0.26699999" />
      <use
         id="gpPt8"
         xlink:href="#gpPt7"
         style="fill:currentColor;stroke:none"
         x="0"
         y="0"
         width="100%"
         height="100%" />
      <use
         transform="scale(-1,-1)"
         id="gpPt9"
         xlink:href="#gpPt7"
         style="stroke:currentColor"
         x="0"
         y="0"
         width="100%"
         height="100%" />
      <use
         id="gpPt10"
         xlink:href="#gpPt9"
         style="fill:currentColor;stroke:none"
         x="0"
         y="0"
         width="100%"
         height="100%" />
      <use
         transform="matrix(0.70710678,0.70710678,-0.70710678,0.70710678,0,0)"
         id="gpPt11"
         xlink:href="#gpPt3"
         style="stroke:currentColor"
         x="0"
         y="0"
         width="100%"
         height="100%" />
      <use
         id="gpPt12"
         xlink:href="#gpPt11"
         style="fill:currentColor;stroke:none"
         x="0"
         y="0"
         width="100%"
         height="100%" />
      <filter
         width="1"
         height="1"
         y="0"
         x="0"
         filterUnits="objectBoundingBox"
         id="greybox">
        <feFlood
           id="feFlood28"
           result="grey"
           flood-opacity="1"
           flood-color="lightgrey" />
        <feComposite
           id="feComposite30"
           operator="atop"
           in2="grey"
           in="SourceGraphic" />
      </filter>
    </defs>
  </defs>
  <sodipodi:namedview
     pagecolor="#ffffff"
     bordercolor="#666666"
     borderopacity="1"
     objecttolerance="10"
     gridtolerance="10"
     guidetolerance="10"
     inkscape:pageopacity="0"
     inkscape:pageshadow="2"
     inkscape:window-width="1615"
     inkscape:window-height="1026"
     id="namedview182"
     showgrid="false"
     inkscape:zoom="1.5886332"
     inkscape:cx="294.83795"
     inkscape:cy="217.86025"
     inkscape:window-x="65"
     inkscape:window-y="24"
     inkscape:window-maximized="1"
     inkscape:current-layer="g168"
     fit-margin-top="0"
     fit-margin-left="0"
     fit-margin-right="0"
     fit-margin-bottom="0" />
  <title
     id="title4">Gnuplot</title>
  <desc
     id="desc6">Produced by GNUPLOT 4.6 patchlevel 6 </desc>
  <rect
     style="fill:none"
     id="rect9"
     height="400"
     width="600"
     y="0"
     x="3.5159423" />
  <g
     id="g32"
     style="color:#ffffff;fill:none;stroke:currentColor;stroke-width:1;stroke-linecap:butt;stroke-linejoin:miter"
     transform="translate(3.5159424,0)" />
  <g
     id="g34"
     style="color:#ffffff;fill:none;stroke:currentColor;stroke-width:1.5;stroke-linecap:butt;stroke-linejoin:miter"
     transform="translate(3.5159424,0)" />
  <path
     d="m 50.015942,352 5.6,0 m 526.799998,0 -5.6,0"
     id="path38"
     inkscape:connector-curvature="0"
     style="color:#000000;fill:none;stroke:#000000;stroke-width:1.5;stroke-linecap:butt;stroke-linejoin:miter" />
  <g
     transform="translate(43.015942,355.7)"
     style="color:#000000;font-size:12.5px;font-family:Verdana;text-anchor:end;fill:#000000;stroke:none;stroke-width:1.5;stroke-linecap:butt;stroke-linejoin:miter"
     id="g40">
    <text
       id="text42">
      <tspan
         id="tspan44">-1</tspan>
    </text>
  </g>
  <path
     d="m 50.015942,183 5.6,0 m 526.799998,0 -5.6,0"
     id="path46"
     inkscape:connector-curvature="0"
     style="color:#000000;fill:none;stroke:#000000;stroke-width:1.5;stroke-linecap:butt;stroke-linejoin:miter" />
  <g
     transform="translate(43.015942,186.7)"
     style="color:#000000;font-size:12.5px;font-family:Verdana;text-anchor:end;fill:#000000;stroke:none;stroke-width:1.5;stroke-linecap:butt;stroke-linejoin:miter"
     id="g48">
    <text
       id="text50">
      <tspan
         id="tspan52">0</tspan>
    </text>
  </g>
  <path
     d="m 50.015942,14.1 5.6,0 m 526.799998,0 -5.6,0"
     id="path54"
     inkscape:connector-curvature="0"
     style="color:#000000;fill:none;stroke:#000000;stroke-width:1.5;stroke-linecap:butt;stroke-linejoin:miter" />
  <g
     transform="translate(43.015942,17.8)"
     style="color:#000000;font-size:12.5px;font-family:Verdana;text-anchor:end;fill:#000000;stroke:none;stroke-width:1.5;stroke-linecap:butt;stroke-linejoin:miter"
     id="g56">
    <text
       id="text58">
      <tspan
         id="tspan60">1</tspan>
    </text>
  </g>
  <path
     d="m 50.015942,352 0,-5.6 m 0,-332.3 0,5.6"
     id="path62"
     inkscape:connector-curvature="0"
     style="color:#000000;fill:none;stroke:#000000;stroke-width:1.5;stroke-linecap:butt;stroke-linejoin:miter" />
  <g
     transform="translate(50.015942,370.7)"
     style="color:#000000;font-size:12.5px;font-family:Verdana;text-anchor:middle;fill:#000000;stroke:none;stroke-width:1.5;stroke-linecap:butt;stroke-linejoin:miter"
     id="g64">
    <text
       id="text66">
      <tspan
         id="tspan68">-2</tspan>
    </text>
  </g>
  <path
     d="m 116.61594,352 0,-5.6 m 0,-332.3 0,5.6"
     id="path70"
     inkscape:connector-curvature="0"
     style="color:#000000;fill:none;stroke:#000000;stroke-width:1.5;stroke-linecap:butt;stroke-linejoin:miter" />
  <g
     transform="translate(116.61594,370.7)"
     style="color:#000000;font-size:12.5px;font-family:Verdana;text-anchor:middle;fill:#000000;stroke:none;stroke-width:1.5;stroke-linecap:butt;stroke-linejoin:miter"
     id="g72">
    <text
       id="text74">
      <tspan
         id="tspan76">-1.5</tspan>
    </text>
  </g>
  <path
     d="m 183.11594,352 0,-5.6 m 0,-332.3 0,5.6"
     id="path78"
     inkscape:connector-curvature="0"
     style="color:#000000;fill:none;stroke:#000000;stroke-width:1.5;stroke-linecap:butt;stroke-linejoin:miter" />
  <g
     transform="translate(183.11594,370.7)"
     style="color:#000000;font-size:12.5px;font-family:Verdana;text-anchor:middle;fill:#000000;stroke:none;stroke-width:1.5;stroke-linecap:butt;stroke-linejoin:miter"
     id="g80">
    <text
       id="text82">
      <tspan
         id="tspan84">-1</tspan>
    </text>
  </g>
  <path
     d="m 249.71594,352 0,-5.6 m 0,-332.3 0,5.6"
     id="path86"
     inkscape:connector-curvature="0"
     style="color:#000000;fill:none;stroke:#000000;stroke-width:1.5;stroke-linecap:butt;stroke-linejoin:miter" />
  <g
     transform="translate(249.71594,370.7)"
     style="color:#000000;font-size:12.5px;font-family:Verdana;text-anchor:middle;fill:#000000;stroke:none;stroke-width:1.5;stroke-linecap:butt;stroke-linejoin:miter"
     id="g88">
    <text
       id="text90">
      <tspan
         id="tspan92">-0.5</tspan>
    </text>
  </g>
  <path
     d="m 316.21594,352 0,-5.6 m 0,-332.3 0,5.6"
     id="path94"
     inkscape:connector-curvature="0"
     style="color:#000000;fill:none;stroke:#000000;stroke-width:1.5;stroke-linecap:butt;stroke-linejoin:miter" />
  <g
     transform="translate(316.21594,370.7)"
     style="color:#000000;font-size:12.5px;font-family:Verdana;text-anchor:middle;fill:#000000;stroke:none;stroke-width:1.5;stroke-linecap:butt;stroke-linejoin:miter"
     id="g96">
    <text
       id="text98">
      <tspan
         id="tspan100">0</tspan>
    </text>
  </g>
  <path
     d="m 382.81594,352 0,-5.6 m 0,-332.3 0,5.6"
     id="path102"
     inkscape:connector-curvature="0"
     style="color:#000000;fill:none;stroke:#000000;stroke-width:1.5;stroke-linecap:butt;stroke-linejoin:miter" />
  <g
     transform="translate(382.81594,370.7)"
     style="color:#000000;font-size:12.5px;font-family:Verdana;text-anchor:middle;fill:#000000;stroke:none;stroke-width:1.5;stroke-linecap:butt;stroke-linejoin:miter"
     id="g104">
    <text
       id="text106">
      <tspan
         id="tspan108">0.5</tspan>
    </text>
  </g>
  <path
     d="m 449.31594,352 0,-5.6 m 0,-332.3 0,5.6"
     id="path110"
     inkscape:connector-curvature="0"
     style="color:#000000;fill:none;stroke:#000000;stroke-width:1.5;stroke-linecap:butt;stroke-linejoin:miter" />
  <g
     transform="translate(449.31594,370.7)"
     style="color:#000000;font-size:12.5px;font-family:Verdana;text-anchor:middle;fill:#000000;stroke:none;stroke-width:1.5;stroke-linecap:butt;stroke-linejoin:miter"
     id="g112">
    <text
       id="text114">
      <tspan
         id="tspan116">1</tspan>
    </text>
  </g>
  <path
     d="m 515.91594,352 0,-5.6 m 0,-332.3 0,5.6"
     id="path118"
     inkscape:connector-curvature="0"
     style="color:#000000;fill:none;stroke:#000000;stroke-width:1.5;stroke-linecap:butt;stroke-linejoin:miter" />
  <g
     transform="translate(515.91594,370.7)"
     style="color:#000000;font-size:12.5px;font-family:Verdana;text-anchor:middle;fill:#000000;stroke:none;stroke-width:1.5;stroke-linecap:butt;stroke-linejoin:miter"
     id="g120">
    <text
       id="text122">
      <tspan
         id="tspan124">1.5</tspan>
    </text>
  </g>
  <path
     d="m 582.41594,352 0,-5.6 m 0,-332.3 0,5.6"
     id="path126"
     inkscape:connector-curvature="0"
     style="color:#000000;fill:none;stroke:#000000;stroke-width:1.5;stroke-linecap:butt;stroke-linejoin:miter" />
  <g
     transform="translate(582.41594,370.7)"
     style="color:#000000;font-size:12.5px;font-family:Verdana;text-anchor:middle;fill:#000000;stroke:none;stroke-width:1.5;stroke-linecap:butt;stroke-linejoin:miter"
     id="g128">
    <text
       id="text130">
      <tspan
         id="tspan132">2</tspan>
    </text>
  </g>
  <path
     d="m 50.015942,14.1 0,337.9 532.399998,0 0,-337.9 -532.399998,0 z"
     id="path134"
     inkscape:connector-curvature="0"
     style="color:#000000;fill:none;stroke:#000000;stroke-width:1.5;stroke-linecap:butt;stroke-linejoin:miter" />
  <g
     transform="translate(15.002441,186.86892)"
     style="color:#000000;font-size:12.5px;font-family:Verdana;text-anchor:middle;fill:#000000;stroke:none;stroke-width:1.5;stroke-linecap:butt;stroke-linejoin:miter"
     id="g136">
    <text
       id="text138">
      <tspan
         id="tspan140">W(x)</tspan>
    </text>
  </g>
  <g
     transform="translate(316.21594,393.2)"
     style="color:#000000;font-size:12.5px;font-family:Verdana;text-anchor:middle;fill:#000000;stroke:none;stroke-width:1.5;stroke-linecap:butt;stroke-linejoin:miter"
     id="g142">
    <text
       id="text144">
      <tspan
         id="tspan146">x</tspan>
    </text>
  </g>
  <g
     id="gnuplot_plot_1"
     transform="translate(3.5159424,0)">
    <title
       id="title149">gnuplot_plot_1</title>
    <g
       id="g151"
       style="color:#ffffff;fill:none;stroke:#000000;stroke-width:3;stroke-linecap:butt;stroke-linejoin:miter" />
    <g
       id="g153"
       style="color:#ff0000;fill:none;stroke:currentColor;stroke-width:3;stroke-linecap:butt;stroke-linejoin:miter">
      <g
         id="g155"
         style="font-size:12.5px;font-family:Verdana;text-anchor:end;fill:#000000;stroke:none"
         transform="translate(529.4,76)">
        <text
           id="text157">
          <tspan
             id="tspan159">W(x)</tspan>
        </text>
      </g>
      <path
         style="stroke:#0060ad"
         inkscape:connector-curvature="0"
         id="path161"
         d="m 536.4,72.3 35.5,0 M 46.5,183 l 5.4,0 5.4,0 5.3,0 5.4,-0.1 5.4,-0.1 5.4,-0.2 5.3,-0.2 5.4,-0.3 5.4,-0.4 5.4,-0.5 5.4,-0.6 5.3,-0.8 5.4,-0.8 5.4,-1 5.4,-1.2 5.3,-1.4 5.4,-1.5 5.4,-1.7 5.4,-1.9 5.4,-2.1 5.3,-2.4 5.4,-2.5 5.4,-2.8 5.4,-3.1 5.3,-3.4 5.4,-3.6 5.4,-3.8 5.4,-4.1 5.4,-4.2 5.3,-4.3 5.4,-4.5 5.4,-4.5 5.4,-4.5 5.3,-4.6 5.4,-4.5 5.4,-4.4 5.4,-4.4 5.4,-4.2 5.3,-4 5.4,-3.9 5.4,-3.6 5.4,-3.3 5.3,-3.1 5.4,-2.7 5.4,-2.3 5.4,-1.9 5.4,-1.5 5.3,-1.1 5.4,-0.5 5.4,0 5.4,0.5 5.3,1.1 5.4,1.5 5.4,1.9 5.4,2.3 5.4,2.7 5.3,3.1 5.4,3.3 5.4,3.6 5.4,3.9 5.3,4 5.4,4.2 5.4,4.4 5.4,4.4 5.4,4.5 5.3,4.6 5.4,4.5 5.4,4.5 5.4,4.5 5.3,4.3 5.4,4.2 5.4,4.1 5.4,3.8 5.4,3.6 5.3,3.4 5.4,3.1 5.4,2.8 5.4,2.5 5.3,2.4 5.4,2.1 5.4,1.9 5.4,1.7 5.4,1.5 5.3,1.4 5.4,1.2 5.4,1 5.4,0.8 5.3,0.8 5.4,0.6 5.4,0.5 5.4,0.4 5.4,0.3 5.3,0.2 5.4,0.2 5.4,0.1 5.4,0.1 5.3,0 5.4,0 5.4,0" />
    </g>
  </g>
  <g
     id="g168"
     style="color:#ff0000;font-size:12.5px;font-family:Verdana;text-anchor:end;fill:#000000;stroke:none;stroke-width:3;stroke-linecap:butt;stroke-linejoin:miter"
     transform="translate(532.91594,91)">
    <text
       id="text170">
      <tspan
         id="tspan172">W'(x)</tspan>
    </text>
  </g>
  <path
     style="color:#ff0000;fill:none;stroke:#dd181f;stroke-width:3;stroke-linecap:butt;stroke-linejoin:miter"
     inkscape:connector-curvature="0"
     id="path174"
     d="m 539.91594,87.3 35.5,0 M 50.015942,183 l 5.4,-0.1 5.4,-0.4 5.3,-0.7 5.4,-1 5.4,-1.2 5.4,-1.5 5.3,-1.8 5.4,-2.1 5.4,-2.3 5.399998,-2.6 5.4,-2.9 5.3,-3.2 5.4,-3.5 5.4,-3.7 5.4,-4 5.3,-4.3 5.4,-4.5 5.4,-4.8 5.4,-5.1 5.4,-5.4 5.3,-5.7 5.4,-5.9 5.4,-6.2 5.4,-6.5 5.3,-6.7 5.4,-6.2 5.4,-5.4 5.4,-4.5 5.4,-3.8 5.3,-2.9 5.4,-2 5.4,-1.3 5.4,-0.4 5.3,0.4 5.4,1.3 5.4,2 5.4,2.9 5.4,3.8 5.3,4.5 5.4,5.4 5.4,6.2 5.4,7 5.3,7.9 5.4,8.7 5.4,9.5 5.4,10.3 5.4,11.2 5.3,12 5.4,12.8 5.4,13.5 5.4,12.8 5.3,12 5.4,11.2 5.4,10.3 5.4,9.5 5.4,8.7 5.3,7.9 5.4,7 5.4,6.2 5.4,5.4 5.3,4.5 5.4,3.8 5.4,2.9 5.4,2 5.4,1.3 5.3,0.4 5.4,-0.4 5.4,-1.3 5.4,-2 5.3,-2.9 5.4,-3.8 5.4,-4.5 5.4,-5.4 5.4,-6.2 5.3,-6.7 5.4,-6.5 5.4,-6.2 5.4,-5.9 5.3,-5.7 5.4,-5.4 5.4,-5.1 5.4,-4.8 5.4,-4.5 5.3,-4.3 5.4,-4 5.4,-3.7 5.4,-3.5 5.3,-3.2 5.4,-2.9 5.4,-2.6 5.4,-2.3 5.4,-2.1 5.3,-1.8 5.4,-1.5 5.4,-1.2 5.4,-1 5.3,-0.7 5.4,-0.4 5.4,-0.2" />
  <g
     id="g176"
     style="color:#ffffff;fill:none;stroke:#dd181f;stroke-width:1.5;stroke-linecap:butt;stroke-linejoin:miter"
     transform="translate(3.5159424,0)" />
  <g
     id="g178"
     style="color:#000000;fill:none;stroke:currentColor;stroke-width:1.5;stroke-linecap:butt;stroke-linejoin:miter"
     transform="translate(3.5159424,0)">
    <path
       style="stroke:#000000"
       inkscape:connector-curvature="0"
       id="path180"
       d="m 46.5,14.1 0,337.9 532.4,0 0,-337.9 -532.4,0 z" />
  </g>
</svg>
