<?xml version="1.0" encoding="UTF-8" standalone="no"?>
<!-- Created with Inkscape (http://www.inkscape.org/) -->

<svg
   xmlns:dc="http://purl.org/dc/elements/1.1/"
   xmlns:cc="http://creativecommons.org/ns#"
   xmlns:rdf="http://www.w3.org/1999/02/22-rdf-syntax-ns#"
   xmlns:svg="http://www.w3.org/2000/svg"
   xmlns="http://www.w3.org/2000/svg"
   xmlns:sodipodi="http://sodipodi.sourceforge.net/DTD/sodipodi-0.dtd"
   xmlns:inkscape="http://www.inkscape.org/namespaces/inkscape"
   width="343.99612"
   height="174.72034"
   viewBox="0 0 343.99612 174.72033"
   id="svg2"
   version="1.1"
   inkscape:version="0.91 r13725"
   sodipodi:docname="isolatedFeature.svg"
   inkscape:export-filename="/home/manteapi/Depot/github/phd-thesis/LaTeX/images/fluidsculpting-mig2016/isolatedFeature.png"
   inkscape:export-xdpi="400"
   inkscape:export-ydpi="400">
  <defs
     id="defs4" />
  <sodipodi:namedview
     id="base"
     pagecolor="#ffffff"
     bordercolor="#666666"
     borderopacity="1.0"
     inkscape:pageopacity="1"
     inkscape:pageshadow="2"
     inkscape:zoom="2.8"
     inkscape:cx="109.06772"
     inkscape:cy="102.22897"
     inkscape:document-units="px"
     inkscape:current-layer="layer1"
     showgrid="false"
     fit-margin-top="0"
     fit-margin-left="0"
     fit-margin-right="0"
     fit-margin-bottom="0"
     inkscape:window-width="1615"
     inkscape:window-height="1026"
     inkscape:window-x="65"
     inkscape:window-y="24"
     inkscape:window-maximized="1" />
  <metadata
     id="metadata7">
    <rdf:RDF>
      <cc:Work
         rdf:about="">
        <dc:format>image/svg+xml</dc:format>
        <dc:type
           rdf:resource="http://purl.org/dc/dcmitype/StillImage" />
        <dc:title />
      </cc:Work>
    </rdf:RDF>
  </metadata>
  <g
     inkscape:label="Layer 1"
     inkscape:groupmode="layer"
     id="layer1"
     transform="translate(-0.14479145,-370.36545)">
    <g
       id="g4686">
      <path
         sodipodi:nodetypes="zzz"
         inkscape:connector-curvature="0"
         id="path3049-0-2"
         d="m 96.311418,398.58598 c -15.899113,9.51991 -10.250373,-26.19025 8.060622,-26.0151 18.31099,0.17515 7.8385,16.49519 -8.060622,26.0151 z"
         style="fill:#e7aaaa;fill-opacity:1;stroke:none" />
      <path
         sodipodi:nodetypes="csssscccc"
         inkscape:connector-curvature="0"
         id="path4605-3-4"
         d="M 0.14479145,457.69693 C 35.2067,457.69693 50.42217,432.06976 72.842915,414.19045 102.045,390.9034 58.273259,444.55311 138.584,452.53941 c 30.953,3.07804 59.35579,-18.67112 98.61161,-40.54033 37.78022,-21.04717 16.54569,15.29778 74.50656,30.67917 20.14939,5.34716 32.43874,0 32.43874,0 l 0,102.40753 -343.99611855,0 z"
         style="fill:#abaae7;fill-opacity:1;stroke:none" />
      <g
         id="g4669">
        <path
           sodipodi:type="arc"
           style="fill:#000000;fill-opacity:1;stroke:none"
           id="path4576-0"
           sodipodi:cx="20.714285"
           sodipodi:cy="-25.622805"
           sodipodi:rx="2.1428571"
           sodipodi:ry="2.1428571"
           d="m 22.857142,-25.622805 a 2.1428571,2.1428571 0 0 1 -2.142857,2.142857 2.1428571,2.1428571 0 0 1 -2.142857,-2.142857 2.1428571,2.1428571 0 0 1 2.142857,-2.142857 2.1428571,2.1428571 0 0 1 2.142857,2.142857 z"
           transform="translate(69.571114,425.21084)" />
        <path
           sodipodi:type="arc"
           style="fill:#000000;fill-opacity:1;stroke:none"
           id="path4576-5"
           sodipodi:cx="20.714285"
           sodipodi:cy="-25.622805"
           sodipodi:rx="2.1428571"
           sodipodi:ry="2.1428571"
           d="m 22.857142,-25.622805 a 2.1428571,2.1428571 0 0 1 -2.142857,2.142857 2.1428571,2.1428571 0 0 1 -2.142857,-2.142857 2.1428571,2.1428571 0 0 1 2.142857,-2.142857 2.1428571,2.1428571 0 0 1 2.142857,2.142857 z"
           transform="translate(79.571114,421.28227)" />
        <path
           sodipodi:type="arc"
           style="fill:#000000;fill-opacity:1;stroke:none"
           id="path4576-55"
           sodipodi:cx="20.714285"
           sodipodi:cy="-25.622805"
           sodipodi:rx="2.1428571"
           sodipodi:ry="2.1428571"
           d="m 22.857142,-25.622805 a 2.1428571,2.1428571 0 0 1 -2.142857,2.142857 2.1428571,2.1428571 0 0 1 -2.142857,-2.142857 2.1428571,2.1428571 0 0 1 2.142857,-2.142857 2.1428571,2.1428571 0 0 1 2.142857,2.142857 z"
           transform="translate(88.142543,413.42513)" />
        <path
           sodipodi:type="arc"
           style="fill:#000000;fill-opacity:1;stroke:none"
           id="path4576-9"
           sodipodi:cx="20.714285"
           sodipodi:cy="-25.622805"
           sodipodi:rx="2.1428571"
           sodipodi:ry="2.1428571"
           d="m 22.857142,-25.622805 a 2.1428571,2.1428571 0 0 1 -2.142857,2.142857 2.1428571,2.1428571 0 0 1 -2.142857,-2.142857 2.1428571,2.1428571 0 0 1 2.142857,-2.142857 2.1428571,2.1428571 0 0 1 2.142857,2.142857 z"
           transform="translate(92.7854,404.13941)" />
        <path
           sodipodi:type="arc"
           style="fill:#000000;fill-opacity:1;stroke:none"
           id="path4576-1"
           sodipodi:cx="20.714285"
           sodipodi:cy="-25.622805"
           sodipodi:rx="2.1428571"
           sodipodi:ry="2.1428571"
           d="m 22.857142,-25.622805 a 2.1428571,2.1428571 0 0 1 -2.142857,2.142857 2.1428571,2.1428571 0 0 1 -2.142857,-2.142857 2.1428571,2.1428571 0 0 1 2.142857,-2.142857 2.1428571,2.1428571 0 0 1 2.142857,2.142857 z"
           transform="translate(86.548091,398.13111)" />
        <path
           sodipodi:type="arc"
           style="fill:#000000;fill-opacity:1;stroke:none"
           id="path4576-08"
           sodipodi:cx="20.714285"
           sodipodi:cy="-25.622805"
           sodipodi:rx="2.1428571"
           sodipodi:ry="2.1428571"
           d="m 22.857142,-25.622805 a 2.1428571,2.1428571 0 0 1 -2.142857,2.142857 2.1428571,2.1428571 0 0 1 -2.142857,-2.142857 2.1428571,2.1428571 0 0 1 2.142857,-2.142857 2.1428571,2.1428571 0 0 1 2.142857,2.142857 z"
           transform="translate(77.428257,400.21084)" />
        <path
           sodipodi:type="arc"
           style="fill:#000000;fill-opacity:1;stroke:none"
           id="path4576-4"
           sodipodi:cx="20.714285"
           sodipodi:cy="-25.622805"
           sodipodi:rx="2.1428571"
           sodipodi:ry="2.1428571"
           d="m 22.857142,-25.622805 a 2.1428571,2.1428571 0 0 1 -2.142857,2.142857 2.1428571,2.1428571 0 0 1 -2.142857,-2.142857 2.1428571,2.1428571 0 0 1 2.142857,-2.142857 2.1428571,2.1428571 0 0 1 2.142857,2.142857 z"
           transform="translate(70.2854,407.3537)" />
        <path
           sodipodi:type="arc"
           style="fill:#000000;fill-opacity:1;stroke:none"
           id="path4576-6"
           sodipodi:cx="20.714285"
           sodipodi:cy="-25.622805"
           sodipodi:rx="2.1428571"
           sodipodi:ry="2.1428571"
           d="m 22.857142,-25.622805 a 2.1428571,2.1428571 0 0 1 -2.142857,2.142857 2.1428571,2.1428571 0 0 1 -2.142857,-2.142857 2.1428571,2.1428571 0 0 1 2.142857,-2.142857 2.1428571,2.1428571 0 0 1 2.142857,2.142857 z"
           transform="translate(66.713971,416.63941)" />
        <path
           sodipodi:type="arc"
           style="fill:#000000;fill-opacity:1;stroke:none"
           id="path4576-61"
           sodipodi:cx="20.714285"
           sodipodi:cy="-25.622805"
           sodipodi:rx="2.1428571"
           sodipodi:ry="2.1428571"
           d="m 22.857142,-25.622805 a 2.1428571,2.1428571 0 0 1 -2.142857,2.142857 2.1428571,2.1428571 0 0 1 -2.142857,-2.142857 2.1428571,2.1428571 0 0 1 2.142857,-2.142857 2.1428571,2.1428571 0 0 1 2.142857,2.142857 z"
           transform="translate(74.298771,414.41362)" />
        <path
           sodipodi:type="arc"
           style="fill:#000000;fill-opacity:1;stroke:none"
           id="path4576-8"
           sodipodi:cx="20.714285"
           sodipodi:cy="-25.622805"
           sodipodi:rx="2.1428571"
           sodipodi:ry="2.1428571"
           d="m 22.857142,-25.622805 a 2.1428571,2.1428571 0 0 1 -2.142857,2.142857 2.1428571,2.1428571 0 0 1 -2.142857,-2.142857 2.1428571,2.1428571 0 0 1 2.142857,-2.142857 2.1428571,2.1428571 0 0 1 2.142857,2.142857 z"
           transform="translate(81.92504,407.16615)" />
        <path
           style="fill:none;stroke:#000000;stroke-width:1px;stroke-linecap:butt;stroke-linejoin:miter;stroke-opacity:1"
           d="m 104.74019,36.538363 2.65165,8.649432 10.03839,-4.293149 9.09138,-7.702413 5.05076,-9.659584 -6.7554,-5.808377 -9.72271,1.830902 -6.88167,7.007933 z"
           id="path4659"
           inkscape:connector-curvature="0"
           transform="translate(-17.571744,354.8537)" />
        <path
           style="fill:none;stroke:#000000;stroke-width:1px;stroke-linecap:butt;stroke-linejoin:miter;stroke-opacity:1"
           d="m 104.80333,36.222691 7.70241,-2.146574 7.44987,-7.197337 4.98763,-9.280777"
           id="path4661"
           inkscape:connector-curvature="0"
           transform="translate(-17.571744,354.8537)" />
        <path
           style="fill:none;stroke:#000000;stroke-width:1px;stroke-linecap:butt;stroke-linejoin:miter;stroke-opacity:1"
           d="m 117.74591,40.642108 -5.36644,-6.755395 14.39467,-0.631345 -6.94479,-6.565992 -11.36422,0.252538"
           id="path4663"
           inkscape:connector-curvature="0"
           transform="translate(-17.571744,354.8537)" />
        <path
           style="fill:none;stroke:#000000;stroke-width:1px;stroke-linecap:butt;stroke-linejoin:miter;stroke-opacity:1"
           d="m 107.70752,44.998391 4.92449,-10.985409 -4.10375,-7.323606"
           id="path4665"
           inkscape:connector-curvature="0"
           transform="translate(-17.571744,354.8537)" />
        <path
           style="fill:none;stroke:#000000;stroke-width:1px;stroke-linecap:butt;stroke-linejoin:miter;stroke-opacity:1"
           d="m 115.47306,19.618308 c 0.12627,0.315673 4.67196,7.007934 4.67196,7.007934 l 11.11168,-2.841054"
           id="path4667"
           inkscape:connector-curvature="0"
           transform="translate(-17.571744,354.8537)" />
      </g>
    </g>
  </g>
</svg>
