<?xml version="1.0" encoding="UTF-8" standalone="no"?>
<!-- Created with Inkscape (http://www.inkscape.org/) -->

<svg
   xmlns:dc="http://purl.org/dc/elements/1.1/"
   xmlns:cc="http://creativecommons.org/ns#"
   xmlns:rdf="http://www.w3.org/1999/02/22-rdf-syntax-ns#"
   xmlns:svg="http://www.w3.org/2000/svg"
   xmlns="http://www.w3.org/2000/svg"
   xmlns:sodipodi="http://sodipodi.sourceforge.net/DTD/sodipodi-0.dtd"
   xmlns:inkscape="http://www.inkscape.org/namespaces/inkscape"
   width="256.70557"
   height="250.86876"
   id="svg3141"
   version="1.1"
   inkscape:version="0.48.4 r9939"
   sodipodi:docname="particles-operators.svg"
   inkscape:export-filename="/home/chardon/Documents/Depot/gforge/star/v1_CGF2015/images/particles-operators.png"
   inkscape:export-xdpi="600"
   inkscape:export-ydpi="600">
  <defs
     id="defs3143">
    <marker
       inkscape:stockid="Arrow1Mend"
       orient="auto"
       refY="0"
       refX="0"
       id="Arrow1Mend"
       style="overflow:visible">
      <path
         id="path3856"
         d="M 0,0 5,-5 -12.5,0 5,5 0,0 z"
         style="fill-rule:evenodd;stroke:#000000;stroke-width:1pt"
         transform="matrix(-0.4,0,0,-0.4,-4,0)"
         inkscape:connector-curvature="0" />
    </marker>
    <marker
       inkscape:stockid="Arrow1Mend"
       orient="auto"
       refY="0"
       refX="0"
       id="marker3161"
       style="overflow:visible">
      <path
         id="path3163"
         d="M 0,0 5,-5 -12.5,0 5,5 0,0 z"
         style="fill-rule:evenodd;stroke:#000000;stroke-width:1pt"
         transform="matrix(-0.4,0,0,-0.4,-4,0)"
         inkscape:connector-curvature="0" />
    </marker>
    <marker
       inkscape:stockid="Arrow1Mend"
       orient="auto"
       refY="0"
       refX="0"
       id="Arrow1Mend-1"
       style="overflow:visible">
      <path
         id="path3856-9"
         d="M 0,0 5,-5 -12.5,0 5,5 0,0 z"
         style="fill-rule:evenodd;stroke:#000000;stroke-width:1pt"
         transform="matrix(-0.4,0,0,-0.4,-4,0)"
         inkscape:connector-curvature="0" />
    </marker>
    <marker
       inkscape:stockid="Arrow1Send"
       orient="auto"
       refY="0"
       refX="0"
       id="Arrow1Send"
       style="overflow:visible">
      <path
         id="path5031"
         d="M 0,0 5,-5 -12.5,0 5,5 0,0 z"
         style="fill-rule:evenodd;stroke:#000000;stroke-width:1pt"
         transform="matrix(-0.2,0,0,-0.2,-1.2,0)"
         inkscape:connector-curvature="0" />
    </marker>
  </defs>
  <sodipodi:namedview
     id="base"
     pagecolor="#ffffff"
     bordercolor="#666666"
     borderopacity="1.0"
     inkscape:pageopacity="1"
     inkscape:pageshadow="2"
     inkscape:zoom="1.979899"
     inkscape:cx="138.4338"
     inkscape:cy="89.577941"
     inkscape:document-units="px"
     inkscape:current-layer="layer1"
     showgrid="true"
     fit-margin-top="20"
     fit-margin-right="5"
     fit-margin-bottom="20"
     fit-margin-left="5"
     inkscape:window-width="1920"
     inkscape:window-height="1018"
     inkscape:window-x="0"
     inkscape:window-y="27"
     inkscape:window-maximized="1">
    <inkscape:grid
       type="xygrid"
       id="grid3019"
       empspacing="5"
       visible="true"
       enabled="true"
       snapvisiblegridlinesonly="true"
       originx="-15px"
       originy="21.515259px" />
  </sodipodi:namedview>
  <metadata
     id="metadata3146">
    <rdf:RDF>
      <cc:Work
         rdf:about="">
        <dc:format>image/svg+xml</dc:format>
        <dc:type
           rdf:resource="http://purl.org/dc/dcmitype/StillImage" />
        <dc:title />
      </cc:Work>
    </rdf:RDF>
  </metadata>
  <g
     inkscape:label="Calque 1"
     inkscape:groupmode="layer"
     id="layer1"
     transform="translate(-218.11859,-288.3997)">
    <path
       sodipodi:type="arc"
       style="opacity:0.80000000000000004;fill:#ffffff;fill-opacity:1;stroke:#000000;stroke-width:1;stroke-linecap:round;stroke-linejoin:round;stroke-miterlimit:4;stroke-opacity:1;stroke-dasharray:none;stroke-dashoffset:0"
       id="path2989"
       sodipodi:cx="115"
       sodipodi:cy="107.36218"
       sodipodi:rx="45"
       sodipodi:ry="45"
       d="m 160,107.36218 c 0,24.85282 -20.14719,45 -45,45 -24.852814,0 -45,-20.14718 -45,-45 0,-24.852811 20.147186,-44.999997 45,-44.999997 24.77502,0 44.88983,20.025925 44.99956,44.800697"
       sodipodi:start="0"
       sodipodi:end="6.2787564"
       sodipodi:open="true"
       transform="translate(153.61859,246.53752)" />
    <path
       sodipodi:type="arc"
       style="opacity:0.81000001;fill:#ffffff;fill-opacity:1;stroke:#000000;stroke-width:1;stroke-linecap:round;stroke-linejoin:round;stroke-miterlimit:4;stroke-opacity:1;stroke-dasharray:4, 4;stroke-dashoffset:0"
       id="path2989-5"
       sodipodi:cx="115"
       sodipodi:cy="107.36218"
       sodipodi:rx="45"
       sodipodi:ry="45"
       d="m 160,107.36218 a 45,45 0 1 1 -4.4e-4,-0.1993"
       sodipodi:start="0"
       sodipodi:end="6.2787564"
       sodipodi:open="true"
       transform="translate(309.32417,248.05276)" />
    <g
       id="g3046"
       transform="translate(320.43585,257.14413)"
       style="fill:#ffffff;fill-opacity:1">
      <path
         transform="translate(21.71828,-11.111677)"
         sodipodi:open="true"
         sodipodi:end="6.2787564"
         sodipodi:start="0"
         d="m 100,82.362183 c 0,5.522847 -4.477153,10 -10,10 -5.522847,0 -10,-4.477153 -10,-10 0,-5.522848 4.477153,-10 10,-10 5.505559,0 9.975518,4.450205 9.999902,9.955711"
         sodipodi:ry="10"
         sodipodi:rx="10"
         sodipodi:cy="82.362183"
         sodipodi:cx="90"
         id="path2991"
         style="opacity:0.80000000000000004;fill:#ffffff;fill-opacity:1;stroke:#000000;stroke-width:1;stroke-linecap:round;stroke-linejoin:round;stroke-miterlimit:4;stroke-opacity:1;stroke-dasharray:none;stroke-dashoffset:0"
         sodipodi:type="arc" />
      <path
         inkscape:transform-center-x="-5"
         sodipodi:open="true"
         sodipodi:end="6.2787564"
         sodipodi:start="0"
         d="m 100,82.362183 c 0,5.522847 -4.477153,10 -10,10 -5.522847,0 -10,-4.477153 -10,-10 0,-5.522848 4.477153,-10 10,-10 5.505559,0 9.975518,4.450205 9.999902,9.955711"
         sodipodi:ry="10"
         sodipodi:rx="10"
         sodipodi:cy="82.362183"
         sodipodi:cx="90"
         id="path2991-2"
         style="opacity:0.80000000000000004;fill:#ffffff;fill-opacity:1;stroke:#000000;stroke-width:1;stroke-linecap:round;stroke-linejoin:round;stroke-miterlimit:4;stroke-opacity:1;stroke-dasharray:none;stroke-dashoffset:0"
         sodipodi:type="arc"
         transform="translate(11.969543,14.444161)" />
      <path
         sodipodi:open="true"
         sodipodi:end="6.2787564"
         sodipodi:start="0"
         d="m 100,82.362183 c 0,5.522847 -4.477153,10 -10,10 -5.522847,0 -10,-4.477153 -10,-10 0,-5.522848 4.477153,-10 10,-10 5.505559,0 9.975518,4.450205 9.999902,9.955711"
         sodipodi:ry="10"
         sodipodi:rx="10"
         sodipodi:cy="82.362183"
         sodipodi:cx="90"
         id="path2991-6"
         style="opacity:0.80000000000000004;fill:#ffffff;fill-opacity:1;stroke:#000000;stroke-width:1;stroke-linecap:round;stroke-linejoin:round;stroke-miterlimit:4;stroke-opacity:1;stroke-dasharray:none;stroke-dashoffset:0"
         sodipodi:type="arc"
         transform="translate(40.95939,10.95939)" />
      <path
         sodipodi:open="true"
         sodipodi:end="6.2787564"
         sodipodi:start="0"
         d="m 100,82.362183 c 0,5.522847 -4.477153,10 -10,10 -5.522847,0 -10,-4.477153 -10,-10 0,-5.522848 4.477153,-10 10,-10 5.505559,0 9.975518,4.450205 9.999902,9.955711"
         sodipodi:ry="10"
         sodipodi:rx="10"
         sodipodi:cy="82.362183"
         sodipodi:cx="90"
         id="path2991-3"
         style="opacity:0.80000000000000004;fill:#ffffff;fill-opacity:1;stroke:#000000;stroke-width:1;stroke-linecap:round;stroke-linejoin:round;stroke-miterlimit:4;stroke-opacity:1;stroke-dasharray:none;stroke-dashoffset:0"
         sodipodi:type="arc"
         transform="translate(-13.939085,24.848988)" />
      <path
         sodipodi:open="true"
         sodipodi:end="6.2787564"
         sodipodi:start="0"
         d="m 100,82.362183 c 0,5.522847 -4.477153,10 -10,10 -5.522847,0 -10,-4.477153 -10,-10 0,-5.522848 4.477153,-10 10,-10 5.505559,0 9.975518,4.450205 9.999902,9.955711"
         sodipodi:ry="10"
         sodipodi:rx="10"
         sodipodi:cy="82.362183"
         sodipodi:cx="90"
         id="path2991-0"
         style="opacity:0.80000000000000004;fill:#ffffff;fill-opacity:1;stroke:#000000;stroke-width:1;stroke-linecap:round;stroke-linejoin:round;stroke-miterlimit:4;stroke-opacity:1;stroke-dasharray:none;stroke-dashoffset:0"
         sodipodi:type="arc"
         transform="translate(7.1713181,43.989847)" />
      <path
         sodipodi:open="true"
         sodipodi:end="6.2787564"
         sodipodi:start="0"
         d="m 100,82.362183 c 0,5.522847 -4.477153,10 -10,10 -5.522847,0 -10,-4.477153 -10,-10 0,-5.522848 4.477153,-10 10,-10 5.505559,0 9.975518,4.450205 9.999902,9.955711"
         sodipodi:ry="10"
         sodipodi:rx="10"
         sodipodi:cy="82.362183"
         sodipodi:cx="90"
         id="path2991-4"
         style="opacity:0.80000000000000004;fill:#ffffff;fill-opacity:1;stroke:#000000;stroke-width:1;stroke-linecap:round;stroke-linejoin:round;stroke-miterlimit:4;stroke-opacity:1;stroke-dasharray:none;stroke-dashoffset:0"
         sodipodi:type="arc"
         transform="translate(36.767767,36.717004)" />
      <path
         sodipodi:open="true"
         sodipodi:end="6.2787564"
         sodipodi:start="0"
         d="m 100,82.362183 c 0,5.522847 -4.477153,10 -10,10 -5.522847,0 -10,-4.477153 -10,-10 0,-5.522848 4.477153,-10 10,-10 5.505559,0 9.975518,4.450205 9.999902,9.955711"
         sodipodi:ry="10"
         sodipodi:rx="10"
         sodipodi:cy="82.362183"
         sodipodi:cx="90"
         id="path2991-8"
         style="opacity:0.80000000000000004;fill:#ffffff;fill-opacity:1;stroke:#000000;stroke-width:1;stroke-linecap:round;stroke-linejoin:round;stroke-miterlimit:4;stroke-opacity:1;stroke-dasharray:none;stroke-dashoffset:0"
         sodipodi:type="arc"
         transform="translate(-8.5355339,-3.4847712)" />
    </g>
    <path
       sodipodi:type="arc"
       style="opacity:0.80000000000000004;fill:#ffffff;fill-opacity:1;stroke:#000000;stroke-width:1;stroke-linecap:round;stroke-linejoin:round;stroke-miterlimit:4;stroke-opacity:1;stroke-dasharray:none;stroke-dashoffset:0"
       id="path2989-1"
       sodipodi:cx="115"
       sodipodi:cy="107.36218"
       sodipodi:rx="45"
       sodipodi:ry="45"
       d="m 160,107.36218 c 0,24.85282 -20.14719,45 -45,45 -24.852814,0 -45,-20.14718 -45,-45 0,-24.852811 20.147186,-44.999997 45,-44.999997 24.77502,0 44.88983,20.025925 44.99956,44.800697"
       sodipodi:start="0"
       sodipodi:end="6.2787564"
       sodipodi:open="true"
       transform="translate(306.37272,366.40628)" />
    <g
       transform="translate(159.73026,275.62891)"
       id="g4468"
       style="fill:#ffffff;fill-opacity:1">
      <path
         transform="translate(21.003996,87.459756)"
         sodipodi:open="true"
         sodipodi:end="6.2787564"
         sodipodi:start="0"
         d="m 100,82.362183 c 0,5.522847 -4.477153,10 -10,10 -5.522847,0 -10,-4.477153 -10,-10 0,-5.522848 4.477153,-10 10,-10 5.505559,0 9.975518,4.450205 9.999902,9.955711"
         sodipodi:ry="10"
         sodipodi:rx="10"
         sodipodi:cy="82.362183"
         sodipodi:cx="90"
         id="path2991-1"
         style="opacity:0.80000000000000004;fill:#ffffff;fill-opacity:1;stroke:#000000;stroke-width:1;stroke-linecap:round;stroke-linejoin:round;stroke-miterlimit:4;stroke-opacity:1;stroke-dasharray:none;stroke-dashoffset:0"
         sodipodi:type="arc" />
      <path
         inkscape:transform-center-x="-5"
         sodipodi:open="true"
         sodipodi:end="6.2787564"
         sodipodi:start="0"
         d="m 100,82.362183 c 0,5.522847 -4.477153,10 -10,10 -5.522847,0 -10,-4.477153 -10,-10 0,-5.522848 4.477153,-10 10,-10 5.505559,0 9.975518,4.450205 9.999902,9.955711"
         sodipodi:ry="10"
         sodipodi:rx="10"
         sodipodi:cy="82.362183"
         sodipodi:cx="90"
         id="path2991-2-0"
         style="opacity:0.80000000000000004;fill:#ffffff;fill-opacity:1;stroke:#000000;stroke-width:1;stroke-linecap:round;stroke-linejoin:round;stroke-miterlimit:4;stroke-opacity:1;stroke-dasharray:none;stroke-dashoffset:0"
         sodipodi:type="arc"
         transform="translate(11.255259,113.01559)" />
      <path
         sodipodi:open="true"
         sodipodi:end="6.2787564"
         sodipodi:start="0"
         d="m 100,82.362183 c 0,5.522847 -4.477153,10 -10,10 -5.522847,0 -10,-4.477153 -10,-10 0,-5.522848 4.477153,-10 10,-10 5.505559,0 9.975518,4.450205 9.999902,9.955711"
         sodipodi:ry="10"
         sodipodi:rx="10"
         sodipodi:cy="82.362183"
         sodipodi:cx="90"
         id="path2991-6-8"
         style="opacity:0.80000000000000004;fill:#ffffff;fill-opacity:1;stroke:#000000;stroke-width:1;stroke-linecap:round;stroke-linejoin:round;stroke-miterlimit:4;stroke-opacity:1;stroke-dasharray:none;stroke-dashoffset:0"
         sodipodi:type="arc"
         transform="translate(40.245106,109.53082)" />
      <path
         sodipodi:open="true"
         sodipodi:end="6.2787564"
         sodipodi:start="0"
         d="m 100,82.362183 c 0,5.522847 -4.477153,10 -10,10 -5.522847,0 -10,-4.477153 -10,-10 0,-5.522848 4.477153,-10 10,-10 5.505559,0 9.975518,4.450205 9.999902,9.955711"
         sodipodi:ry="10"
         sodipodi:rx="10"
         sodipodi:cy="82.362183"
         sodipodi:cx="90"
         id="path2991-3-5"
         style="opacity:0.80000000000000004;fill:#ffffff;fill-opacity:1;stroke:#000000;stroke-width:1;stroke-linecap:round;stroke-linejoin:round;stroke-miterlimit:4;stroke-opacity:1;stroke-dasharray:none;stroke-dashoffset:0"
         sodipodi:type="arc"
         transform="translate(-14.653369,123.42042)" />
      <path
         sodipodi:open="true"
         sodipodi:end="6.2787564"
         sodipodi:start="0"
         d="m 100,82.362183 c 0,5.522847 -4.477153,10 -10,10 -5.522847,0 -10,-4.477153 -10,-10 0,-5.522848 4.477153,-10 10,-10 5.505559,0 9.975518,4.450205 9.999902,9.955711"
         sodipodi:ry="10"
         sodipodi:rx="10"
         sodipodi:cy="82.362183"
         sodipodi:cx="90"
         id="path2991-0-8"
         style="opacity:0.80000000000000004;fill:#ffffff;fill-opacity:1;stroke:#000000;stroke-width:1;stroke-linecap:round;stroke-linejoin:round;stroke-miterlimit:4;stroke-opacity:1;stroke-dasharray:none;stroke-dashoffset:0"
         sodipodi:type="arc"
         transform="translate(6.4570336,142.56128)" />
      <path
         sodipodi:open="true"
         sodipodi:end="6.2787564"
         sodipodi:start="0"
         d="m 100,82.362183 c 0,5.522847 -4.477153,10 -10,10 -5.522847,0 -10,-4.477153 -10,-10 0,-5.522848 4.477153,-10 10,-10 5.505559,0 9.975518,4.450205 9.999902,9.955711"
         sodipodi:ry="10"
         sodipodi:rx="10"
         sodipodi:cy="82.362183"
         sodipodi:cx="90"
         id="path2991-4-3"
         style="opacity:0.80000000000000004;fill:#ffffff;fill-opacity:1;stroke:#000000;stroke-width:1;stroke-linecap:round;stroke-linejoin:round;stroke-miterlimit:4;stroke-opacity:1;stroke-dasharray:none;stroke-dashoffset:0"
         sodipodi:type="arc"
         transform="translate(36.053483,135.28844)" />
      <path
         sodipodi:open="true"
         sodipodi:end="6.2787564"
         sodipodi:start="0"
         d="m 100,82.362183 c 0,5.522847 -4.477153,10 -10,10 -5.522847,0 -10,-4.477153 -10,-10 0,-5.522848 4.477153,-10 10,-10 5.505559,0 9.975518,4.450205 9.999902,9.955711"
         sodipodi:ry="10"
         sodipodi:rx="10"
         sodipodi:cy="82.362183"
         sodipodi:cx="90"
         id="path2991-8-9"
         style="opacity:0.80000000000000004;fill:#ffffff;fill-opacity:1;stroke:#000000;stroke-width:1;stroke-linecap:round;stroke-linejoin:round;stroke-miterlimit:4;stroke-opacity:1;stroke-dasharray:none;stroke-dashoffset:0"
         sodipodi:type="arc"
         transform="translate(-9.2498184,95.086662)" />
    </g>
    <path
       style="fill:#000000;fill-opacity:0;stroke:#000000;stroke-width:1px;stroke-linecap:butt;stroke-linejoin:miter;stroke-opacity:1;marker-end:url(#Arrow1Mend)"
       d="m 318.3017,473.70539 39.81689,-0.95216"
       id="path3841-3"
       inkscape:connector-curvature="0"
       sodipodi:nodetypes="cc" />
    <path
       sodipodi:type="arc"
       style="opacity:0.80000000000000004;fill:#ffffff;fill-opacity:1;stroke:#000000;stroke-width:1;stroke-linecap:round;stroke-linejoin:round;stroke-miterlimit:4;stroke-opacity:1;stroke-dasharray:4, 4;stroke-dashoffset:0"
       id="path2991-1-1"
       sodipodi:cx="90"
       sodipodi:cy="82.362183"
       sodipodi:rx="10"
       sodipodi:ry="10"
       d="m 100,82.362183 c 0,5.522847 -4.477153,10 -10,10 -5.522847,0 -10,-4.477153 -10,-10 0,-5.522848 4.477153,-10 10,-10 5.505559,0 9.975518,4.450205 9.999902,9.955711"
       sodipodi:start="0"
       sodipodi:end="6.2787564"
       sodipodi:open="true"
       transform="translate(338.55913,362.68512)" />
    <path
       transform="translate(328.81039,388.24096)"
       sodipodi:type="arc"
       style="opacity:0.80000000000000004;fill:#ffffff;fill-opacity:1;stroke:#000000;stroke-width:1;stroke-linecap:round;stroke-linejoin:round;stroke-miterlimit:4;stroke-opacity:1;stroke-dasharray:4, 4;stroke-dashoffset:0"
       id="path2991-2-0-8"
       sodipodi:cx="90"
       sodipodi:cy="82.362183"
       sodipodi:rx="10"
       sodipodi:ry="10"
       d="m 100,82.362183 c 0,5.522847 -4.477153,10 -10,10 -5.522847,0 -10,-4.477153 -10,-10 0,-5.522848 4.477153,-10 10,-10 5.505559,0 9.975518,4.450205 9.999902,9.955711"
       sodipodi:start="0"
       sodipodi:end="6.2787564"
       sodipodi:open="true"
       inkscape:transform-center-x="-5" />
    <path
       transform="translate(357.80024,384.75619)"
       sodipodi:type="arc"
       style="opacity:0.80000000000000004;fill:#ffffff;fill-opacity:1;stroke:#000000;stroke-width:1;stroke-linecap:round;stroke-linejoin:round;stroke-miterlimit:4;stroke-opacity:1;stroke-dasharray:4, 4;stroke-dashoffset:0"
       id="path2991-6-8-1"
       sodipodi:cx="90"
       sodipodi:cy="82.362183"
       sodipodi:rx="10"
       sodipodi:ry="10"
       d="m 100,82.362183 c 0,5.522847 -4.477153,10 -10,10 -5.522847,0 -10,-4.477153 -10,-10 0,-5.522848 4.477153,-10 10,-10 5.505559,0 9.975518,4.450205 9.999902,9.955711"
       sodipodi:start="0"
       sodipodi:end="6.2787564"
       sodipodi:open="true" />
    <path
       transform="translate(302.90176,398.64579)"
       sodipodi:type="arc"
       style="opacity:0.80000000000000004;fill:#ffffff;fill-opacity:1;stroke:#000000;stroke-width:1;stroke-linecap:round;stroke-linejoin:round;stroke-miterlimit:4;stroke-opacity:1;stroke-dasharray:4, 4;stroke-dashoffset:0"
       id="path2991-3-5-2"
       sodipodi:cx="90"
       sodipodi:cy="82.362183"
       sodipodi:rx="10"
       sodipodi:ry="10"
       d="m 100,82.362183 c 0,5.522847 -4.477153,10 -10,10 -5.522847,0 -10,-4.477153 -10,-10 0,-5.522848 4.477153,-10 10,-10 5.505559,0 9.975518,4.450205 9.999902,9.955711"
       sodipodi:start="0"
       sodipodi:end="6.2787564"
       sodipodi:open="true" />
    <path
       transform="translate(324.01217,417.78664)"
       sodipodi:type="arc"
       style="opacity:0.80000000000000004;fill:#ffffff;fill-opacity:1;stroke:#000000;stroke-width:1;stroke-linecap:round;stroke-linejoin:round;stroke-miterlimit:4;stroke-opacity:1;stroke-dasharray:4, 4;stroke-dashoffset:0"
       id="path2991-0-8-7"
       sodipodi:cx="90"
       sodipodi:cy="82.362183"
       sodipodi:rx="10"
       sodipodi:ry="10"
       d="m 100,82.362183 c 0,5.522847 -4.477153,10 -10,10 -5.522847,0 -10,-4.477153 -10,-10 0,-5.522848 4.477153,-10 10,-10 5.505559,0 9.975518,4.450205 9.999902,9.955711"
       sodipodi:start="0"
       sodipodi:end="6.2787564"
       sodipodi:open="true" />
    <path
       transform="translate(353.60862,410.5138)"
       sodipodi:type="arc"
       style="opacity:0.80000000000000004;fill:#ffffff;fill-opacity:1;stroke:#000000;stroke-width:1;stroke-linecap:round;stroke-linejoin:round;stroke-miterlimit:4;stroke-opacity:1;stroke-dasharray:4, 4;stroke-dashoffset:0"
       id="path2991-4-3-3"
       sodipodi:cx="90"
       sodipodi:cy="82.362183"
       sodipodi:rx="10"
       sodipodi:ry="10"
       d="m 100,82.362183 c 0,5.522847 -4.477153,10 -10,10 -5.522847,0 -10,-4.477153 -10,-10 0,-5.522848 4.477153,-10 10,-10 5.505559,0 9.975518,4.450205 9.999902,9.955711"
       sodipodi:start="0"
       sodipodi:end="6.2787564"
       sodipodi:open="true" />
    <path
       transform="translate(308.30532,370.31202)"
       sodipodi:type="arc"
       style="opacity:0.80000000000000004;fill:#ffffff;fill-opacity:1;stroke:#000000;stroke-width:1;stroke-linecap:round;stroke-linejoin:round;stroke-miterlimit:4;stroke-opacity:1;stroke-dasharray:4, 4;stroke-dashoffset:0"
       id="path2991-8-9-2"
       sodipodi:cx="90"
       sodipodi:cy="82.362183"
       sodipodi:rx="10"
       sodipodi:ry="10"
       d="m 100,82.362183 c 0,5.522847 -4.477153,10 -10,10 -5.522847,0 -10,-4.477153 -10,-10 0,-5.522848 4.477153,-10 10,-10 5.505559,0 9.975518,4.450205 9.999902,9.955711"
       sodipodi:start="0"
       sodipodi:end="6.2787564"
       sodipodi:open="true" />
    <text
       xml:space="preserve"
       style="font-size:40px;font-style:normal;font-weight:normal;line-height:125%;letter-spacing:0px;word-spacing:0px;fill:#000000;fill-opacity:1;stroke:none;font-family:Sans"
       x="318.11859"
       y="337.7532"
       id="text4414"
       sodipodi:linespacing="125%"><tspan
         sodipodi:role="line"
         id="tspan4416"
         x="318.11859"
         y="337.7532"
         style="font-size:12px;fill:#000000;fill-opacity:1">splitting</tspan></text>
    <text
       xml:space="preserve"
       style="font-size:40px;font-style:normal;font-weight:normal;line-height:125%;letter-spacing:0px;word-spacing:0px;fill:#000000;fill-opacity:1;stroke:none;font-family:Sans"
       x="308.11859"
       y="457.7532"
       id="text4414-6"
       sodipodi:linespacing="125%"><tspan
         sodipodi:role="line"
         id="tspan4416-4"
         x="308.11859"
         y="457.7532"
         style="font-size:12px;fill:#000000;fill-opacity:1">coalescing</tspan><tspan
         sodipodi:role="line"
         x="308.11859"
         y="472.7532"
         style="font-size:12px;fill:#000000;fill-opacity:1"
         id="tspan4439" /></text>
    <path
       style="fill:#000000;fill-opacity:0;stroke:#000000;stroke-width:1px;stroke-linecap:butt;stroke-linejoin:miter;stroke-opacity:1;marker-end:url(#Arrow1Mend)"
       d="m 323.3017,352.99109 39.81689,-0.95216"
       id="path3841-3-8"
       inkscape:connector-curvature="0"
       sodipodi:nodetypes="cc" />
  </g>
</svg>
