<?xml version="1.0" encoding="UTF-8" standalone="no"?>
<!-- Created with Inkscape (http://www.inkscape.org/) -->

<svg
   xmlns:dc="http://purl.org/dc/elements/1.1/"
   xmlns:cc="http://creativecommons.org/ns#"
   xmlns:rdf="http://www.w3.org/1999/02/22-rdf-syntax-ns#"
   xmlns:svg="http://www.w3.org/2000/svg"
   xmlns="http://www.w3.org/2000/svg"
   xmlns:sodipodi="http://sodipodi.sourceforge.net/DTD/sodipodi-0.dtd"
   xmlns:inkscape="http://www.inkscape.org/namespaces/inkscape"
   width="61"
   height="61"
   id="svg4462"
   version="1.1"
   inkscape:version="0.91 r13725"
   sodipodi:docname="buildSF_2.svg">
  <defs
     id="defs4464">
    <marker
       inkscape:stockid="Arrow1Send"
       orient="auto"
       refY="0"
       refX="0"
       id="Arrow1Send"
       style="overflow:visible">
      <path
         id="path5581"
         d="M 0,0 5,-5 -12.5,0 5,5 0,0 z"
         style="fill-rule:evenodd;stroke:#000000;stroke-width:1pt"
         transform="matrix(-0.2,0,0,-0.2,-1.2,0)"
         inkscape:connector-curvature="0" />
    </marker>
  </defs>
  <sodipodi:namedview
     id="base"
     pagecolor="#ffffff"
     bordercolor="#666666"
     borderopacity="1.0"
     inkscape:pageopacity="1"
     inkscape:pageshadow="2"
     inkscape:zoom="8"
     inkscape:cx="41.50446"
     inkscape:cy="8.2629532"
     inkscape:document-units="px"
     inkscape:current-layer="layer1"
     showgrid="false"
     fit-margin-top="0"
     fit-margin-left="0"
     fit-margin-right="0"
     fit-margin-bottom="0"
     inkscape:window-width="838"
     inkscape:window-height="983"
     inkscape:window-x="0"
     inkscape:window-y="27"
     inkscape:window-maximized="0" />
  <metadata
     id="metadata4467">
    <rdf:RDF>
      <cc:Work
         rdf:about="">
        <dc:format>image/svg+xml</dc:format>
        <dc:type
           rdf:resource="http://purl.org/dc/dcmitype/StillImage" />
        <dc:title />
      </cc:Work>
    </rdf:RDF>
  </metadata>
  <g
     inkscape:label="Calque 1"
     inkscape:groupmode="layer"
     id="layer1"
     transform="translate(-317.33422,-438.70922)">
    <path
       style="fill:#00ac49;fill-opacity:1;stroke:#000000;stroke-width:1;stroke-linecap:butt;stroke-linejoin:miter;stroke-miterlimit:4;stroke-opacity:1;stroke-dasharray:none"
       d="m 360.91104,475.56988 16.92317,-6.22765 -2.2e-4,29.86699 -8.92496,0 -11.59271,0 0.74844,-18.78098 z"
       id="path4859-3-0"
       inkscape:connector-curvature="0"
       sodipodi:nodetypes="ccccccc" />
    <path
       style="fill:#ccbd00;fill-opacity:1;stroke:#000000;stroke-width:1px;stroke-linecap:butt;stroke-linejoin:miter;stroke-opacity:1"
       d="m 333.09751,475.81179 12.43572,2.1017 12.61107,2.1354 -0.84985,19.16033 -39.46023,0 0,-17.58535 z"
       id="path4859-6"
       inkscape:connector-curvature="0"
       sodipodi:nodetypes="ccccccc" />
    <path
       style="fill:#db0031;fill-opacity:1;stroke:#000000;stroke-width:1px;stroke-linecap:butt;stroke-linejoin:miter;stroke-opacity:1"
       d="m 333.50991,475.3979 -15.67569,5.73209 0,-41.92077 11.01073,0 20.05461,0 0.0979,17.21588 z"
       id="path4859-3-3-6-8"
       inkscape:connector-curvature="0"
       sodipodi:nodetypes="ccccccc" />
    <path
       style="fill:#009abb;fill-opacity:1;stroke:#000000;stroke-width:1px;stroke-linecap:butt;stroke-linejoin:miter;stroke-opacity:1"
       d="m 360.69638,475.82204 17.13784,-6.38416 0,-30.22866 -9.86162,0 -19.11456,0 0.31994,17.43107 z"
       id="path4859-3-3-7"
       inkscape:connector-curvature="0"
       sodipodi:nodetypes="ccccccc" />
    <path
       sodipodi:type="arc"
       style="fill:#0069d2;fill-opacity:1;stroke:none"
       id="path3314-7"
       sodipodi:cx="26.572927"
       sodipodi:cy="15.641617"
       sodipodi:rx="1.9726628"
       sodipodi:ry="1.9726628"
       d="m 28.54559,15.641617 a 1.9726628,1.9726628 0 0 1 -1.972663,1.972663 1.9726628,1.9726628 0 0 1 -1.972662,-1.972663 1.9726628,1.9726628 0 0 1 1.972662,-1.972663 1.9726628,1.9726628 0 0 1 1.972663,1.972663 z"
       transform="translate(335.22718,445.92927)" />
    <path
       sodipodi:type="arc"
       style="fill:#0069d2;fill-opacity:1;stroke:none"
       id="path3314-6"
       sodipodi:cx="26.572927"
       sodipodi:cy="15.641617"
       sodipodi:rx="1.9726628"
       sodipodi:ry="1.9726628"
       d="m 28.54559,15.641617 a 1.9726628,1.9726628 0 0 1 -1.972663,1.972663 1.9726628,1.9726628 0 0 1 -1.972662,-1.972663 1.9726628,1.9726628 0 0 1 1.972662,-1.972663 1.9726628,1.9726628 0 0 1 1.972663,1.972663 z"
       transform="translate(309.79473,444.30473)" />
    <path
       sodipodi:type="arc"
       style="fill:#0069d2;fill-opacity:1;stroke:none"
       id="path3314-4"
       sodipodi:cx="26.572927"
       sodipodi:cy="15.641617"
       sodipodi:rx="1.9726628"
       sodipodi:ry="1.9726628"
       d="m 28.54559,15.641617 a 1.9726628,1.9726628 0 0 1 -1.972663,1.972663 1.9726628,1.9726628 0 0 1 -1.972662,-1.972663 1.9726628,1.9726628 0 0 1 1.972662,-1.972663 1.9726628,1.9726628 0 0 1 1.972663,1.972663 z"
       transform="translate(319.42597,468.3447)" />
    <path
       style="fill:#00b092;fill-opacity:1;stroke:#c10000;stroke-width:1.10000002;stroke-linecap:butt;stroke-linejoin:miter;stroke-miterlimit:4;stroke-opacity:1;stroke-dasharray:none"
       d="m 360.71294,475.89826 -2.25743,4.21958 -25.28599,-4.28818 15.85516,-19.41561 z"
       id="path3355"
       inkscape:connector-curvature="0"
       sodipodi:nodetypes="ccccc" />
    <text
       xml:space="preserve"
       style="font-size:10px;font-style:normal;font-variant:normal;font-weight:500;font-stretch:normal;line-height:125%;letter-spacing:0px;word-spacing:0px;fill:#000000;fill-opacity:1;stroke:none;font-family:CMU Sans Serif;-inkscape-font-specification:CMU Sans Serif Medium"
       x="331.76743"
       y="469.21011"
       id="text4303-2"
       sodipodi:linespacing="125%"><tspan
         sodipodi:role="line"
         id="tspan4305-2"
         x="331.76743"
         y="469.21011"
         style="font-size:5px">V<tspan
   style="font-size:65.00091553%;baseline-shift:sub"
   id="tspan4333">b</tspan></tspan></text>
    <text
       xml:space="preserve"
       style="font-size:10px;font-style:normal;font-variant:normal;font-weight:500;font-stretch:normal;line-height:125%;letter-spacing:0px;word-spacing:0px;fill:#000000;fill-opacity:1;stroke:none;font-family:CMU Sans Serif;-inkscape-font-specification:CMU Sans Serif Medium"
       x="346.09082"
       y="466.40378"
       id="text4303-2-3"
       sodipodi:linespacing="125%"><tspan
         sodipodi:role="line"
         id="tspan4305-2-6"
         x="346.09082"
         y="466.40378"
         style="font-size:5px">V<tspan
   style="font-size:65.00091553%;baseline-shift:sub"
   id="tspan4359">i</tspan></tspan></text>
    <text
       xml:space="preserve"
       style="font-style:normal;font-variant:normal;font-weight:500;font-stretch:normal;font-size:10px;line-height:125%;font-family:'CMU Sans Serif';-inkscape-font-specification:'CMU Sans Serif Medium';letter-spacing:0px;word-spacing:0px;fill:#000000;fill-opacity:1;stroke:none"
       x="366.86005"
       y="448.03464"
       id="text4303-2-2"
       sodipodi:linespacing="125%"><tspan
         sodipodi:role="line"
         id="tspan4305-2-1"
         x="366.86005"
         y="448.03464"
         style="font-size:5px">V<tspan
   style="font-size:65%;baseline-shift:sub"
   id="tspan3361">e</tspan></tspan></text>
    <text
       xml:space="preserve"
       style="font-size:10px;font-style:normal;font-variant:normal;font-weight:500;font-stretch:normal;line-height:125%;letter-spacing:0px;word-spacing:0px;fill:#000000;fill-opacity:1;stroke:none;font-family:CMU Sans Serif;-inkscape-font-specification:CMU Sans Serif Medium"
       x="343.43329"
       y="473.29227"
       id="text3026"
       sodipodi:linespacing="125%"><tspan
         sodipodi:role="line"
         id="tspan3028"
         x="343.43329"
         y="473.29227"
         style="font-size:5px">i</tspan></text>
    <path
       style="fill:none;stroke:#000000;stroke-width:1px;stroke-linecap:butt;stroke-linejoin:miter;stroke-opacity:1"
       d="m 347.80598,470.41722 23.79507,15.26167"
       id="path4297-9"
       inkscape:connector-curvature="0" />
    <text
       xml:space="preserve"
       style="font-size:10px;font-style:normal;font-variant:normal;font-weight:500;font-stretch:normal;line-height:125%;letter-spacing:0px;word-spacing:0px;fill:#000000;fill-opacity:1;stroke:none;font-family:CMU Sans Serif;-inkscape-font-specification:CMU Sans Serif Medium"
       x="361.79166"
       y="478.62454"
       id="text4303"
       sodipodi:linespacing="125%"><tspan
         sodipodi:role="line"
         id="tspan4305"
         x="361.79166"
         y="478.62454"
         style="font-size:4px">2d<tspan
   style="font-size:4px;baseline-shift:sub"
   id="tspan4307">max</tspan></tspan></text>
    <path
       sodipodi:type="arc"
       style="fill:#0069d2;fill-opacity:1;stroke:none"
       id="path3314"
       sodipodi:cx="26.572927"
       sodipodi:cy="15.641617"
       sodipodi:rx="1.9726628"
       sodipodi:ry="1.9726628"
       d="m 28.54559,15.641617 a 1.9726628,1.9726628 0 0 1 -1.972663,1.972663 1.9726628,1.9726628 0 0 1 -1.972662,-1.972663 1.9726628,1.9726628 0 0 1 1.972662,-1.972663 1.9726628,1.9726628 0 0 1 1.972663,1.972663 z"
       transform="translate(320.81844,454.46809)" />
    <path
       sodipodi:type="arc"
       style="fill:none;stroke:#000000;stroke-width:1;stroke-linecap:round;stroke-linejoin:round;stroke-miterlimit:4;stroke-opacity:1;stroke-dasharray:none;stroke-dashoffset:0"
       id="path4361"
       sodipodi:cx="43.337036"
       sodipodi:cy="34.097637"
       sodipodi:rx="29.087629"
       sodipodi:ry="29.087629"
       d="M 72.424665,34.097637 A 29.087629,29.087629 0 0 1 43.337036,63.185266 29.087629,29.087629 0 0 1 14.249407,34.097637 29.087629,29.087629 0 0 1 43.337036,5.0100079 29.087629,29.087629 0 0 1 72.424665,34.097637 Z"
       transform="matrix(0.95020844,0,0,0.95020844,306.27619,437.44071)" />
    <path
       sodipodi:type="arc"
       style="fill:#0069d2;fill-opacity:1;stroke:none"
       id="path3314-1"
       sodipodi:cx="26.572927"
       sodipodi:cy="15.641617"
       sodipodi:rx="1.9726628"
       sodipodi:ry="1.9726628"
       d="m 28.54559,15.641617 a 1.9726628,1.9726628 0 0 1 -1.972663,1.972663 1.9726628,1.9726628 0 0 1 -1.972662,-1.972663 1.9726628,1.9726628 0 0 1 1.972662,-1.972663 1.9726628,1.9726628 0 0 1 1.972663,1.972663 z"
       transform="translate(343.87167,469.41513)" />
  </g>
</svg>
