<?xml version="1.0" encoding="UTF-8" standalone="no"?>
<!-- Created with Inkscape (http://www.inkscape.org/) -->

<svg
   xmlns:dc="http://purl.org/dc/elements/1.1/"
   xmlns:cc="http://creativecommons.org/ns#"
   xmlns:rdf="http://www.w3.org/1999/02/22-rdf-syntax-ns#"
   xmlns:svg="http://www.w3.org/2000/svg"
   xmlns="http://www.w3.org/2000/svg"
   xmlns:sodipodi="http://sodipodi.sourceforge.net/DTD/sodipodi-0.dtd"
   xmlns:inkscape="http://www.inkscape.org/namespaces/inkscape"
   width="94.948891mm"
   height="94.969391mm"
   viewBox="0 0 336.43308 336.50571"
   id="svg4568"
   version="1.1"
   inkscape:version="0.48.4 r9939"
   sodipodi:docname="incremental.svg">
  <sodipodi:namedview
     id="base"
     pagecolor="#ffffff"
     bordercolor="#666666"
     borderopacity="1.0"
     inkscape:pageopacity="1"
     inkscape:pageshadow="2"
     inkscape:zoom="3.959798"
     inkscape:cx="51.151926"
     inkscape:cy="167.90916"
     inkscape:document-units="px"
     inkscape:current-layer="layer1"
     showgrid="false"
     fit-margin-top="5"
     fit-margin-left="5"
     fit-margin-right="5"
     fit-margin-bottom="5"
     inkscape:window-width="1855"
     inkscape:window-height="1056"
     inkscape:window-x="65"
     inkscape:window-y="24"
     inkscape:window-maximized="1" />
  <defs
     id="defs4570">
    <marker
       style="overflow:visible;"
       id="Arrow1Send"
       refX="0.0"
       refY="0.0"
       orient="auto"
       inkscape:stockid="Arrow1Send">
      <path
         transform="scale(0.2) rotate(180) translate(6,0)"
         style="fill-rule:evenodd;stroke:#000000;stroke-width:1.0pt;"
         d="M 0.0,0.0 L 5.0,-5.0 L -12.5,0.0 L 5.0,5.0 L 0.0,0.0 z "
         id="path3820" />
    </marker>
    <marker
       style="overflow:visible;"
       id="Arrow1Mend"
       refX="0.0"
       refY="0.0"
       orient="auto"
       inkscape:stockid="Arrow1Mend">
      <path
         transform="scale(0.4) rotate(180) translate(10,0)"
         style="fill-rule:evenodd;stroke:#000000;stroke-width:1.0pt;"
         d="M 0.0,0.0 L 5.0,-5.0 L -12.5,0.0 L 5.0,5.0 L 0.0,0.0 z "
         id="path3814" />
    </marker>
    <marker
       style="overflow:visible;"
       id="Arrow1Send8"
       refX="0.0"
       refY="0.0"
       orient="auto"
       inkscape:stockid="Arrow1Send8">
      <path
         transform="scale(0.2) rotate(180) translate(6,0)"
         style="stroke:#ff0000;stroke-width:1.0pt;fill:#ff0000;fill-rule:evenodd"
         d="M 0.0,0.0 L 5.0,-5.0 L -12.5,0.0 L 5.0,5.0 L 0.0,0.0 z "
         id="path4438" />
    </marker>
  </defs>
  <metadata
     id="metadata4573">
    <rdf:RDF>
      <cc:Work
         rdf:about="">
        <dc:format>image/svg+xml</dc:format>
        <dc:type
           rdf:resource="http://purl.org/dc/dcmitype/StillImage" />
        <dc:title />
      </cc:Work>
    </rdf:RDF>
  </metadata>
  <g
     transform="translate(-114.64061,-235.53792)"
     id="layer1"
     inkscape:groupmode="layer"
     inkscape:label="Calque 1">
    <g
       transform="matrix(0.73412119,0,0,0.73412119,-48.23082,14.487315)"
       id="g3405-7-8"
       style="display:inline">
      <path
         style="fill:none;stroke:#000000;stroke-width:1px;stroke-linecap:butt;stroke-linejoin:miter;stroke-opacity:1"
         d="m 246.5,325.36218 0.004,409.96054"
         id="path3050-29-3"
         inkscape:connector-curvature="0"
         sodipodi:nodetypes="cc" />
      <path
         style="fill:none;stroke:#000000;stroke-width:1px;stroke-linecap:butt;stroke-linejoin:miter;stroke-opacity:1"
         d="m 297.5,325.36218 0,409.96843"
         id="path3050-3-8-0"
         inkscape:connector-curvature="0"
         sodipodi:nodetypes="cc" />
      <path
         style="fill:none;stroke:#000000;stroke-width:1px;stroke-linecap:butt;stroke-linejoin:miter;stroke-opacity:1"
         d="m 348.5,325.36218 0,409.93371"
         id="path3050-35-4-8"
         inkscape:connector-curvature="0"
         sodipodi:nodetypes="cc" />
      <path
         style="fill:none;stroke:#000000;stroke-width:1px;stroke-linecap:butt;stroke-linejoin:miter;stroke-opacity:1"
         d="m 399.5,325.36218 0,409.89063"
         id="path3050-3-1-5-0"
         inkscape:connector-curvature="0"
         sodipodi:nodetypes="cc" />
      <path
         style="fill:none;stroke:#000000;stroke-width:1px;stroke-linecap:butt;stroke-linejoin:miter;stroke-opacity:1"
         d="m 450.5,325.36218 0.004,409.9375"
         id="path3050-2-3-6"
         inkscape:connector-curvature="0"
         sodipodi:nodetypes="cc" />
      <path
         style="fill:none;stroke:#000000;stroke-width:1px;stroke-linecap:butt;stroke-linejoin:miter;stroke-opacity:1"
         d="m 501.5,325.36218 0,409.97656"
         id="path3050-3-7-8-8"
         inkscape:connector-curvature="0"
         sodipodi:nodetypes="cc" />
      <path
         style="fill:none;stroke:#000000;stroke-width:1px;stroke-linecap:butt;stroke-linejoin:miter;stroke-opacity:1"
         d="m 552.5,325.36218 0,409.9"
         id="path3050-35-3-6-2"
         inkscape:connector-curvature="0"
         sodipodi:nodetypes="cc" />
      <path
         style="fill:none;stroke:#000000;stroke-width:1px;stroke-linecap:butt;stroke-linejoin:miter;stroke-opacity:1"
         d="m 603.5,325.36218 0,409.9"
         id="path3050-3-1-7-69-9"
         inkscape:connector-curvature="0"
         sodipodi:nodetypes="cc" />
      <path
         style="fill:none;stroke:#000000;stroke-width:1px;stroke-linecap:butt;stroke-linejoin:miter;stroke-opacity:1"
         d="m 655.5,325.36218 0,409.99"
         id="path3050-3-1-7-4-3-7"
         inkscape:connector-curvature="0"
         sodipodi:nodetypes="cc" />
      <path
         style="fill:none;stroke:#000000;stroke-width:1px;stroke-linecap:butt;stroke-linejoin:miter;stroke-opacity:1"
         d="m 246.00606,325.83908 410,0.0161"
         id="path3050-1-4-0"
         inkscape:connector-curvature="0"
         sodipodi:nodetypes="cc" />
      <path
         style="fill:none;stroke:#000000;stroke-width:1px;stroke-linecap:butt;stroke-linejoin:miter;stroke-opacity:1"
         d="m 246.00406,376.83908 410,0.0161"
         id="path3050-3-70-2-0"
         inkscape:connector-curvature="0"
         sodipodi:nodetypes="cc" />
      <path
         style="fill:none;stroke:#000000;stroke-width:1px;stroke-linecap:butt;stroke-linejoin:miter;stroke-opacity:1"
         d="m 246.00206,427.83908 409.99999,0.0161"
         id="path3050-35-8-8-0"
         inkscape:connector-curvature="0"
         sodipodi:nodetypes="cc" />
      <path
         style="fill:none;stroke:#000000;stroke-width:1px;stroke-linecap:butt;stroke-linejoin:miter;stroke-opacity:1"
         d="m 246.00005,478.83908 410,0.0161"
         id="path3050-3-1-1-8-32"
         inkscape:connector-curvature="0"
         sodipodi:nodetypes="cc" />
      <path
         style="fill:none;stroke:#000000;stroke-width:1px;stroke-linecap:butt;stroke-linejoin:miter;stroke-opacity:1"
         d="m 245.99805,529.83908 410,0.0161"
         id="path3050-2-9-7-5"
         inkscape:connector-curvature="0"
         sodipodi:nodetypes="cc" />
      <path
         style="fill:none;stroke:#000000;stroke-width:1px;stroke-linecap:butt;stroke-linejoin:miter;stroke-opacity:1"
         d="m 245.99605,580.83908 410,0.0161"
         id="path3050-3-7-7-1-9"
         inkscape:connector-curvature="0"
         sodipodi:nodetypes="cc" />
      <path
         style="fill:none;stroke:#000000;stroke-width:1px;stroke-linecap:butt;stroke-linejoin:miter;stroke-opacity:1"
         d="m 245.99405,631.83908 410,0.0161"
         id="path3050-35-3-7-6-9"
         inkscape:connector-curvature="0"
         sodipodi:nodetypes="cc" />
      <path
         style="fill:none;stroke:#000000;stroke-width:1px;stroke-linecap:butt;stroke-linejoin:miter;stroke-opacity:1"
         d="m 245.99205,682.83908 409.99999,0.0161"
         id="path3050-3-1-7-6-3-4"
         inkscape:connector-curvature="0"
         sodipodi:nodetypes="cc" />
      <path
         style="fill:none;stroke:#000000;stroke-width:1px;stroke-linecap:butt;stroke-linejoin:miter;stroke-opacity:1"
         d="m 246.00184,734.83513 409.98816,0.02"
         id="path3050-3-1-7-4-0-2-9"
         inkscape:connector-curvature="0"
         sodipodi:nodetypes="cc" />
      <path
         style="fill:none;stroke:#000000;stroke-width:1px;stroke-linecap:butt;stroke-linejoin:miter;stroke-opacity:1"
         d="m 246.41964,325.74164 408.8329,409.01965"
         id="path3274-12-2"
         inkscape:connector-curvature="0"
         sodipodi:nodetypes="cc" />
      <path
         style="fill:none;stroke:#000000;stroke-width:1px;stroke-linecap:butt;stroke-linejoin:miter;stroke-opacity:1"
         d="M 297.25542,325.71821 655.38943,682.59245"
         id="path3274-3-90-24"
         inkscape:connector-curvature="0"
         sodipodi:nodetypes="cc"
         inkscape:transform-center-x="15.714286"
         inkscape:transform-center-y="6.4285714" />
      <path
         style="fill:none;stroke:#000000;stroke-width:1px;stroke-linecap:butt;stroke-linejoin:miter;stroke-opacity:1"
         d="M 399.25395,325.59625 655.55382,581.07272"
         id="path3274-4-8-0"
         inkscape:connector-curvature="0"
         sodipodi:nodetypes="cc" />
      <path
         style="fill:none;stroke:#000000;stroke-width:1px;stroke-linecap:butt;stroke-linejoin:miter;stroke-opacity:1"
         d="M 450.65609,325.82908 655.43816,529.7562"
         id="path3274-3-8-9-3"
         inkscape:connector-curvature="0"
         sodipodi:nodetypes="cc"
         inkscape:transform-center-x="15.714286"
         inkscape:transform-center-y="6.4285714" />
      <path
         style="fill:none;stroke:#000000;stroke-width:1px;stroke-linecap:butt;stroke-linejoin:miter;stroke-opacity:1"
         d="M 348.56516,326.09021 655.37265,631.94803"
         id="path3274-3-0-5-6-7"
         inkscape:connector-curvature="0"
         sodipodi:nodetypes="cc"
         inkscape:transform-center-x="15.714286"
         inkscape:transform-center-y="6.4285714" />
      <path
         style="fill:none;stroke:#000000;stroke-width:1px;stroke-linecap:butt;stroke-linejoin:miter;stroke-opacity:1"
         d="M 552.53811,325.86605 655.34948,427.64667"
         id="path3274-1-61-5"
         inkscape:connector-curvature="0"
         sodipodi:nodetypes="cc" />
      <path
         style="fill:none;stroke:#000000;stroke-width:1px;stroke-linecap:butt;stroke-linejoin:miter;stroke-opacity:1"
         d="m 603.44069,325.97736 51.9579,50.35893"
         id="path3274-3-96-43-2"
         inkscape:connector-curvature="0"
         sodipodi:nodetypes="cc"
         inkscape:transform-center-x="15.714286"
         inkscape:transform-center-y="6.4285714" />
      <path
         style="fill:none;stroke:#000000;stroke-width:1px;stroke-linecap:butt;stroke-linejoin:miter;stroke-opacity:1"
         d="M 501.71997,325.87909 655.3676,478.5851"
         id="path3274-3-0-0-5-0"
         inkscape:connector-curvature="0"
         sodipodi:nodetypes="cc"
         inkscape:transform-center-x="15.714286"
         inkscape:transform-center-y="6.4285714" />
      <path
         style="fill:none;stroke:#000000;stroke-width:1px;stroke-linecap:butt;stroke-linejoin:miter;stroke-opacity:1"
         d="M 603.46955,734.80922 246.53715,377.06125"
         id="path3274-3-9-3-1"
         inkscape:connector-curvature="0"
         sodipodi:nodetypes="cc"
         inkscape:transform-center-x="-15.714286"
         inkscape:transform-center-y="-6.4285714" />
      <path
         style="fill:none;stroke:#000000;stroke-width:1px;stroke-linecap:butt;stroke-linejoin:miter;stroke-opacity:1"
         d="M 501.48274,734.61868 246.56216,478.73882"
         id="path3274-4-9-1-9"
         inkscape:connector-curvature="0"
         sodipodi:nodetypes="cc" />
      <path
         style="fill:none;stroke:#000000;stroke-width:1px;stroke-linecap:butt;stroke-linejoin:miter;stroke-opacity:1"
         d="M 450.53372,734.76085 246.53581,529.78701"
         id="path3274-3-8-0-0-0"
         inkscape:connector-curvature="0"
         sodipodi:nodetypes="cc"
         inkscape:transform-center-x="-15.714286"
         inkscape:transform-center-y="-6.4285714" />
      <path
         style="fill:none;stroke:#000000;stroke-width:1px;stroke-linecap:butt;stroke-linejoin:miter;stroke-opacity:1"
         d="M 552.57387,734.62863 246.61709,427.83194"
         id="path3274-3-0-5-5-0-69"
         inkscape:connector-curvature="0"
         sodipodi:nodetypes="cc"
         inkscape:transform-center-x="-15.714286"
         inkscape:transform-center-y="-6.4285714" />
      <path
         style="fill:none;stroke:#000000;stroke-width:1px;stroke-linecap:butt;stroke-linejoin:miter;stroke-opacity:1"
         d="M 348.58822,734.74414 246.57705,632.00703"
         id="path3274-1-6-6-8"
         inkscape:connector-curvature="0"
         sodipodi:nodetypes="cc" />
      <path
         style="fill:none;stroke:#000000;stroke-width:1px;stroke-linecap:butt;stroke-linejoin:miter;stroke-opacity:1"
         d="M 297.45994,734.59179 246.55952,682.9386"
         id="path3274-3-96-4-0-6"
         inkscape:connector-curvature="0"
         sodipodi:nodetypes="cc"
         inkscape:transform-center-x="-15.714286"
         inkscape:transform-center-y="-6.4285714" />
      <path
         style="fill:none;stroke:#000000;stroke-width:1px;stroke-linecap:butt;stroke-linejoin:miter;stroke-opacity:1"
         d="M 399.57922,734.61709 246.54317,580.94233"
         id="path3274-3-0-0-8-9-6"
         inkscape:connector-curvature="0"
         sodipodi:nodetypes="cc"
         inkscape:transform-center-x="-15.714286"
         inkscape:transform-center-y="-6.4285714" />
    </g>
    <g
       id="g4623">
      <circle
         transform="matrix(0.71209331,0,0,0.71209331,136.24175,125.84766)"
         sodipodi:ry="4.9150863"
         sodipodi:rx="4.9150863"
         sodipodi:cy="284.61124"
         sodipodi:cx="100.07942"
         r="4.9150863"
         cy="284.61124"
         cx="100.07942"
         style="fill:#00ff00;fill-opacity:1;stroke:none"
         id="path4275-73-38-6-8-6"
         d="m 104.99451,284.61124 c 0,2.71452 -2.20056,4.91508 -4.91509,4.91508 -2.714525,0 -4.915084,-2.20056 -4.915084,-4.91508 0,-2.71453 2.200559,-4.91509 4.915084,-4.91509 2.71453,0 4.91509,2.20056 4.91509,4.91509 z" />
      <circle
         transform="matrix(0.71209331,0,0,0.71209331,135.92995,163.68156)"
         sodipodi:ry="4.9150863"
         sodipodi:rx="4.9150863"
         sodipodi:cy="284.61124"
         sodipodi:cx="100.07942"
         r="4.9150863"
         cy="284.61124"
         cx="100.07942"
         style="fill:#00ff00;fill-opacity:1;stroke:none"
         id="path4275-73-38-6-8-6-6"
         d="m 104.99451,284.61124 c 0,2.71452 -2.20056,4.91508 -4.91509,4.91508 -2.714525,0 -4.915084,-2.20056 -4.915084,-4.91508 0,-2.71453 2.200559,-4.91509 4.915084,-4.91509 2.71453,0 4.91509,2.20056 4.91509,4.91509 z" />
      <circle
         transform="matrix(0.71209331,0,0,0.71209331,173.55813,163.30275)"
         sodipodi:ry="4.9150863"
         sodipodi:rx="4.9150863"
         sodipodi:cy="284.61124"
         sodipodi:cx="100.07942"
         r="4.9150863"
         cy="284.61124"
         cx="100.07942"
         style="fill:#00ff00;fill-opacity:1;stroke:none"
         id="path4275-73-38-6-8-6-1"
         d="m 104.99451,284.61124 c 0,2.71452 -2.20056,4.91508 -4.91509,4.91508 -2.714525,0 -4.915084,-2.20056 -4.915084,-4.91508 0,-2.71453 2.200559,-4.91509 4.915084,-4.91509 2.71453,0 4.91509,2.20056 4.91509,4.91509 z" />
      <circle
         transform="matrix(0.71209331,0,0,0.71209331,173.6844,200.6784)"
         sodipodi:ry="4.9150863"
         sodipodi:rx="4.9150863"
         sodipodi:cy="284.61124"
         sodipodi:cx="100.07942"
         r="4.9150863"
         cy="284.61124"
         cx="100.07942"
         style="fill:#00ff00;fill-opacity:1;stroke:none"
         id="path4275-73-38-6-8-6-5"
         d="m 104.99451,284.61124 c 0,2.71452 -2.20056,4.91508 -4.91509,4.91508 -2.714525,0 -4.915084,-2.20056 -4.915084,-4.91508 0,-2.71453 2.200559,-4.91509 4.915084,-4.91509 2.71453,0 4.91509,2.20056 4.91509,4.91509 z" />
      <circle
         transform="matrix(0.71209331,0,0,0.71209331,136.05622,200.93093)"
         sodipodi:ry="4.9150863"
         sodipodi:rx="4.9150863"
         sodipodi:cy="284.61124"
         sodipodi:cx="100.07942"
         r="4.9150863"
         cy="284.61124"
         cx="100.07942"
         style="fill:#00ff00;fill-opacity:1;stroke:none"
         id="path4275-73-38-6-8-6-7"
         d="m 104.99451,284.61124 c 0,2.71452 -2.20056,4.91508 -4.91509,4.91508 -2.714525,0 -4.915084,-2.20056 -4.915084,-4.91508 0,-2.71453 2.200559,-4.91509 4.915084,-4.91509 2.71453,0 4.91509,2.20056 4.91509,4.91509 z" />
      <circle
         transform="matrix(0.71209331,0,0,0.71209331,173.6844,125.92711)"
         sodipodi:ry="4.9150863"
         sodipodi:rx="4.9150863"
         sodipodi:cy="284.61124"
         sodipodi:cx="100.07942"
         r="4.9150863"
         cy="284.61124"
         cx="100.07942"
         style="fill:#00ff00;fill-opacity:1;stroke:none"
         id="path4275-73-38-6-8-6-9"
         d="m 104.99451,284.61124 c 0,2.71452 -2.20056,4.91508 -4.91509,4.91508 -2.714525,0 -4.915084,-2.20056 -4.915084,-4.91508 0,-2.71453 2.200559,-4.91509 4.915084,-4.91509 2.71453,0 4.91509,2.20056 4.91509,4.91509 z" />
    </g>
    <path
       sodipodi:type="arc"
       style="opacity:0.5;fill:#0000ff;fill-opacity:1;stroke:none"
       id="path4540"
       sodipodi:cx="169.45309"
       sodipodi:cy="163.51709"
       sodipodi:rx="39.14341"
       sodipodi:ry="39.14341"
       d="m 208.5965,163.51709 a 39.14341,39.14341 0 1 1 -78.28682,0 39.14341,39.14341 0 1 1 78.28682,0 z"
       transform="matrix(1.2076256,0,0,1.2076256,21.333322,168.29851)" />
    <path
       transform="translate(114.64061,235.53792)"
       inkscape:connector-curvature="0"
       id="path3031"
       d="M 17.67767,231.44984 110.6117,210.74171 76.771594,176.9016 108.08632,134.98027"
       style="stroke-linejoin:miter;marker-end:url(#Arrow1Send8);stroke-opacity:1;stroke:#ff0000;stroke-linecap:butt;stroke-miterlimit:4;stroke-dasharray:none;stroke-width:3.00000005000000014;fill:none" />
    <circle
       sodipodi:ry="4.9150863"
       sodipodi:rx="4.9150863"
       sodipodi:cy="455.67062"
       sodipodi:cx="728.46973"
       id="path4275-25-2-0"
       style="fill:#6442bd;fill-opacity:1;stroke:none"
       cx="728.46973"
       cy="455.67062"
       r="4.9150863"
       d="m 733.38481,455.67062 c 0,2.71453 -2.20056,4.91509 -4.91508,4.91509 -2.71453,0 -4.91509,-2.20056 -4.91509,-4.91509 0,-2.71452 2.20056,-4.91508 4.91509,-4.91508 2.71452,0 4.91508,2.20056 4.91508,4.91508 z"
       transform="matrix(1.2138551,0,0,1.2138551,-601.39955,-149.32735)" />
    <circle
       d="m 278.40321,459.48328 c 0,2.71452 -2.20055,4.91508 -4.91508,4.91508 -2.71453,0 -4.91509,-2.20056 -4.91509,-4.91508 0,-2.71453 2.20056,-4.91509 4.91509,-4.91509 2.71453,0 4.91508,2.20056 4.91508,4.91509 z"
       id="path4275-6-2-6-4"
       style="fill:#6442bd;fill-opacity:1;stroke:none"
       cx="273.48813"
       cy="459.48328"
       r="4.9150863"
       sodipodi:cx="273.48813"
       sodipodi:cy="459.48328"
       sodipodi:rx="4.9150863"
       sodipodi:ry="4.9150863"
       transform="matrix(1.2138551,0,0,1.2138551,56.128703,-47.820684)" />
    <circle
       d="m 104.99451,459.48328 c 0,2.71452 -2.20056,4.91508 -4.91509,4.91508 -2.714525,0 -4.915084,-2.20056 -4.915084,-4.91508 0,-2.71453 2.200559,-4.91509 4.915084,-4.91509 2.71453,0 4.91509,2.20056 4.91509,4.91509 z"
       id="path4275-4-8-4-7"
       style="fill:#6442bd;fill-opacity:1;stroke:none"
       cx="100.07942"
       cy="459.48328"
       r="4.9150863"
       sodipodi:cx="100.07942"
       sodipodi:cy="459.48328"
       sodipodi:rx="4.9150863"
       sodipodi:ry="4.9150863"
       transform="matrix(1.2138551,0,0,1.2138551,56.128703,-47.820684)" />
    <circle
       d="m 278.40321,284.61124 c 0,2.71452 -2.20055,4.91508 -4.91508,4.91508 -2.71453,0 -4.91509,-2.20056 -4.91509,-4.91508 0,-2.71453 2.20056,-4.91509 4.91509,-4.91509 2.71453,0 4.91508,2.20056 4.91508,4.91509 z"
       id="path4275-7-4-8-0"
       style="fill:#6442bd;fill-opacity:1;stroke:none"
       cx="273.48813"
       cy="284.61124"
       r="4.9150863"
       sodipodi:cx="273.48813"
       sodipodi:cy="284.61124"
       sodipodi:rx="4.9150863"
       sodipodi:ry="4.9150863"
       transform="matrix(1.2138551,0,0,1.2138551,56.128703,-47.820684)" />
    <circle
       d="m 104.99451,284.61124 c 0,2.71452 -2.20056,4.91508 -4.91509,4.91508 -2.714525,0 -4.915084,-2.20056 -4.915084,-4.91508 0,-2.71453 2.200559,-4.91509 4.915084,-4.91509 2.71453,0 4.91509,2.20056 4.91509,4.91509 z"
       id="path4275-73-38-6-8"
       style="fill:#6442bd;fill-opacity:1;stroke:none"
       cx="100.07942"
       cy="284.61124"
       r="4.9150863"
       sodipodi:cx="100.07942"
       sodipodi:cy="284.61124"
       sodipodi:rx="4.9150863"
       sodipodi:ry="4.9150863"
       transform="matrix(1.2138551,0,0,1.2138551,56.128703,-47.820684)" />
  </g>
</svg>
