<?xml version="1.0" encoding="UTF-8" standalone="no"?>
<!-- Created with Inkscape (http://www.inkscape.org/) -->

<svg
   xmlns:dc="http://purl.org/dc/elements/1.1/"
   xmlns:cc="http://creativecommons.org/ns#"
   xmlns:rdf="http://www.w3.org/1999/02/22-rdf-syntax-ns#"
   xmlns:svg="http://www.w3.org/2000/svg"
   xmlns="http://www.w3.org/2000/svg"
   xmlns:sodipodi="http://sodipodi.sourceforge.net/DTD/sodipodi-0.dtd"
   xmlns:inkscape="http://www.inkscape.org/namespaces/inkscape"
   width="311.73407"
   height="311.71646"
   viewBox="0 0 311.73408 311.71647"
   id="svg4509"
   version="1.1"
   inkscape:version="0.48.4 r9939"
   sodipodi:docname="spiral.svg">
  <defs
     id="defs4511" />
  <sodipodi:namedview
     id="base"
     pagecolor="#ffffff"
     bordercolor="#666666"
     borderopacity="1.0"
     inkscape:pageopacity="0.0"
     inkscape:pageshadow="2"
     inkscape:zoom="1.4"
     inkscape:cx="148.09045"
     inkscape:cy="101.40755"
     inkscape:document-units="px"
     inkscape:current-layer="layer1"
     showgrid="false"
     fit-margin-top="5"
     fit-margin-left="5"
     fit-margin-right="5"
     fit-margin-bottom="5"
     inkscape:window-width="1920"
     inkscape:window-height="984"
     inkscape:window-x="0"
     inkscape:window-y="27"
     inkscape:window-maximized="1" />
  <metadata
     id="metadata4514">
    <rdf:RDF>
      <cc:Work
         rdf:about="">
        <dc:format>image/svg+xml</dc:format>
        <dc:type
           rdf:resource="http://purl.org/dc/dcmitype/StillImage" />
        <dc:title></dc:title>
      </cc:Work>
    </rdf:RDF>
  </metadata>
  <g
     inkscape:label="Calque 1"
     inkscape:groupmode="layer"
     id="layer1"
     transform="translate(-46.9901,-179.4041)">
    <path
       style="fill:none;stroke:#e90000;stroke-width:4;stroke-linecap:butt;stroke-linejoin:miter;stroke-miterlimit:4;stroke-opacity:1;stroke-dasharray:none;display:inline"
       d="m 329.6936,333.12678 c 0,0 -0.9588,23.58001 -4.5962,34.64824 -5.4178,16.48595 -13.9415,32.32017 -25.1023,45.60838 -11.8609,14.12192 -26.5589,26.56163 -43.1335,34.64824 -14.7981,7.21987 -31.6179,11.36924 -48.0833,11.31371 -24.0103,-0.081 -48.7047,-5.88643 -70.0035,-16.97057 -16.2959,-8.4805 -31.292,-21.05402 -41.3658,-36.416 -12.4261,-18.94902 -18.8741,-42.12751 -20.8597,-64.70027 -1.5948,-18.13026 0.3172,-37.33853 7.4246,-54.09368 7.3746,-17.38506 20.3272,-32.66157 35.0019,-44.54772 17.8569,-14.46375 39.2338,-26.45734 61.8718,-30.4056 16.7057,-2.9136 34.5027,0.19874 50.5581,5.65686 16.1699,5.497 31.3958,14.82008 43.8407,26.5165 13.2685,12.47058 23.9405,28.16422 31.1127,44.90128 5.7354,13.38407 9.6735,28.24274 8.8388,42.77997 -1.2945,22.54728 -8.6153,45.60238 -21.2132,64.34672 -9.9326,14.77878 -24.4504,27.27518 -40.6587,34.64823 -19.6313,8.93021 -42.5867,12.17339 -63.9931,9.54594 -22.0271,-2.70363 -44.1302,-11.6662 -61.5183,-25.45584 -11.2494,-8.92134 -19.4108,-21.82053 -25.1023,-35.00179 -6.3311,-14.66244 -9.3546,-31.05253 -9.1924,-47.0226 0.147,-14.46953 3.2231,-29.24474 9.1924,-42.42641 6.048,-13.3554 15.2258,-25.59203 26.163,-35.35534 11.7773,-10.51331 25.7781,-19.54548 41.0122,-23.68808 15.6939,-4.26768 32.7427,-2.99727 48.7903,-0.35355 15.2616,2.51422 33.0423,7.41333 44.5906,17.70279 11.1947,9.97435 15.8649,18.16706 21.5239,30.02691 6.5675,13.76366 10.8269,27.41481 12.3315,42.59064 1.2612,12.72 0.065,29.4146 -4.2855,41.43376 -5.452,15.0614 -13.9415,26.74676 -25.7237,37.59798 -11.6877,10.76422 -25.9152,19.97944 -41.3657,23.68808 -16.4069,3.9382 -34.3613,2.25333 -50.5582,-2.47488 -14.5932,-4.26008 -29.4352,-11.3212 -39.5979,-22.62741 -14.5348,-16.17022 -24.0163,-38.11426 -26.163,-59.75053 -1.6911,-17.04531 2.2626,-35.44804 10.9602,-50.20459 9.7951,-16.6187 25.6082,-30.93994 43.487,-38.18376 17.7163,-7.17795 38.8744,-8.00339 57.2757,-2.82843 16.3313,4.59281 31.4913,15.37747 42.0728,28.63782 10.2651,12.86376 16.7419,29.5551 18.0313,45.96196 1.2008,15.27943 -2.2879,31.59841 -9.8995,44.90128 -8.9455,15.63405 -23.0488,29.6585 -39.598,36.76955 -15.4064,6.61997 -34.0099,7.53095 -50.2046,3.18198 -16.8255,-4.51838 -34.0944,-14.31852 -43.4871,-28.99138 -11.4487,-17.88491 -14.9671,-42.3106 -9.8994,-62.9325 4.0612,-16.52628 16.1521,-31.71441 30.4055,-41.01221 14.2716,-9.30961 32.8889,-12.93605 49.8511,-11.3137 13.7104,1.31133 28.0743,6.89496 37.8302,16.61701 9.6794,9.64594 14.3147,24.00684 16.617,37.47666 2.2705,13.28419 2.4617,28.06688 -3.182,40.30509 -4.8159,10.44306 -14.1753,19.12223 -24.3952,24.39518 -16.357,8.43943 -36.8627,14.62944 -54.4472,9.19239 -12.9794,-4.01315 -22.6623,-16.45582 -29.3449,-28.28427 -6.2438,-11.05171 -10.448,-24.58225 -8.4853,-37.1231 2.3938,-15.29588 10.6399,-31.61843 23.6881,-39.95155 13.777,-8.79862 33.2884,-10.13732 48.7903,-4.94974 12.3372,4.12851 22.9291,14.82631 28.6379,26.5165 5.5014,11.26567 7.62,25.75132 3.1819,37.47667 -5.1343,13.56466 -17.3718,26.63007 -31.4662,30.05204 -16.235,3.94168 -37.056,-1.59179 -48.0833,-14.14214 -9.4508,-10.7562 -11.8381,-29.05505 -6.7175,-42.42641 4.3444,-11.34443 16.3516,-20.7049 28.2843,-22.98098 11.1669,-2.13001 24.448,2.25506 32.5269,10.25305 8.3693,8.2855 13.9137,22.1871 10.9601,33.58758 -2.2586,8.71834 -11.2541,15.53939 -19.7989,18.38478 -9.5574,3.18255 -22.3248,3.28035 -30.0521,-3.18198 -7.4384,-6.22077 -10.9474,-18.65175 -8.1317,-27.93072 2.5019,-8.24479 11.3053,-15.17035 19.799,-16.61701 6.5812,-1.12093 14.1108,2.25905 18.7383,7.07107 2.3249,2.4176 3.182,9.54594 3.182,9.54594"
       id="path3505"
       inkscape:connector-curvature="0"
       sodipodi:nodetypes="csssssssssssssssssssssssssssssssssssssssssssssssssssssssssssssssssssc" />
  </g>
</svg>
