<?xml version="1.0" encoding="UTF-8" standalone="no"?>
<!-- Created with Inkscape (http://www.inkscape.org/) -->

<svg
   xmlns:dc="http://purl.org/dc/elements/1.1/"
   xmlns:cc="http://creativecommons.org/ns#"
   xmlns:rdf="http://www.w3.org/1999/02/22-rdf-syntax-ns#"
   xmlns:svg="http://www.w3.org/2000/svg"
   xmlns="http://www.w3.org/2000/svg"
   xmlns:sodipodi="http://sodipodi.sourceforge.net/DTD/sodipodi-0.dtd"
   xmlns:inkscape="http://www.inkscape.org/namespaces/inkscape"
   width="141.73228"
   height="101.66592"
   viewBox="0 0 141.73229 101.66592"
   id="svg2"
   version="1.1"
   inkscape:version="0.48.4 r9939"
   sodipodi:docname="dag_features.svg"
   inkscape:export-filename="/home/manteapi/Depot/gforge/fluidsculpting/images/dag_features.png"
   inkscape:export-xdpi="107"
   inkscape:export-ydpi="107">
  <sodipodi:namedview
     id="base"
     pagecolor="#ffffff"
     bordercolor="#666666"
     borderopacity="1.0"
     inkscape:pageopacity="1"
     inkscape:pageshadow="2"
     inkscape:zoom="5.4127344"
     inkscape:cx="61.504609"
     inkscape:cy="58.51781"
     inkscape:document-units="px"
     inkscape:current-layer="layer1"
     showgrid="false"
     fit-margin-top="0"
     fit-margin-left="0"
     fit-margin-right="0"
     fit-margin-bottom="0"
     inkscape:window-width="1680"
     inkscape:window-height="1001"
     inkscape:window-x="0"
     inkscape:window-y="25"
     inkscape:window-maximized="1"
     units="mm">
    <inkscape:grid
       type="xygrid"
       id="grid3336"
       originx="-265.06801px"
       originy="-694.16354px"
       empspacing="5"
       visible="true"
       enabled="true"
       snapvisiblegridlinesonly="true" />
  </sodipodi:namedview>
  <defs
     id="defs4">
    <marker
       inkscape:stockid="Arrow2Mstart"
       orient="auto"
       refY="0.0"
       refX="0.0"
       id="Arrow2Mstart"
       style="overflow:visible">
      <path
         id="path4219"
         style="fill-rule:evenodd;stroke-width:0.62500000;stroke-linejoin:round"
         d="M 8.7185878,4.0337352 L -2.2072895,0.016013256 L 8.7185884,-4.0017078 C 6.9730900,-1.6296469 6.9831476,1.6157441 8.7185878,4.0337352 z "
         transform="scale(0.6) translate(0,0)" />
    </marker>
    <marker
       inkscape:stockid="Arrow1Mend"
       orient="auto"
       refY="0"
       refX="0"
       id="marker7196"
       style="overflow:visible"
       inkscape:isstock="true">
      <path
         inkscape:connector-curvature="0"
         id="path7198"
         d="M 0,0 5,-5 -12.5,0 5,5 0,0 z"
         style="fill:#000000;fill-opacity:1;fill-rule:evenodd;stroke:#000000;stroke-width:1pt;stroke-opacity:1"
         transform="matrix(-0.4,0,0,-0.4,-4,0)" />
    </marker>
    <marker
       inkscape:stockid="Arrow1Mend"
       orient="auto"
       refY="0"
       refX="0"
       id="marker7000"
       style="overflow:visible"
       inkscape:isstock="true">
      <path
         inkscape:connector-curvature="0"
         id="path7002"
         d="M 0,0 5,-5 -12.5,0 5,5 0,0 z"
         style="fill:#000000;fill-opacity:1;fill-rule:evenodd;stroke:#000000;stroke-width:1pt;stroke-opacity:1"
         transform="matrix(-0.4,0,0,-0.4,-4,0)" />
    </marker>
    <marker
       inkscape:stockid="Arrow1Mend"
       orient="auto"
       refY="0"
       refX="0"
       id="marker6810"
       style="overflow:visible"
       inkscape:isstock="true">
      <path
         inkscape:connector-curvature="0"
         id="path6812"
         d="M 0,0 5,-5 -12.5,0 5,5 0,0 z"
         style="fill:#000000;fill-opacity:1;fill-rule:evenodd;stroke:#000000;stroke-width:1pt;stroke-opacity:1"
         transform="matrix(-0.4,0,0,-0.4,-4,0)" />
    </marker>
    <marker
       inkscape:stockid="Arrow1Mend"
       orient="auto"
       refY="0"
       refX="0"
       id="marker6626"
       style="overflow:visible"
       inkscape:isstock="true">
      <path
         inkscape:connector-curvature="0"
         id="path6628"
         d="M 0,0 5,-5 -12.5,0 5,5 0,0 z"
         style="fill:#000000;fill-opacity:1;fill-rule:evenodd;stroke:#000000;stroke-width:1pt;stroke-opacity:1"
         transform="matrix(-0.4,0,0,-0.4,-4,0)" />
    </marker>
    <marker
       inkscape:stockid="Arrow1Mend"
       orient="auto"
       refY="0"
       refX="0"
       id="marker6448"
       style="overflow:visible"
       inkscape:isstock="true">
      <path
         inkscape:connector-curvature="0"
         id="path6450"
         d="M 0,0 5,-5 -12.5,0 5,5 0,0 z"
         style="fill:#000000;fill-opacity:1;fill-rule:evenodd;stroke:#000000;stroke-width:1pt;stroke-opacity:1"
         transform="matrix(-0.4,0,0,-0.4,-4,0)" />
    </marker>
    <marker
       inkscape:stockid="Arrow1Mend"
       orient="auto"
       refY="0"
       refX="0"
       id="marker6276"
       style="overflow:visible"
       inkscape:isstock="true">
      <path
         inkscape:connector-curvature="0"
         id="path6278"
         d="M 0,0 5,-5 -12.5,0 5,5 0,0 z"
         style="fill:#000000;fill-opacity:1;fill-rule:evenodd;stroke:#000000;stroke-width:1pt;stroke-opacity:1"
         transform="matrix(-0.4,0,0,-0.4,-4,0)" />
    </marker>
    <marker
       inkscape:stockid="Arrow1Mend"
       orient="auto"
       refY="0"
       refX="0"
       id="marker6110"
       style="overflow:visible"
       inkscape:isstock="true">
      <path
         inkscape:connector-curvature="0"
         id="path6112"
         d="M 0,0 5,-5 -12.5,0 5,5 0,0 z"
         style="fill:#000000;fill-opacity:1;fill-rule:evenodd;stroke:#000000;stroke-width:1pt;stroke-opacity:1"
         transform="matrix(-0.4,0,0,-0.4,-4,0)" />
    </marker>
    <marker
       inkscape:stockid="Arrow1Mend"
       orient="auto"
       refY="0"
       refX="0"
       id="marker5950"
       style="overflow:visible"
       inkscape:isstock="true">
      <path
         inkscape:connector-curvature="0"
         id="path5952"
         d="M 0,0 5,-5 -12.5,0 5,5 0,0 z"
         style="fill:#000000;fill-opacity:1;fill-rule:evenodd;stroke:#000000;stroke-width:1pt;stroke-opacity:1"
         transform="matrix(-0.4,0,0,-0.4,-4,0)" />
    </marker>
    <marker
       inkscape:stockid="Arrow1Mend"
       orient="auto"
       refY="0"
       refX="0"
       id="marker5796"
       style="overflow:visible"
       inkscape:isstock="true">
      <path
         inkscape:connector-curvature="0"
         id="path5798"
         d="M 0,0 5,-5 -12.5,0 5,5 0,0 z"
         style="fill:#000000;fill-opacity:1;fill-rule:evenodd;stroke:#000000;stroke-width:1pt;stroke-opacity:1"
         transform="matrix(-0.4,0,0,-0.4,-4,0)" />
    </marker>
    <marker
       inkscape:stockid="Arrow1Mend"
       orient="auto"
       refY="0"
       refX="0"
       id="marker5648"
       style="overflow:visible"
       inkscape:isstock="true">
      <path
         inkscape:connector-curvature="0"
         id="path5650"
         d="M 0,0 5,-5 -12.5,0 5,5 0,0 z"
         style="fill:#000000;fill-opacity:1;fill-rule:evenodd;stroke:#000000;stroke-width:1pt;stroke-opacity:1"
         transform="matrix(-0.4,0,0,-0.4,-4,0)" />
    </marker>
    <marker
       inkscape:stockid="Arrow1Mend"
       orient="auto"
       refY="0"
       refX="0"
       id="marker5506"
       style="overflow:visible"
       inkscape:isstock="true">
      <path
         inkscape:connector-curvature="0"
         id="path5508"
         d="M 0,0 5,-5 -12.5,0 5,5 0,0 z"
         style="fill:#000000;fill-opacity:1;fill-rule:evenodd;stroke:#000000;stroke-width:1pt;stroke-opacity:1"
         transform="matrix(-0.4,0,0,-0.4,-4,0)" />
    </marker>
    <marker
       inkscape:stockid="Arrow1Mend"
       orient="auto"
       refY="0"
       refX="0"
       id="marker5370"
       style="overflow:visible"
       inkscape:isstock="true">
      <path
         inkscape:connector-curvature="0"
         id="path5372"
         d="M 0,0 5,-5 -12.5,0 5,5 0,0 z"
         style="fill:#000000;fill-opacity:1;fill-rule:evenodd;stroke:#000000;stroke-width:1pt;stroke-opacity:1"
         transform="matrix(-0.4,0,0,-0.4,-4,0)" />
    </marker>
    <marker
       inkscape:stockid="Arrow1Mend"
       orient="auto"
       refY="0"
       refX="0"
       id="marker5240"
       style="overflow:visible"
       inkscape:isstock="true">
      <path
         inkscape:connector-curvature="0"
         id="path5242"
         d="M 0,0 5,-5 -12.5,0 5,5 0,0 z"
         style="fill:#000000;fill-opacity:1;fill-rule:evenodd;stroke:#000000;stroke-width:1pt;stroke-opacity:1"
         transform="matrix(-0.4,0,0,-0.4,-4,0)" />
    </marker>
    <marker
       inkscape:stockid="Arrow1Mend"
       orient="auto"
       refY="0"
       refX="0"
       id="marker5116"
       style="overflow:visible"
       inkscape:isstock="true">
      <path
         inkscape:connector-curvature="0"
         id="path5118"
         d="M 0,0 5,-5 -12.5,0 5,5 0,0 z"
         style="fill:#000000;fill-opacity:1;fill-rule:evenodd;stroke:#000000;stroke-width:1pt;stroke-opacity:1"
         transform="matrix(-0.4,0,0,-0.4,-4,0)" />
    </marker>
    <marker
       inkscape:stockid="Arrow1Mend"
       orient="auto"
       refY="0"
       refX="0"
       id="marker4998"
       style="overflow:visible"
       inkscape:isstock="true">
      <path
         inkscape:connector-curvature="0"
         id="path5000"
         d="M 0,0 5,-5 -12.5,0 5,5 0,0 z"
         style="fill:#000000;fill-opacity:1;fill-rule:evenodd;stroke:#000000;stroke-width:1pt;stroke-opacity:1"
         transform="matrix(-0.4,0,0,-0.4,-4,0)" />
    </marker>
    <marker
       inkscape:stockid="Arrow1Mend"
       orient="auto"
       refY="0"
       refX="0"
       id="marker4886"
       style="overflow:visible"
       inkscape:isstock="true">
      <path
         inkscape:connector-curvature="0"
         id="path4888"
         d="M 0,0 5,-5 -12.5,0 5,5 0,0 z"
         style="fill:#000000;fill-opacity:1;fill-rule:evenodd;stroke:#000000;stroke-width:1pt;stroke-opacity:1"
         transform="matrix(-0.4,0,0,-0.4,-4,0)" />
    </marker>
    <marker
       inkscape:stockid="Arrow1Mend"
       orient="auto"
       refY="0"
       refX="0"
       id="marker4780"
       style="overflow:visible"
       inkscape:isstock="true">
      <path
         inkscape:connector-curvature="0"
         id="path4782"
         d="M 0,0 5,-5 -12.5,0 5,5 0,0 z"
         style="fill:#000000;fill-opacity:1;fill-rule:evenodd;stroke:#000000;stroke-width:1pt;stroke-opacity:1"
         transform="matrix(-0.4,0,0,-0.4,-4,0)" />
    </marker>
    <marker
       inkscape:stockid="Arrow1Mend"
       orient="auto"
       refY="0"
       refX="0"
       id="marker4680"
       style="overflow:visible"
       inkscape:isstock="true">
      <path
         inkscape:connector-curvature="0"
         id="path4682"
         d="M 0,0 5,-5 -12.5,0 5,5 0,0 z"
         style="fill:#000000;fill-opacity:1;fill-rule:evenodd;stroke:#000000;stroke-width:1pt;stroke-opacity:1"
         transform="matrix(-0.4,0,0,-0.4,-4,0)" />
    </marker>
    <marker
       inkscape:stockid="Arrow1Mend"
       orient="auto"
       refY="0"
       refX="0"
       id="marker4586"
       style="overflow:visible"
       inkscape:isstock="true">
      <path
         inkscape:connector-curvature="0"
         id="path4588"
         d="M 0,0 5,-5 -12.5,0 5,5 0,0 z"
         style="fill:#000000;fill-opacity:1;fill-rule:evenodd;stroke:#000000;stroke-width:1pt;stroke-opacity:1"
         transform="matrix(-0.4,0,0,-0.4,-4,0)" />
    </marker>
    <marker
       inkscape:stockid="Arrow1Mend"
       orient="auto"
       refY="0"
       refX="0"
       id="marker4498"
       style="overflow:visible"
       inkscape:isstock="true">
      <path
         inkscape:connector-curvature="0"
         id="path4500"
         d="M 0,0 5,-5 -12.5,0 5,5 0,0 z"
         style="fill:#000000;fill-opacity:1;fill-rule:evenodd;stroke:#000000;stroke-width:1pt;stroke-opacity:1"
         transform="matrix(-0.4,0,0,-0.4,-4,0)" />
    </marker>
    <marker
       inkscape:stockid="Arrow1Mend"
       orient="auto"
       refY="0"
       refX="0"
       id="marker4416"
       style="overflow:visible"
       inkscape:isstock="true">
      <path
         inkscape:connector-curvature="0"
         id="path4418"
         d="M 0,0 5,-5 -12.5,0 5,5 0,0 z"
         style="fill:#000000;fill-opacity:1;fill-rule:evenodd;stroke:#000000;stroke-width:1pt;stroke-opacity:1"
         transform="matrix(-0.4,0,0,-0.4,-4,0)" />
    </marker>
    <marker
       inkscape:stockid="Arrow1Mend"
       orient="auto"
       refY="0"
       refX="0"
       id="marker4340"
       style="overflow:visible"
       inkscape:isstock="true">
      <path
         inkscape:connector-curvature="0"
         id="path4342"
         d="M 0,0 5,-5 -12.5,0 5,5 0,0 z"
         style="fill:#000000;fill-opacity:1;fill-rule:evenodd;stroke:#000000;stroke-width:1pt;stroke-opacity:1"
         transform="matrix(-0.4,0,0,-0.4,-4,0)" />
    </marker>
    <marker
       inkscape:stockid="Arrow1Mend"
       orient="auto"
       refY="0"
       refX="0"
       id="marker4270"
       style="overflow:visible"
       inkscape:isstock="true">
      <path
         inkscape:connector-curvature="0"
         id="path4272"
         d="M 0,0 5,-5 -12.5,0 5,5 0,0 z"
         style="fill:#000000;fill-opacity:1;fill-rule:evenodd;stroke:#000000;stroke-width:1pt;stroke-opacity:1"
         transform="matrix(-0.4,0,0,-0.4,-4,0)" />
    </marker>
    <marker
       inkscape:isstock="true"
       style="overflow:visible"
       id="marker4737"
       refX="0"
       refY="0"
       orient="auto"
       inkscape:stockid="Arrow1Mend"
       inkscape:collect="always">
      <path
         transform="matrix(-0.4,0,0,-0.4,-4,0)"
         style="fill:#000000;fill-opacity:1;fill-rule:evenodd;stroke:#000000;stroke-width:1pt;stroke-opacity:1"
         d="M 0,0 5,-5 -12.5,0 5,5 0,0 z"
         id="path4739"
         inkscape:connector-curvature="0" />
    </marker>
    <marker
       inkscape:stockid="Arrow1Lend"
       orient="auto"
       refY="0"
       refX="0"
       id="marker4514"
       style="overflow:visible"
       inkscape:isstock="true">
      <path
         id="path4516"
         d="M 0,0 5,-5 -12.5,0 5,5 0,0 z"
         style="fill:#000000;fill-opacity:1;fill-rule:evenodd;stroke:#000000;stroke-width:1pt;stroke-opacity:1"
         transform="matrix(-0.8,0,0,-0.8,-10,0)"
         inkscape:connector-curvature="0" />
    </marker>
    <marker
       inkscape:stockid="Arrow1Mstart"
       orient="auto"
       refY="0"
       refX="0"
       id="Arrow1Mstart"
       style="overflow:visible"
       inkscape:isstock="true">
      <path
         id="path4150"
         d="M 0,0 5,-5 -12.5,0 5,5 0,0 z"
         style="fill:#000000;fill-opacity:1;fill-rule:evenodd;stroke:#000000;stroke-width:1pt;stroke-opacity:1"
         transform="matrix(0.4,0,0,0.4,4,0)"
         inkscape:connector-curvature="0" />
    </marker>
    <marker
       inkscape:stockid="Arrow1Lend"
       orient="auto"
       refY="0"
       refX="0"
       id="Arrow1Lend"
       style="overflow:visible"
       inkscape:isstock="true">
      <path
         id="path4147"
         d="M 0,0 5,-5 -12.5,0 5,5 0,0 z"
         style="fill:#000000;fill-opacity:1;fill-rule:evenodd;stroke:#000000;stroke-width:1pt;stroke-opacity:1"
         transform="matrix(-0.8,0,0,-0.8,-10,0)"
         inkscape:connector-curvature="0" />
    </marker>
    <marker
       inkscape:stockid="Arrow1Lstart"
       orient="auto"
       refY="0"
       refX="0"
       id="Arrow1Lstart"
       style="overflow:visible"
       inkscape:isstock="true">
      <path
         id="path4144"
         d="M 0,0 5,-5 -12.5,0 5,5 0,0 z"
         style="fill:#000000;fill-opacity:1;fill-rule:evenodd;stroke:#000000;stroke-width:1pt;stroke-opacity:1"
         transform="matrix(0.8,0,0,0.8,10,0)"
         inkscape:connector-curvature="0" />
    </marker>
    <marker
       inkscape:isstock="true"
       style="overflow:visible"
       id="marker4737-6"
       refX="0"
       refY="0"
       orient="auto"
       inkscape:stockid="Arrow1Mend">
      <path
         inkscape:connector-curvature="0"
         transform="matrix(-0.4,0,0,-0.4,-4,0)"
         style="fill:#000000;fill-opacity:1;fill-rule:evenodd;stroke:#000000;stroke-width:1pt;stroke-opacity:1"
         d="M 0,0 5,-5 -12.5,0 5,5 0,0 z"
         id="path4739-8" />
    </marker>
    <marker
       inkscape:stockid="Arrow1Mstart"
       orient="auto"
       refY="0"
       refX="0"
       id="Arrow1Mstart-3"
       style="overflow:visible"
       inkscape:isstock="true">
      <path
         inkscape:connector-curvature="0"
         id="path4150-9"
         d="M 0,0 5,-5 -12.5,0 5,5 0,0 z"
         style="fill:#000000;fill-opacity:1;fill-rule:evenodd;stroke:#000000;stroke-width:1pt;stroke-opacity:1"
         transform="matrix(0.4,0,0,0.4,4,0)" />
    </marker>
    <marker
       inkscape:stockid="Arrow1Mstart"
       orient="auto"
       refY="0"
       refX="0"
       id="Arrow1Mstart-38"
       style="overflow:visible"
       inkscape:isstock="true">
      <path
         id="path4150-6"
         d="M 0,0 5,-5 -12.5,0 5,5 0,0 z"
         style="fill:#000000;fill-opacity:1;fill-rule:evenodd;stroke:#000000;stroke-width:1pt;stroke-opacity:1"
         transform="matrix(0.4,0,0,0.4,4,0)"
         inkscape:connector-curvature="0" />
    </marker>
    <marker
       inkscape:stockid="Arrow1Mend"
       orient="auto"
       refY="0"
       refX="0"
       id="Arrow1Mend-2"
       style="overflow:visible"
       inkscape:isstock="true"
       inkscape:collect="always">
      <path
         id="path4153-1"
         d="M 0,0 5,-5 -12.5,0 5,5 0,0 z"
         style="fill:#000000;fill-opacity:1;fill-rule:evenodd;stroke:#000000;stroke-width:1pt;stroke-opacity:1"
         transform="matrix(-0.4,0,0,-0.4,-4,0)"
         inkscape:connector-curvature="0" />
    </marker>
    <marker
       inkscape:stockid="Arrow1Mend-2m"
       orient="auto"
       refY="0"
       refX="0"
       id="Arrow1Mend-2m"
       style="overflow:visible"
       inkscape:isstock="true"
       inkscape:collect="always">
      <path
         id="path4495"
         d="M 0,0 5,-5 -12.5,0 5,5 0,0 z"
         style="fill:#7d7d7d;fill-opacity:1;fill-rule:evenodd;stroke:#7d7d7d;stroke-width:1pt;stroke-opacity:1"
         transform="matrix(-0.4,0,0,-0.4,-4,0)"
         inkscape:connector-curvature="0" />
    </marker>
    <marker
       inkscape:stockid="marker43406"
       orient="auto"
       refY="0"
       refX="0"
       id="marker43406"
       style="overflow:visible"
       inkscape:isstock="true">
      <path
         inkscape:connector-curvature="0"
         id="path4498"
         d="M 0,0 5,-5 -12.5,0 5,5 0,0 z"
         style="fill:#7d7d7d;fill-opacity:1;fill-rule:evenodd;stroke:#7d7d7d;stroke-width:1pt;stroke-opacity:1"
         transform="matrix(-0.4,0,0,-0.4,-4,0)" />
    </marker>
    <marker
       inkscape:stockid="Arrow1Mend-2T"
       orient="auto"
       refY="0"
       refX="0"
       id="Arrow1Mend-2T"
       style="overflow:visible"
       inkscape:isstock="true"
       inkscape:collect="always">
      <path
         id="path4501"
         d="M 0,0 5,-5 -12.5,0 5,5 0,0 z"
         style="fill:#7d7d7d;fill-opacity:1;fill-rule:evenodd;stroke:#7d7d7d;stroke-width:1pt;stroke-opacity:1"
         transform="matrix(-0.4,0,0,-0.4,-4,0)"
         inkscape:connector-curvature="0" />
    </marker>
    <marker
       inkscape:stockid="marker4780i"
       orient="auto"
       refY="0"
       refX="0"
       id="marker4780i"
       style="overflow:visible"
       inkscape:isstock="true">
      <path
         inkscape:connector-curvature="0"
         id="path4504"
         d="M 0,0 5,-5 -12.5,0 5,5 0,0 z"
         style="fill:#7d7d7d;fill-opacity:1;fill-rule:evenodd;stroke:#7d7d7d;stroke-width:1pt;stroke-opacity:1"
         transform="matrix(-0.4,0,0,-0.4,-4,0)" />
    </marker>
    <marker
       inkscape:stockid="Arrow1Mend-2J"
       orient="auto"
       refY="0"
       refX="0"
       id="Arrow1Mend-2J"
       style="overflow:visible"
       inkscape:isstock="true"
       inkscape:collect="always">
      <path
         id="path4507"
         d="M 0,0 5,-5 -12.5,0 5,5 0,0 z"
         style="fill:#7d7d7d;fill-opacity:1;fill-rule:evenodd;stroke:#7d7d7d;stroke-width:1pt;stroke-opacity:1"
         transform="matrix(-0.4,0,0,-0.4,-4,0)"
         inkscape:connector-curvature="0" />
    </marker>
    <marker
       inkscape:stockid="Arrow1Mend-20"
       orient="auto"
       refY="0"
       refX="0"
       id="Arrow1Mend-20"
       style="overflow:visible"
       inkscape:isstock="true"
       inkscape:collect="always">
      <path
         id="path4800"
         d="M 0,0 5,-5 -12.5,0 5,5 0,0 z"
         style="fill:#7d7d7d;fill-opacity:1;fill-rule:evenodd;stroke:#7d7d7d;stroke-width:1pt;stroke-opacity:1"
         transform="matrix(-0.4,0,0,-0.4,-4,0)"
         inkscape:connector-curvature="0" />
    </marker>
  </defs>
  <metadata
     id="metadata7">
    <rdf:RDF>
      <cc:Work
         rdf:about="">
        <dc:format>image/svg+xml</dc:format>
        <dc:type
           rdf:resource="http://purl.org/dc/dcmitype/StillImage" />
        <dc:title></dc:title>
      </cc:Work>
    </rdf:RDF>
  </metadata>
  <g
     inkscape:label="Layer 1"
     inkscape:groupmode="layer"
     id="layer1"
     transform="translate(-265.06802,-256.53278)">
    <g
       id="g4173">
      <path
         transform="translate(265.06802,256.53278)"
         inkscape:connector-curvature="0"
         id="path4139"
         d="m 12.747716,11.877657 24.304811,6.05679 33.521784,8.353671"
         style="fill:none;stroke:#000000;stroke-width:0.51500005000000004;stroke-linecap:butt;stroke-linejoin:miter;stroke-miterlimit:4;stroke-opacity:1;stroke-dasharray:none;marker-mid:url(#Arrow1Mend-2)"
         sodipodi:nodetypes="ccc" />
      <path
         transform="translate(265.06802,256.53278)"
         inkscape:connector-curvature="0"
         id="path4141"
         d="M 12.562966,32.754351 25.114144,31.355334 70.574311,26.288118"
         style="fill:none;stroke:#000000;stroke-width:0.51500005000000004;stroke-linecap:butt;stroke-linejoin:miter;stroke-miterlimit:4;stroke-opacity:1;stroke-dasharray:none;marker-mid:url(#Arrow1Mend-2)"
         sodipodi:nodetypes="ccc" />
      <path
         transform="translate(265.06802,256.53278)"
         inkscape:connector-curvature="0"
         id="path4143"
         d="M 12.747716,52.522548 59.03889,31.318203 70.020062,26.288118"
         style="fill:none;stroke:#000000;stroke-width:0.51500005000000004;stroke-linecap:butt;stroke-linejoin:miter;stroke-miterlimit:4;stroke-opacity:1;stroke-dasharray:none;marker-mid:url(#Arrow1Mend-2)"
         sodipodi:nodetypes="ccc" />
      <path
         transform="translate(265.06802,256.53278)"
         inkscape:connector-curvature="0"
         id="path4145"
         d="M 12.747716,73.768741 62.209369,33.472506 70.574311,26.657617"
         style="fill:none;stroke:#000000;stroke-width:0.51500005000000004;stroke-linecap:butt;stroke-linejoin:miter;stroke-miterlimit:4;stroke-opacity:1;stroke-dasharray:none;marker-mid:url(#Arrow1Mend-2)"
         sodipodi:nodetypes="ccc" />
      <path
         transform="translate(265.06802,256.53278)"
         inkscape:connector-curvature="0"
         id="path4148"
         d="m 12.193465,73.768742 26.045876,-7.21893 32.150222,-9.039028"
         style="fill:none;stroke:#000000;stroke-width:0.51500005;stroke-linecap:butt;stroke-linejoin:miter;stroke-miterlimit:4;stroke-opacity:1;stroke-dasharray:none;marker-mid:url(#Arrow1Mend-2)"
         sodipodi:nodetypes="ccc" />
      <path
         transform="translate(265.06802,256.53278)"
         inkscape:connector-curvature="0"
         id="path4151"
         d="m 12.378217,53.261546 27.324513,2.255357 30.871581,2.54813"
         style="fill:none;stroke:#000000;stroke-width:0.51500005000000004;stroke-linecap:butt;stroke-linejoin:miter;stroke-miterlimit:4;stroke-opacity:1;stroke-dasharray:none;marker-mid:url(#Arrow1Mend-2)"
         sodipodi:nodetypes="ccc" />
      <path
         transform="translate(265.06802,256.53278)"
         inkscape:connector-curvature="0"
         id="path4153"
         d="m 12.562966,32.569602 14.32334,6.294971 43.688005,19.20046"
         style="fill:none;stroke:#000000;stroke-width:0.51500005000000004;stroke-linecap:butt;stroke-linejoin:miter;stroke-miterlimit:4;stroke-opacity:1;stroke-dasharray:none;marker-mid:url(#Arrow1Mend-2)"
         sodipodi:nodetypes="ccc" />
      <path
         transform="translate(265.06802,256.53278)"
         inkscape:connector-curvature="0"
         id="path4155"
         d="m 12.747716,12.431906 49.164347,39.140548 7.92325,6.30783"
         style="fill:none;stroke:#000000;stroke-width:0.51500005000000004;stroke-linecap:butt;stroke-linejoin:miter;stroke-miterlimit:4;stroke-opacity:1;stroke-dasharray:none;marker-mid:url(#Arrow1Mend-2)"
         sodipodi:nodetypes="ccc" />
      <path
         transform="translate(265.06802,256.53278)"
         inkscape:connector-curvature="0"
         id="path4157"
         d="M 127.66191,11.692908 70.574311,26.472868"
         style="fill:none;stroke:#000000;stroke-width:0.51500002000000000;stroke-linecap:butt;stroke-linejoin:miter;stroke-opacity:1;stroke-miterlimit:4;stroke-dasharray:none;marker-mid:url(#Arrow1Mend-2)" />
      <path
         transform="translate(265.06802,256.53278)"
         inkscape:connector-curvature="0"
         id="path4159"
         d="M 127.66191,32.200103 82.930393,28.001999 70.574311,26.842367"
         style="fill:none;stroke:#000000;stroke-width:0.51500005000000004;stroke-linecap:butt;stroke-linejoin:miter;stroke-miterlimit:4;stroke-opacity:1;stroke-dasharray:none;marker-mid:url(#Arrow1Mstart-38)"
         sodipodi:nodetypes="ccc" />
      <path
         transform="translate(265.06802,256.53278)"
         inkscape:connector-curvature="0"
         id="path4161"
         d="M 127.66191,52.707298 83.100134,32.095663 70.94381,26.472868"
         style="fill:none;stroke:#000000;stroke-width:0.51500005000000004;stroke-linecap:butt;stroke-linejoin:miter;stroke-miterlimit:4;stroke-opacity:1;stroke-dasharray:none;marker-mid:url(#Arrow1Mstart-38)"
         sodipodi:nodetypes="ccc" />
      <path
         transform="translate(265.06802,256.53278)"
         inkscape:connector-curvature="0"
         id="path4163"
         d="M 127.84666,72.844994 80.129484,34.209475 70.574311,26.472868"
         style="fill:none;stroke:#000000;stroke-width:0.51500005000000004;stroke-linecap:butt;stroke-linejoin:miter;stroke-miterlimit:4;stroke-opacity:1;stroke-dasharray:none;marker-mid:url(#Arrow1Mstart-38)"
         sodipodi:nodetypes="ccc" />
      <path
         sodipodi:nodetypes="ccc"
         transform="translate(265.06802,256.53278)"
         inkscape:connector-curvature="0"
         id="path4165"
         d="m 69.835312,57.695534 35.748708,9.251264 22.07789,5.713446"
         style="fill:none;stroke:#000000;stroke-width:0.51500005;stroke-linecap:butt;stroke-linejoin:miter;stroke-miterlimit:4;stroke-opacity:1;stroke-dasharray:none;marker-mid:url(#Arrow1Mend-2)" />
      <path
         sodipodi:nodetypes="ccc"
         transform="translate(265.06802,256.53278)"
         inkscape:connector-curvature="0"
         id="path4167"
         d="M 127.10766,52.337799 82.410519,56.532676 70.020062,57.695534"
         style="fill:none;stroke:#000000;stroke-width:0.51500005000000004;stroke-linecap:butt;stroke-linejoin:miter;stroke-miterlimit:4;stroke-opacity:1;stroke-dasharray:none;marker-mid:url(#Arrow1Mstart-38)" />
      <path
         transform="translate(265.06802,256.53278)"
         inkscape:connector-curvature="0"
         id="path4169"
         d="M 128.03141,32.015353 82.148122,52.375139 70.574311,57.510785"
         style="fill:none;stroke:#000000;stroke-width:0.51500005000000004;stroke-linecap:butt;stroke-linejoin:miter;stroke-miterlimit:4;stroke-opacity:1;stroke-dasharray:none;marker-mid:url(#Arrow1Mstart-38)"
         sodipodi:nodetypes="ccc" />
      <path
         transform="translate(265.06802,256.53278)"
         inkscape:connector-curvature="0"
         id="path4171"
         d="M 127.66191,11.692908 78.313213,51.203599 70.204812,57.695534"
         style="fill:none;stroke:#000000;stroke-width:0.51500005000000004;stroke-linecap:butt;stroke-linejoin:miter;stroke-miterlimit:4;stroke-opacity:1;stroke-dasharray:none;marker-mid:url(#Arrow1Mstart-38)"
         sodipodi:nodetypes="ccc" />
    </g>
    <path
       style="fill:none;stroke:#000000;stroke-width:0.51470834;stroke-linecap:butt;stroke-linejoin:miter;stroke-miterlimit:4;stroke-opacity:1;stroke-dasharray:none;marker-mid:url(#marker7000)"
       d="m 277.80907,268.12952 28.30897,0 28.30895,0"
       id="path6558"
       inkscape:connector-curvature="0"
       sodipodi:nodetypes="ccc" />
    <path
       style="fill:none;stroke:#000000;stroke-width:0.51470834;stroke-linecap:butt;stroke-linejoin:miter;stroke-miterlimit:4;stroke-opacity:1;stroke-dasharray:none;marker-mid:url(#marker6810)"
       d="m 277.80907,268.12952 28.30897,15.44125 28.30895,15.44126"
       id="path6560"
       inkscape:connector-curvature="0"
       sodipodi:nodetypes="ccc" />
    <path
       style="fill:none;stroke:#7d7d7d;stroke-width:0.51470834;stroke-linecap:round;stroke-linejoin:miter;stroke-miterlimit:4;stroke-opacity:1;stroke-dasharray:2.05883335, 2.05883335;stroke-dashoffset:0;marker-mid:url(#Arrow1Mend-2J)"
       d="m 277.80907,268.12952 28.30897,30.88251 28.30895,30.8825"
       id="path6562"
       inkscape:connector-curvature="0"
       sodipodi:nodetypes="ccc" />
    <path
       style="fill:none;stroke:#000000;stroke-width:0.51470834;stroke-linecap:butt;stroke-linejoin:miter;stroke-miterlimit:4;stroke-opacity:1;stroke-dasharray:none;marker-mid:url(#marker6448)"
       d="m 279.1089,288.77012 27.65905,-10.3203 27.65904,-10.3203"
       id="path6564"
       inkscape:connector-curvature="0"
       sodipodi:nodetypes="ccc" />
    <path
       style="fill:none;stroke:#000000;stroke-width:0.51470834;stroke-linecap:butt;stroke-linejoin:miter;stroke-miterlimit:4;stroke-opacity:1;stroke-dasharray:none;marker-mid:url(#marker6276)"
       d="m 279.1089,288.77012 27.65905,5.12095 27.65904,5.12096"
       id="path6566"
       inkscape:connector-curvature="0"
       sodipodi:nodetypes="ccc" />
    <path
       style="fill:none;stroke:#7d7d7d;stroke-width:0.51470834;stroke-linecap:round;stroke-linejoin:miter;stroke-miterlimit:4;stroke-opacity:1;stroke-dasharray:2.05883335, 2.05883335;stroke-dashoffset:0;marker-mid:url(#Arrow1Mend-2T)"
       d="m 279.1089,288.77012 27.65905,20.5622 27.65904,20.56221"
       id="path6568"
       inkscape:connector-curvature="0"
       sodipodi:nodetypes="ccc" />
    <path
       style="fill:none;stroke:#000000;stroke-width:0.51470834;stroke-linecap:butt;stroke-linejoin:miter;stroke-miterlimit:4;stroke-opacity:1;stroke-dasharray:none;marker-mid:url(#marker5950)"
       d="m 278.84894,309.38392 27.78902,-20.62719 27.78903,-20.62721"
       id="path6576"
       inkscape:connector-curvature="0"
       sodipodi:nodetypes="ccc" />
    <path
       style="fill:none;stroke:#000000;stroke-width:0.51470834;stroke-linecap:butt;stroke-linejoin:miter;stroke-miterlimit:4;stroke-opacity:1;stroke-dasharray:none;marker-mid:url(#marker5796)"
       d="m 278.84894,309.38392 27.78902,-5.18594 27.78903,-5.18595"
       id="path6578"
       inkscape:connector-curvature="0"
       sodipodi:nodetypes="ccc" />
    <path
       style="fill:none;stroke:#000000;stroke-width:0.51500002;stroke-linecap:butt;stroke-linejoin:miter;stroke-miterlimit:4;stroke-opacity:1;stroke-dasharray:none;marker-mid:url(#marker5648)"
       d="m 278.84894,309.38392 27.78902,10.2553 27.78903,10.25531"
       id="path6580"
       inkscape:connector-curvature="0"
       sodipodi:nodetypes="ccc" />
    <path
       style="fill:none;stroke:#7d7d7d;stroke-width:0.51470834;stroke-linecap:round;stroke-linejoin:miter;stroke-miterlimit:4;stroke-opacity:1;stroke-dasharray:2.05883335, 2.05883335;stroke-dashoffset:0;marker-mid:url(#Arrow1Mend-20)"
       d="m 277.80907,329.89453 28.30897,-30.8825 28.30895,-30.88251"
       id="path6582"
       inkscape:connector-curvature="0"
       sodipodi:nodetypes="ccc" />
    <path
       style="fill:none;stroke:#7d7d7d;stroke-width:0.51470834;stroke-linecap:round;stroke-linejoin:miter;stroke-miterlimit:4;stroke-opacity:1;stroke-dasharray:2.05883335, 2.05883335;stroke-dashoffset:0;marker-mid:url(#Arrow1Mend-2m)"
       d="m 277.80907,329.89453 28.30897,-15.44125 28.30895,-15.44125"
       id="path6584"
       inkscape:connector-curvature="0"
       sodipodi:nodetypes="ccc" />
    <path
       style="fill:none;stroke:#000000;stroke-width:0.51470834;stroke-linecap:butt;stroke-linejoin:miter;stroke-miterlimit:4;stroke-opacity:1;stroke-dasharray:none;marker-mid:url(#marker5240)"
       d="m 277.80907,329.89453 28.30897,0 28.30895,0"
       id="path6586"
       inkscape:connector-curvature="0"
       sodipodi:nodetypes="ccc" />
    <path
       style="fill:none;stroke:#000000;stroke-width:0.51470834;stroke-linecap:butt;stroke-linejoin:miter;stroke-miterlimit:4;stroke-opacity:1;stroke-dasharray:none;marker-mid:url(#marker5116)"
       d="m 337.00053,268.12952 28.30896,0 28.30897,0"
       id="path6594"
       inkscape:connector-curvature="0"
       sodipodi:nodetypes="ccc" />
    <path
       style="fill:none;stroke:#000000;stroke-width:0.51470834;stroke-linecap:butt;stroke-linejoin:miter;stroke-miterlimit:4;stroke-opacity:1;stroke-dasharray:none;marker-mid:url(#marker4998)"
       d="m 337.00053,268.12952 28.30896,10.29417 28.30897,10.29417"
       id="path6596"
       inkscape:connector-curvature="0"
       sodipodi:nodetypes="ccc" />
    <path
       style="fill:none;stroke:#000000;stroke-width:0.51470834;stroke-linecap:butt;stroke-linejoin:miter;stroke-miterlimit:4;stroke-opacity:1;stroke-dasharray:none;marker-mid:url(#marker4886)"
       d="m 337.00053,268.12952 28.30896,20.58834 28.30897,20.58834"
       id="path6598"
       inkscape:connector-curvature="0"
       sodipodi:nodetypes="ccc" />
    <path
       style="fill:none;stroke:#7d7d7d;stroke-width:0.51470834;stroke-linecap:round;stroke-linejoin:miter;stroke-miterlimit:4;stroke-opacity:1;stroke-dasharray:2.05883335, 2.05883335;stroke-dashoffset:0;marker-mid:url(#marker4780i)"
       d="m 337.00053,268.12952 28.30896,30.88251 28.30897,30.8825"
       id="path6600"
       inkscape:connector-curvature="0"
       sodipodi:nodetypes="ccc" />
    <path
       style="fill:none;stroke:#000000;stroke-width:0.51470834;stroke-linecap:butt;stroke-linejoin:miter;stroke-miterlimit:4;stroke-opacity:1;stroke-dasharray:none;marker-mid:url(#marker4680)"
       d="m 337.00053,299.01203 28.30896,-15.44126 28.30897,-15.44125"
       id="path6602"
       inkscape:connector-curvature="0"
       sodipodi:nodetypes="ccc" />
    <path
       style="fill:none;stroke:#000000;stroke-width:0.51470834;stroke-linecap:butt;stroke-linejoin:miter;stroke-miterlimit:4;stroke-opacity:1;stroke-dasharray:none;marker-mid:url(#marker4586)"
       d="m 337.00053,299.01203 28.30896,-5.14708 28.30897,-5.14709"
       id="path6604"
       inkscape:connector-curvature="0"
       sodipodi:nodetypes="ccc" />
    <path
       style="fill:none;stroke:#000000;stroke-width:0.51470834;stroke-linecap:butt;stroke-linejoin:miter;stroke-miterlimit:4;stroke-opacity:1;stroke-dasharray:none;marker-mid:url(#marker4498)"
       d="m 337.00053,299.01203 28.30896,5.14708 28.30897,5.14709"
       id="path6606"
       inkscape:connector-curvature="0"
       sodipodi:nodetypes="ccc" />
    <path
       style="fill:none;stroke:#000000;stroke-width:0.51470834;stroke-linecap:butt;stroke-linejoin:miter;stroke-miterlimit:4;stroke-opacity:1;stroke-dasharray:none;marker-mid:url(#marker4416)"
       d="m 337.00053,299.01203 28.30896,15.44125 28.30897,15.44125"
       id="path6608"
       inkscape:connector-curvature="0"
       sodipodi:nodetypes="ccc" />
    <path
       style="fill:none;stroke:#7d7d7d;stroke-width:0.51470834;stroke-linecap:round;stroke-linejoin:miter;stroke-miterlimit:4;stroke-opacity:1;stroke-dasharray:2.05883335, 2.05883335;stroke-dashoffset:0;marker-mid:url(#marker43406)"
       d="m 337.00053,329.89453 28.30896,-30.8825 28.30897,-30.88251"
       id="path6610"
       inkscape:connector-curvature="0"
       sodipodi:nodetypes="ccc" />
    <path
       style="fill:none;stroke:#000000;stroke-width:0.51470834;stroke-linecap:butt;stroke-linejoin:miter;stroke-miterlimit:4;stroke-opacity:1;stroke-dasharray:none;marker-mid:url(#marker4270)"
       d="m 337.00053,329.89453 28.30896,-20.58833 28.30897,-20.58834"
       id="path6612"
       inkscape:connector-curvature="0"
       sodipodi:nodetypes="ccc" />
    <path
       style="fill:none;stroke:#000000;stroke-width:0.51470834;stroke-linecap:butt;stroke-linejoin:miter;stroke-miterlimit:4;stroke-opacity:1;stroke-dasharray:none;marker-mid:url(#marker4737)"
       d="m 337.00053,329.89453 28.30896,-10.29417 28.30897,-10.29416"
       id="path6614"
       inkscape:connector-curvature="0"
       sodipodi:nodetypes="ccc" />
    <path
       style="fill:none;stroke:#000000;stroke-width:0.51470834;stroke-linecap:butt;stroke-linejoin:miter;stroke-miterlimit:4;stroke-opacity:1;stroke-dasharray:none;marker-mid:url(#marker7196)"
       d="m 337.00053,329.89453 28.30896,0 28.30897,0"
       id="path6616"
       inkscape:connector-curvature="0"
       sodipodi:nodetypes="ccc" />
    <circle
       sodipodi:ry="10"
       sodipodi:rx="10"
       sodipodi:cy="431.64789"
       sodipodi:cx="120.61867"
       style="fill:#ff1616;fill-opacity:1;stroke:#650000;stroke-width:2;stroke-linecap:round;stroke-linejoin:round;stroke-miterlimit:4;stroke-opacity:1;stroke-dasharray:none;stroke-dashoffset:0"
       id="path4622"
       cx="120.61867"
       cy="431.64789"
       r="10"
       d="m 130.61867,431.64789 c 0,5.52285 -4.47715,10 -10,10 -5.52285,0 -10,-4.47715 -10,-10 0,-5.52285 4.47715,-10 10,-10 5.52285,0 10,4.47715 10,10 z"
       transform="matrix(0.25735417,0,0,0.25735417,246.92657,218.62431)" />
    <circle
       sodipodi:ry="10"
       sodipodi:rx="10"
       sodipodi:cy="352.36218"
       sodipodi:cx="120.61867"
       style="fill:#ff1616;fill-opacity:1;stroke:#650000;stroke-width:2;stroke-linecap:round;stroke-linejoin:round;stroke-miterlimit:4;stroke-opacity:1;stroke-dasharray:none;stroke-dashoffset:0"
       id="path4622-7"
       cx="120.61867"
       cy="352.36218"
       r="10"
       d="m 130.61867,352.36218 c 0,5.52285 -4.47715,10 -10,10 -5.52285,0 -10,-4.47715 -10,-10 0,-5.52284 4.47715,-10 10,-10 5.52285,0 10,4.47716 10,10 z"
       transform="matrix(0.25735417,0,0,0.25735417,246.92657,218.62431)" />
    <circle
       sodipodi:ry="10"
       sodipodi:rx="10"
       sodipodi:cy="273.07648"
       sodipodi:cx="120.61867"
       style="fill:#ff1616;fill-opacity:1;stroke:#650000;stroke-width:2;stroke-linecap:round;stroke-linejoin:round;stroke-miterlimit:4;stroke-opacity:1;stroke-dasharray:none;stroke-dashoffset:0"
       id="path4622-3"
       cx="120.61867"
       cy="273.07648"
       r="10"
       d="m 130.61867,273.07648 c 0,5.52284 -4.47715,10 -10,10 -5.52285,0 -10,-4.47716 -10,-10 0,-5.52285 4.47715,-10 10,-10 5.52285,0 10,4.47715 10,10 z"
       transform="matrix(0.25735417,0,0,0.25735417,246.92657,218.62431)" />
    <circle
       sodipodi:ry="10"
       sodipodi:rx="10"
       sodipodi:cy="193.79077"
       sodipodi:cx="120.61867"
       style="fill:#ff1616;fill-opacity:1;stroke:#650000;stroke-width:2;stroke-linecap:round;stroke-linejoin:round;stroke-miterlimit:4;stroke-opacity:1;stroke-dasharray:none;stroke-dashoffset:0"
       id="path4622-3-8"
       cx="120.61867"
       cy="193.79077"
       r="10"
       d="m 130.61867,193.79077 c 0,5.52285 -4.47715,10 -10,10 -5.52285,0 -10,-4.47715 -10,-10 0,-5.52285 4.47715,-10 10,-10 5.52285,0 10,4.47715 10,10 z"
       transform="matrix(0.25735417,0,0,0.25735417,246.92657,218.62431)" />
    <circle
       sodipodi:ry="10"
       sodipodi:rx="10"
       sodipodi:cy="431.64789"
       sodipodi:cx="482.04724"
       d="m 492.04724,431.64789 c 0,5.52285 -4.47715,10 -10,10 -5.52285,0 -10,-4.47715 -10,-10 0,-5.52285 4.47715,-10 10,-10 5.52285,0 10,4.47715 10,10 z"
       style="fill:#ff1616;fill-opacity:1;stroke:#650000;stroke-width:2;stroke-linecap:round;stroke-linejoin:round;stroke-miterlimit:4;stroke-opacity:1;stroke-dasharray:none;stroke-dashoffset:0"
       id="path4622-9"
       cx="482.04724"
       cy="431.64789"
       r="10"
       transform="matrix(0.25735417,0,0,0.25735417,269.02376,218.36434)" />
    <circle
       sodipodi:ry="10"
       sodipodi:rx="10"
       sodipodi:cy="352.36221"
       sodipodi:cx="482.04724"
       d="m 492.04724,352.36221 c 0,5.52285 -4.47715,10 -10,10 -5.52285,0 -10,-4.47715 -10,-10 0,-5.52284 4.47715,-10 10,-10 5.52285,0 10,4.47716 10,10 z"
       style="fill:#ff1616;fill-opacity:1;stroke:#650000;stroke-width:2;stroke-linecap:round;stroke-linejoin:round;stroke-miterlimit:4;stroke-opacity:1;stroke-dasharray:none;stroke-dashoffset:0"
       id="path4622-7-6"
       cx="482.04724"
       cy="352.36221"
       r="10"
       transform="matrix(0.25735417,0,0,0.25735417,269.02376,218.36434)" />
    <circle
       sodipodi:ry="10"
       sodipodi:rx="10"
       sodipodi:cy="193.79077"
       sodipodi:cx="482.04724"
       d="m 492.04724,193.79077 c 0,5.52285 -4.47715,10 -10,10 -5.52285,0 -10,-4.47715 -10,-10 0,-5.52285 4.47715,-10 10,-10 5.52285,0 10,4.47715 10,10 z"
       style="fill:#ff1616;fill-opacity:1;stroke:#650000;stroke-width:2;stroke-linecap:round;stroke-linejoin:round;stroke-miterlimit:4;stroke-opacity:1;stroke-dasharray:none;stroke-dashoffset:0"
       id="path4622-3-1"
       cx="482.04724"
       cy="193.79077"
       r="10"
       transform="matrix(0.25735417,0,0,0.25735417,269.02376,218.36434)" />
    <circle
       sodipodi:ry="10"
       sodipodi:rx="10"
       sodipodi:cy="273.07651"
       sodipodi:cx="482.04724"
       d="m 492.04724,273.07651 c 0,5.52285 -4.47715,10 -10,10 -5.52285,0 -10,-4.47715 -10,-10 0,-5.52285 4.47715,-10 10,-10 5.52285,0 10,4.47715 10,10 z"
       style="fill:#ff1616;fill-opacity:1;stroke:#650000;stroke-width:2;stroke-linecap:round;stroke-linejoin:round;stroke-miterlimit:4;stroke-opacity:1;stroke-dasharray:none;stroke-dashoffset:0"
       id="path4622-5-3"
       cx="482.04724"
       cy="273.07651"
       r="10"
       transform="matrix(0.25735417,0,0,0.25735417,269.02376,218.36434)" />
    <path
       style="fill:none;stroke:#000000;stroke-width:1.02941668;stroke-linecap:butt;stroke-linejoin:miter;stroke-miterlimit:4;stroke-opacity:1;stroke-dasharray:none;marker-start:url(#Arrow1Mstart-38);marker-end:url(#Arrow1Mend-2)"
       d="m 267.4824,257.81955 0,82.35333 138.97126,0"
       id="path3338-1"
       inkscape:connector-curvature="0" />
    <path
       style="fill:none;stroke:#000000;stroke-width:1.02941668;stroke-linecap:butt;stroke-linejoin:miter;stroke-miterlimit:4;stroke-opacity:1;stroke-dasharray:none"
       d="m 277.77657,340.17288 0,-2.57354"
       id="path3407"
       inkscape:connector-curvature="0" />
    <path
       style="fill:none;stroke:#000000;stroke-width:1.02941668;stroke-linecap:butt;stroke-linejoin:miter;stroke-miterlimit:4;stroke-opacity:1;stroke-dasharray:none"
       d="m 335.31361,339.80523 0,-2.57354"
       id="path3407-6"
       inkscape:connector-curvature="0" />
    <path
       style="fill:none;stroke:#000000;stroke-width:1.02941668;stroke-linecap:butt;stroke-linejoin:miter;stroke-miterlimit:4;stroke-opacity:1;stroke-dasharray:none"
       d="m 393.58595,340.17288 0,-2.57354"
       id="path3407-8"
       inkscape:connector-curvature="0" />
    <text
       xml:space="preserve"
       style="font-size:10.29416656px;font-style:normal;font-variant:normal;font-weight:500;font-stretch:normal;text-align:center;line-height:0%;letter-spacing:0px;word-spacing:0px;text-anchor:middle;fill:#000000;fill-opacity:1;stroke:none;font-family:CMU Sans Serif;-inkscape-font-specification:CMU Sans Serif Medium"
       x="278.31577"
       y="352.39877"
       id="text4290"
       sodipodi:linespacing="0%"><tspan
         sodipodi:role="line"
         id="tspan4292"
         x="278.31577"
         y="352.39877"
         style="font-size:9.357584px;font-style:normal;font-variant:normal;font-weight:normal;font-stretch:normal;text-align:center;text-anchor:middle;font-family:Times New Roman;-inkscape-font-specification:'Times New Roman, '">\small $t_1$</tspan></text>
    <text
       xml:space="preserve"
       style="font-size:10.29416656px;font-style:normal;font-variant:normal;font-weight:500;font-stretch:normal;text-align:center;line-height:0%;letter-spacing:0px;word-spacing:0px;text-anchor:middle;fill:#000000;fill-opacity:1;stroke:none;font-family:CMU Sans Serif;-inkscape-font-specification:CMU Sans Serif Medium"
       x="335.86609"
       y="352.39877"
       id="text4290-2"
       sodipodi:linespacing="0%"><tspan
         sodipodi:role="line"
         id="tspan4292-9"
         x="335.86609"
         y="352.39877"
         style="font-size:8.36401081px;font-style:normal;font-variant:normal;font-weight:normal;font-stretch:normal;text-align:center;text-anchor:middle;font-family:Times New Roman;-inkscape-font-specification:'Times New Roman, '">\small $t_2$</tspan></text>
    <text
       xml:space="preserve"
       style="font-size:10.29416656px;font-style:normal;font-variant:normal;font-weight:500;font-stretch:normal;text-align:center;line-height:0%;letter-spacing:0px;word-spacing:0px;text-anchor:middle;fill:#000000;fill-opacity:1;stroke:none;font-family:CMU Sans Serif;-inkscape-font-specification:CMU Sans Serif Medium"
       x="393.99478"
       y="352.33508"
       id="text4290-2-5"
       sodipodi:linespacing="0%"><tspan
         sodipodi:role="line"
         id="tspan4292-9-5"
         x="393.99478"
         y="352.33508"
         style="font-size:8.36401081px;font-style:normal;font-variant:normal;font-weight:normal;font-stretch:normal;text-align:center;text-anchor:middle;font-family:Times New Roman;-inkscape-font-specification:'Times New Roman, '">\small $t_3$</tspan></text>
    <path
       style="fill:none;stroke:#ffffff;stroke-width:0.8746621px;stroke-linecap:butt;stroke-linejoin:miter;stroke-opacity:1"
       d="m 263.7398,357.76137 147.44303,0"
       id="path3277"
       inkscape:connector-curvature="0" />
    <circle
       sodipodi:ry="10"
       sodipodi:rx="10"
       sodipodi:cy="431.64789"
       sodipodi:cx="300.61868"
       d="m 310.61868,431.64789 c 0,5.52285 -4.47715,10 -10,10 -5.52284,0 -10,-4.47715 -10,-10 0,-5.52285 4.47716,-10 10,-10 5.52285,0 10,4.47715 10,10 z"
       style="fill:#ff1616;fill-opacity:1;stroke:#650000;stroke-width:2;stroke-linecap:round;stroke-linejoin:round;stroke-miterlimit:4;stroke-opacity:1;stroke-dasharray:none;stroke-dashoffset:0"
       id="path4622-54"
       cx="300.61868"
       cy="431.64789"
       r="10"
       transform="matrix(0.25735417,0,0,0.25735417,258.35197,218.59438)" />
    <circle
       sodipodi:ry="10"
       sodipodi:rx="10"
       sodipodi:cy="312.71939"
       sodipodi:cx="300.61868"
       d="m 310.61868,312.71939 c 0,5.52285 -4.47715,10 -10,10 -5.52284,0 -10,-4.47715 -10,-10 0,-5.52285 4.47716,-10 10,-10 5.52285,0 10,4.47715 10,10 z"
       style="fill:#ff1616;fill-opacity:1;stroke:#650000;stroke-width:2;stroke-linecap:round;stroke-linejoin:round;stroke-miterlimit:4;stroke-opacity:1;stroke-dasharray:none;stroke-dashoffset:0"
       id="path4622-7-3"
       cx="300.61868"
       cy="312.71939"
       r="10"
       transform="matrix(0.25735417,0,0,0.25735417,258.35197,218.59438)" />
    <circle
       sodipodi:ry="10"
       sodipodi:rx="10"
       sodipodi:cy="193.79077"
       sodipodi:cx="300.61868"
       d="m 310.61868,193.79077 c 0,5.52285 -4.47715,10 -10,10 -5.52284,0 -10,-4.47715 -10,-10 0,-5.52285 4.47716,-10 10,-10 5.52285,0 10,4.47715 10,10 z"
       style="fill:#ff1616;fill-opacity:1;stroke:#650000;stroke-width:2;stroke-linecap:round;stroke-linejoin:round;stroke-miterlimit:4;stroke-opacity:1;stroke-dasharray:none;stroke-dashoffset:0"
       id="path4622-5-2"
       cx="300.61868"
       cy="193.79077"
       r="10"
       transform="matrix(0.25735417,0,0,0.25735417,258.35197,218.59438)" />
    <circle
       transform="matrix(0.25735418,0,0,0.25735418,258.57142,202.51318)"
       r="10"
       cy="312.71939"
       cx="300.61868"
       id="path4622-7-3-78"
       style="fill:#ff1616;fill-opacity:1;stroke:#650000;stroke-width:2;stroke-linecap:round;stroke-linejoin:round;stroke-miterlimit:4;stroke-opacity:1;stroke-dasharray:none;stroke-dashoffset:0"
       d="m 310.61868,312.71939 c 0,5.52285 -4.47715,10 -10,10 -5.52284,0 -10,-4.47715 -10,-10 0,-5.52285 4.47716,-10 10,-10 5.52285,0 10,4.47715 10,10 z"
       sodipodi:cx="300.61868"
       sodipodi:cy="312.71939"
       sodipodi:rx="10"
       sodipodi:ry="10" />
    <circle
       transform="matrix(0.25735418,0,0,0.25735418,258.57142,233.86622)"
       r="10"
       cy="312.71939"
       cx="300.61868"
       id="path4622-7-3-9"
       style="fill:#ff1616;fill-opacity:1;stroke:#650000;stroke-width:2;stroke-linecap:round;stroke-linejoin:round;stroke-miterlimit:4;stroke-opacity:1;stroke-dasharray:none;stroke-dashoffset:0"
       d="m 310.61868,312.71939 c 0,5.52285 -4.47715,10 -10,10 -5.52284,0 -10,-4.47715 -10,-10 0,-5.52285 4.47716,-10 10,-10 5.52285,0 10,4.47715 10,10 z"
       sodipodi:cx="300.61868"
       sodipodi:cy="312.71939"
       sodipodi:rx="10"
       sodipodi:ry="10" />
  </g>
</svg>
